<?xml version="1.0" encoding="UTF-8"?>
<svg id="Layer_1" xmlns="http://www.w3.org/2000/svg" viewBox="0 0 150 150">
  <defs>
    <style>
      .cls-1 {
        fill: #ea7000;
      }

      .cls-2 {
        fill: #085e92;
      }
    </style>
  </defs>
  <path class="cls-2" d="M32.62,100.92c.75-.53,1.23-.88,1.72-1.22,7.92-5.42,8.03-16.18.21-21.78-1.87-1.34-1.95-1.37-1.18-3.38.89-2.35,1.94-4.64,3-7.15,5.38,1.39,10.19.82,14.14-3.19,3.88-3.93,4.4-8.68,3.09-14.04,2.45-1.04,4.74-2.05,7.06-3.01,1.78-.73,2.37-.54,3.48,1.13,2.5,3.79,6.13,5.8,10.73,5.82,4.59.02,8.22-1.96,10.82-5.68,1.17-1.68,1.2-2.17,3.68-1.19,2.32.92,4.61,1.94,6.84,2.89-2.58,11.92,5.71,20.16,17.37,17.41,1,2.33,1.99,4.74,3.07,7.1.67,1.46.33,2.32-1.06,3.2-4.18,2.68-6.09,6.62-5.87,11.57.19,4.33,2.05,7.75,5.66,10.19.5.34,1,.68,1.49,1.03.07.05.1.17.39.66-.98,2.31-2.08,4.89-3.16,7.48-.49,1.18-1.34,1.35-2.46,1.02-2.2-.64-4.39-.5-6.58.17-5.94,1.8-9.52,6.76-9.34,12.99.03.91.03,1.86.32,2.7.46,1.33-.21,1.89-1.23,2.33-2.5,1.06-5.01,2.11-7.64,3.21-2.78-4.76-6.61-7.72-12.05-7.76-5.42-.04-9.4,2.67-12.21,7.48-3-.55-5.7-1.87-8.34-3.31-.42-.23-.64-1.14-.64-1.74,0-1.41.35-2.82.28-4.22-.39-7.71-7.52-13.45-15.09-12.01-2.51.48-2.65.66-3.85-1.99-.99-2.19-1.77-4.47-2.65-6.73ZM103.23,89.02c.05-15.74-12.3-28.08-27.92-28.4-15.5-.32-28.58,12.51-28.59,28.05-.01,14.67,11.29,28.2,28.08,28.3,17.53.1,28.41-14.13,28.43-27.94Z"/>
  <path class="cls-1" d="M31.49,52.06c.68-2.13,1.24-3.84,1.77-5.57.76-2.47.75-2.47-1.25-3.95-1.38-1.02-2.76-2.04-4.12-3.08-.13-.1-.15-.35-.35-.86,1.1,0,2.08.02,3.06,0,6.43-.13,4.7,1,6.92-5.1.31-.84.62-1.67,1.08-2.92,1.22,1.86,1.45,3.67,2.03,5.32.94,2.67.9,2.68,3.81,2.7,1.51.01,3.03.03,4.54.06.19,0,.37.14.97.37-1.57,1.21-2.96,2.3-4.37,3.35-2.21,1.65-2.22,1.63-1.41,4.18.54,1.72,1.08,3.43,1.81,5.75-2.18-.99-3.56-2.24-5.06-3.28-2.24-1.55-2.22-1.57-4.42-.03-1.32.93-2.63,1.87-3.96,2.79-.15.11-.38.1-1.05.26Z"/>
  <path class="cls-1" d="M117.76,52.07c-1.64-1.17-3.33-2.26-4.89-3.53-1.17-.95-2.1-.84-3.23.03-1.57,1.22-3.23,2.32-5.37,3.14.53-1.8,1.05-3.59,1.59-5.39q.7-2.31-1.21-3.75c-1.5-1.13-2.99-2.27-4.48-3.4.07-.19.15-.38.22-.58,1.19,0,2.38.02,3.57,0,5.34-.1,4.12.75,5.9-4.41.36-1.03.69-2.07,1.27-3.81,1.23,2.23,1.56,4.06,2.17,5.77.86,2.4.83,2.42,3.39,2.45,1.87.02,3.73,0,5.6,0,.05.21.11.41.16.62-1.61,1.19-3.17,2.44-4.84,3.53-1.29.85-1.71,1.73-1.1,3.25.74,1.84,1.22,3.79,1.81,5.7-.19.13-.38.25-.57.38Z"/>
  <path class="cls-1" d="M75.36,19.01c.56,1.72,1.12,3.43,1.69,5.15q.79,2.36,3.39,2.38c1.91.01,3.82,0,6.48,0-2.74,2-4.9,3.58-7.26,5.3.8,2.57,1.6,5.12,2.6,8.3-2.36-1.15-3.8-2.51-5.41-3.57-1.87-1.24-1.88-1.27-3.71-.01-1.58,1.08-3.12,2.21-5.08,3.6.15-1.03.18-1.66.34-2.25.36-1.26.8-2.5,1.19-3.75.72-2.3.72-2.31-1.17-3.7-1.59-1.17-3.21-2.32-5.42-3.91,2.36,0,3.96.03,5.57,0,4.12-.08,3.21.67,4.71-3.48.51-1.41.97-2.83,1.45-4.24.21.07.42.13.63.2Z"/>
  <path class="cls-1" d="M92.58,104.91c-.24-1.1-.38-2-.64-2.86-1.8-6.1-8.53-9.43-14.47-7.13-1.59.61-3.12.65-4.72.1-7.26-2.52-13.78,1.29-15.14,8.82-.05.28-.15.55-.24.84-6.45-5.31-10.4-20.59-.43-31.86,8.53-9.66,23.65-11.58,34.42-1.65,11.31,10.42,8.76,26.57,1.22,33.75ZM64.95,81.85c.07,5.55,4.59,9.95,10.15,9.87,5.57-.08,9.99-4.62,9.87-10.15-.12-5.58-4.6-9.95-10.15-9.88-5.49.06-9.95,4.66-9.88,10.16Z"/>
  <path class="cls-2" d="M64.87,110.29c-2.59-.52-3.47-1.84-3.18-3.99.17-1.29.12-2.67.56-3.86,1.22-3.26,4.94-4.94,8.58-3.73,2.83.95,5.41.84,8.26.02,5.48-1.58,9.18,2.18,9.2,6.65.01,3.53.14,3.53-3.02,4.94-.07-.91-.14-1.75-.2-2.59-.14-1.78-.69-2.55-1.89-2.62-1.31-.07-2.02.78-2.16,2.69-.06.8-.07,1.62-.02,2.42.07,1.31-.39,2.22-1.8,2.25-2.81.05-5.63.04-8.44,0-1.2-.02-1.8-.7-1.77-1.96.03-1.11.04-2.23-.09-3.33-.18-1.44-.98-2.17-2.13-2.07-1.38.12-1.87,1.03-1.88,2.29-.01.9,0,1.8,0,2.89Z"/>
  <path class="cls-2" d="M74.83,87.57c-3.35-.05-5.84-2.72-5.71-6.11.12-3.21,2.72-5.62,5.98-5.55,3.26.08,5.72,2.57,5.72,5.82,0,3.34-2.62,5.9-5.99,5.84Z"/>
</svg>