<?xml version="1.0" encoding="UTF-8"?>
<svg id="Layer_1" xmlns="http://www.w3.org/2000/svg" viewBox="0 0 150 150">
  <defs>
    <style>
      .cls-1 {
        fill: #ea7000;
      }

      .cls-2 {
        fill: #085e92;
      }
    </style>
  </defs>
  <path class="cls-2" d="M37.68,32.22c.04-.9.08-1.41.09-1.92.06-3.9-.97-4.65,4.35-4.5.59.02,1.18-.07,2.06-.12,0-1.52-.06-2.9.01-4.27.08-1.63.41-1.9,2.09-1.99.52-.03,1.05,0,1.57,0,22.35,0,44.7,0,67.05,0,.44,0,.87,0,1.31,0,2.17.06,2.33.23,2.4,2.44.01.44,0,.87,0,1.31,0,30.29,0,60.59,0,90.88q0,3.69-3.8,3.74c-.77.01-1.53.08-2.59.14,0,1.4.03,2.69,0,3.98-.06,1.91-.38,2.22-2.35,2.28-1.21.04-2.42,0-3.98,0-.03,1.35-.04,2.53-.08,3.71-.07,2.39-.34,2.67-2.78,2.68-8.56.02-17.11,0-25.67,0-13.97,0-27.94,0-41.91,0-.52,0-1.05.01-1.57,0-2.21-.06-2.42-.25-2.49-2.36-.02-.44,0-.87,0-1.31,0-30.38,0-60.76,0-91.15,0-.09,0-.17,0-.26.01-3.19.07-3.25,3.18-3.29.95-.01,1.9,0,3.12,0ZM103.03,35.13c-3.28-.49-66.9-.38-68.77.08-.49,3.61-.3,90.71.19,92.54,3.5.44,66.55.3,68.58-.19V35.13ZM40.52,32.22c1.27,0,2.3,0,3.32,0,19.29,0,38.59,0,57.88,0q4.09,0,4.09,4.02c0,27.32,0,54.65,0,81.97,0,1.02,0,2.03,0,3.12h3.61V28.82c-2.78-.57-66.94-.48-68.9.1v3.3Z"/>
  <path class="cls-1" d="M68.49,77.28c-3.49,0-6.98.08-10.47-.02-3.83-.11-6.58-2.49-7.46-6.16-.45-1.89-.13-3.67.8-5.3,3.44-6.07,6.82-12.17,10.45-18.13,3.24-5.31,10.08-5.4,13.37-.11,3.73,5.99,7.23,12.14,10.59,18.35,2.82,5.2-1.04,11.43-6.82,11.39-3.49-.02-6.98,0-10.47,0,0,0,0,0,0,0ZM69.73,57.09s0,0,0,0c0-2,0-4,0-6.01,0-.75-.18-1.49-1.03-1.56-1-.08-1.28.7-1.36,1.55-.02.17-.01.35-.01.52,0,3.57-.01,7.14.02,10.7,0,.5.13,1.05.38,1.47.45.78,1.53.67,1.83-.18.17-.47.17-1.02.18-1.54.02-1.65,0-3.31,0-4.96ZM69.76,68.82c-.15-.98.33-2.46-1.22-2.43-1.43.03-1.2,1.43-1.22,2.45-.03,1.95.4,2.77,1.38,2.54,1.49-.35.86-1.65,1.06-2.56Z"/>
  <path class="cls-1" d="M68.72,94.91c7.58,0,15.16,0,22.74,0,.7,0,1.44-.11,2.07.1.49.16,1.13.72,1.16,1.14.03.41-.57,1-1.03,1.25-.41.23-1.02.14-1.54.14-15.68,0-31.36,0-47.05,0-.6,0-1.26.01-1.78-.23-.38-.18-.81-.77-.79-1.15.02-.39.5-.97.89-1.08.73-.21,1.55-.17,2.33-.17,7.67,0,15.33,0,23,0Z"/>
  <path class="cls-1" d="M68.44,112.57c-7.41,0-14.82,0-22.24,0-.78,0-1.57,0-2.35-.07-.74-.06-1.4-.34-1.42-1.22-.02-1.03.71-1.3,1.56-1.35.43-.03.87-.02,1.31-.02,15.52,0,31.05,0,46.57,0,.61,0,1.29-.1,1.8.14.46.21.93.78,1.03,1.26.06.3-.52.94-.92,1.06-.73.21-1.55.19-2.33.19-7.67.01-15.35,0-23.02,0Z"/>
  <path class="cls-1" d="M64.19,117.49c-6.19,0-12.38,0-18.57,0-.7,0-1.45.11-2.07-.11-.46-.17-1.06-.81-1.05-1.22.01-.42.64-.95,1.11-1.18.43-.21,1.03-.1,1.55-.1,12.73,0,25.46,0,38.19,0,.69,0,1.43,0,2.05.25.35.14.64.79.66,1.23.02.31-.39.84-.71.93-.65.19-1.37.19-2.06.19-6.37.01-12.73,0-19.1,0Z"/>
  <path class="cls-1" d="M68.6,87.44c-4.37,0-8.73,0-13.1,0-.69,0-1.43,0-2.06-.23-.39-.14-.85-.73-.84-1.11,0-.39.46-.93.85-1.13.43-.22,1.02-.18,1.54-.18,8.99,0,17.99-.01,26.98,0,.99,0,2.24-.3,2.53,1.18.19.98-.58,1.44-2.55,1.46-4.45.03-8.91,0-13.36,0Z"/>
  <path class="cls-1" d="M57.71,99.93c4.27,0,8.55-.02,12.82.01.97,0,2.25-.33,2.48,1.18.15,1-.57,1.43-2.56,1.43-8.46.02-16.92.01-25.37,0-.6,0-1.27.01-1.79-.23-.38-.17-.79-.76-.78-1.16,0-.38.47-.96.85-1.08.64-.21,1.37-.16,2.07-.16,4.1-.01,8.2,0,12.29,0Z"/>
  <path class="cls-1" d="M70.3,107.52c-2.96,0-5.92,0-8.88,0-.52,0-1.04,0-1.57-.02-.8-.03-1.39-.41-1.43-1.22-.04-.97.63-1.36,1.52-1.4.43-.02.87-.02,1.31-.02,6.01,0,12.01,0,18.02,0,.61,0,1.3-.1,1.79.15.43.23.82.88.86,1.37.03.33-.53.88-.94,1.02-.55.19-1.2.11-1.81.11-2.96,0-5.92,0-8.88,0Z"/>
  <path class="cls-1" d="M49.01,107.51c-1.66,0-3.31,0-4.97,0-.88,0-1.61-.29-1.62-1.29,0-.97.69-1.35,1.58-1.35,3.4,0,6.8-.01,10.21.01.89,0,1.54.42,1.48,1.42-.05.86-.66,1.18-1.44,1.19-1.74.02-3.49,0-5.23,0,0,0,0,0,0,.01Z"/>
</svg>