<?xml version="1.0" encoding="UTF-8"?>
<svg id="Layer_1" xmlns="http://www.w3.org/2000/svg" viewBox="0 0 150 150">
  <defs>
    <style>
      .cls-1 {
        fill: #ea7000;
      }

      .cls-2 {
        fill: #085e92;
      }
    </style>
  </defs>
  <path class="cls-2" d="M58.81,123.3c.38-.77.59-1.29.87-1.76,4.84-8.51,5.41-17.36,1.77-26.37-.97-2.4-.77-4.17.5-6.34,8.03-13.7,15.94-27.47,23.89-41.22.23-.4.45-.79.69-1.19.54-.91,1.14-1.09,1.78-.1.25.38.48.78.71,1.17,14.29,24.73,28.57,49.47,42.85,74.21.22.38.36.82.54,1.24-2.66.78-64.76,1.1-73.59.37ZM92.53,67.91c.23-3.1-1.65-4.92-5.04-4.94-3.43-.02-5.25,1.66-5.07,4.89.23,4.21.58,8.42.9,12.63.49,6.48,1,12.96,1.52,19.44.13,1.6.61,2.93,2.57,2.99,1.63.05,2.26-.59,2.46-2.97.91-10.68,1.78-21.36,2.66-32.05ZM87.41,110.57c-2.6.03-4.83,2.32-4.7,4.84.12,2.44,2.27,4.43,4.77,4.42,2.52,0,4.58-2,4.64-4.48.06-2.64-2.08-4.81-4.7-4.78Z"/>
  <path class="cls-1" d="M13.9,86.83c.33,1.66.57,3.35,1.01,4.98.91,3.4,3.12,5.64,5.3,5.53,2.13-.11,4.13-2.18,4.63-5.68.7-4.85.92-9.76,1.44-14.63.84-7.85,3.95-14.71,9.18-20.61.58-.66,1.32-1.18,2.48-2.19-.23,1.26-.3,1.91-.47,2.52-1.3,4.69-.51,9.13,2.05,13.14,1.89,2.97,4.16,5.71,6.39,8.45,2.74,3.36,5.8,6.47,8.4,9.93,4.97,6.62,7.7,14.02,6.29,22.43-1.44,8.59-5.89,14.93-14.89,18.43.57-1.09.79-1.77,1.21-2.29,7.87-9.56,8.22-19.88,3.15-30.75-.92-1.96-1.93-3.89-3.03-5.75-.28-.47-1.14-.95-1.62-.86-.47.09-1.04.85-1.16,1.41-.34,1.56-.5,3.15-.66,4.74-.58,5.53-3.24,9.6-8.2,12.23-2.52,1.33-4.94,2.85-7.36,4.37-5.44,3.41-8.79,8.78-4.75,16.39.2.37.29.81.56,1.61-4.85-1.12-8.34-3.66-11.09-7.24-4.29-5.59-5.95-12.06-5.52-18.99.39-6.25,2.76-11.9,6.66-17.18Z"/>
  <path class="cls-2" d="M49.46,131.01c2.26-1.61,3.82-2.98,5.6-3.91,1.13-.59,2.6-.75,3.92-.75,13.6-.05,27.19-.03,40.79-.03,10.4,0,20.79,0,31.19,0,.69,0,1.37,0,2.06,0,4.1-.04,4.39-.51,2.48-3.99-.28-.5-.55-1-.84-1.49-14.85-25.72-29.7-51.43-44.55-77.14-.17-.3-.35-.59-.53-.88-1.81-2.95-2.53-2.95-4.33.15-7.79,13.44-15.55,26.9-23.31,40.35-.51.89-.92,1.88-1.57,2.64-.71.83-.66,2.85-2.37,2.21-1.65-.61-2.49-3.44-1.69-4.88,1.73-3.09,3.55-6.13,5.32-9.19,6.85-11.87,13.86-23.65,20.46-35.66,3.12-5.68,7.58-5.64,10.84.1,15.98,28.1,32.23,56.04,48.38,84.03.4.69.84,1.37,1.14,2.11,1.15,2.77-.34,5.67-3.27,6.37-.77.18-1.59.17-2.38.17-28.22,0-56.44,0-84.66,0-.68,0-1.35-.09-2.66-.17Z"/>
  <polygon class="cls-2" points="122.3 47.54 111.94 47.54 125.28 18.81 125.28 37.65 135.4 37.63 122.2 64.98 122.3 47.54"/>
</svg>