<?xml version="1.0" encoding="UTF-8"?>
<svg id="Layer_1" xmlns="http://www.w3.org/2000/svg" viewBox="0 0 150 150">
  <defs>
    <style>
      .cls-1 {
        fill: #ea7000;
      }

      .cls-2 {
        fill: #085e92;
      }
    </style>
  </defs>
  <path class="cls-2" d="M101.32,27.44v26.6h29.57v-26.6h-29.57ZM110.64,47.12v-12.82c3.72,2.14,7.2,4.14,11.11,6.38-3.92,2.27-7.33,4.24-11.11,6.44Z"/>
  <path class="cls-2" d="M74.78,54.16c-14.15,0-25.6,11.37-25.69,25.51-.07,14.11,11.36,25.66,25.47,25.72,14.27.07,25.86-11.44,25.85-25.65-.02-14.08-11.52-25.57-25.63-25.58ZM74.6,100.78c-11.28.08-20.86-9.65-20.81-21.15.05-11.47,9.54-20.82,21.09-20.79,11.49.04,20.83,9.51,20.8,21.08-.04,11.42-9.48,20.76-21.08,20.86Z"/>
  <path class="cls-2" d="M37,91.94c-9.47-.31-17.82,7.65-18.13,17.28-.32,10.08,7.52,18.35,17.65,18.61,9.64.24,17.83-7.66,18.17-17.56.34-9.76-7.63-18.01-17.7-18.33ZM48.7,117.83c-3.23-1.62-6.42-3.21-9.44-4.73,3.8-2.47,5.16-5.2,4.09-8.68-.88-2.87-3.86-5.09-6.73-5.01-3.02.07-5.76,2.4-6.58,5.56-.82,3.17.7,5.95,4.26,8.12-3.01,1.5-6.18,3.09-9.43,4.71-4.17-5.11-3.45-13.35,1.86-18.39,5.39-5.12,13.96-5.31,19.57-.42,5.64,4.91,6.6,13.24,2.39,18.84Z"/>
  <path class="cls-2" d="M128.63,108.07c-.65-1.55-1.27-3.04-1.92-4.56.38-.91.76-1.82,1.2-2.86-.83-.93-1.66-1.85-2.43-2.72-1.31.54-2.22.92-3.07,1.27-1.6-.67-3.09-1.29-4.58-1.92-.39-.96-.77-1.85-1.11-2.69h-3.81c-.45,1.06-.83,1.96-1.18,2.76-1.64.67-3.13,1.28-4.48,1.83-1.09-.42-2-.77-2.59-1-1.2.9-2.13,1.6-2.96,2.23.52,1.29.88,2.21,1.25,3.13-.63,1.55-1.25,3.04-1.85,4.52-.96.43-1.85.83-2.74,1.24v3.72c1.08.46,1.98.85,2.78,1.19.64,1.56,1.22,2.98,1.83,4.46-.37.95-.74,1.93-1.07,2.78.88,1.06,1.61,1.95,2.31,2.8,1.26-.53,2.17-.91,3.02-1.27,1.51.62,2.92,1.19,4.52,1.84.42,1,.82,1.9,1.19,2.79h3.77c.49-1.07.89-1.96,1.27-2.81,1.6-.63,3.11-1.23,4.52-1.78.96.38,1.79.71,3.04,1.2.81-.82,1.67-1.69,2.47-2.5-.54-1.28-.93-2.18-1.27-3.01.68-1.6,1.32-3.09,1.94-4.53.96-.44,1.85-.84,2.74-1.25v-3.61c-.98-.45-1.88-.85-2.75-1.25ZM114.9,119.07c-4.52.05-8.23-3.62-8.15-8.04.08-4.37,3.66-7.93,8.01-7.95,4.53-.03,8.09,3.52,8.09,8.08s-3.48,7.88-7.95,7.92Z"/>
  <path class="cls-1" d="M90.18,79.76c.04-.78,1.19-1.51,2.03-2.45-.03-6.66-7.27-14.73-14.85-14.96-1.11.88-1.88,1.87-2.81,2.08-.49.1-1.26-1.21-2.14-2.11-6.26.15-14.84,6.59-15.07,15.06.84.94,2.15,1.82,2.03,2.39-.19.88-1.37,1.54-2.16,2.33,1.4,8.57,7.94,14.96,15.5,15.04,1.11-2.15,2.02-2.7,3.07-1.81.37.65.74,1.32,1.09,1.94,7.05-.28,15.1-7.19,15.34-15.1-.86-.96-2.07-1.71-2.03-2.41ZM83.67,81.37c-.45,0-.91.03-1.36,0-2.85-.16-5.7-.34-8.54-.52-.21-2.84-.44-5.68-.61-8.52-.07-1.17,0-2.35,0-3.53,0-1.06.19-2.15,1.46-2.21,1.44-.07,1.75,1.04,1.75,2.23,0,2.97,0,5.94,0,9.19,1.26.07,2.05.14,2.85.15,1.44.02,2.89,0,4.34.02,1.18,0,2.62-.08,2.66,1.55.05,1.62-1.33,1.65-2.56,1.64Z"/>
  <path class="cls-2" d="M24.21,21.5h8.46c.92,0,1.67.75,1.67,1.67s-.75,1.67-1.67,1.67h-8.46c-.92,0-1.67-.75-1.67-1.67s.75-1.67,1.67-1.67ZM43.42,35.73h-19.33c-.93,0-1.67-.74-1.67-1.67s.74-1.67,1.67-1.67h19.33c.93,0,1.67.75,1.67,1.67s-.74,1.67-1.67,1.67ZM43.42,30.29h-19.34c-.92,0-1.67-.74-1.67-1.67s.75-1.67,1.67-1.67h19.34c.92,0,1.67.75,1.67,1.67s-.75,1.67-1.67,1.67ZM36.33,39.43h12.1v-20.63h-29.82v20.63h4.33l-.11,5.56,8.31-5.49c.12-.03.24-.05.37-.07h4.82Z"/>
  <polygon class="cls-2" points="60.87 27.93 60.87 48.42 56.94 48.42 56.71 52.57 56.68 53.21 56.63 53.96 49.4 48.42 31.09 48.42 31.09 42.62 51.77 42.62 51.77 27.93 60.87 27.93"/>
  <path class="cls-1" d="M75,131.19c-7.69,0-15.09-1.66-21.99-4.93-.34-.16-.69-.33-1.04-.5l-.37-.18c-.93-.46-1.31-1.58-.86-2.51.46-.93,1.58-1.31,2.51-.86l.39.19c.32.16.63.31.96.46,6.42,3.04,13.28,4.58,20.41,4.58s13.84-1.5,20.19-4.47l.16-.08c.87-.47,1.96-.17,2.48.68.54.88.26,2.04-.63,2.57-.05.03-.14.08-.22.11l-.11.06c-6.88,3.23-14.24,4.87-21.87,4.87ZM95.72,34.94c.47-.92.1-2.05-.82-2.52-.11-.06-.24-.11-.35-.15-6.19-2.56-12.77-3.85-19.55-3.85-3.28,0-6.54.31-9.72.92l-.44.09c-1.01.22-1.65,1.22-1.43,2.23.22,1.01,1.22,1.65,2.23,1.43l.37-.08c2.93-.56,5.96-.85,9-.85,6.3,0,12.41,1.21,18.16,3.59l.08.03c.26.13.54.18.81.18.68,0,1.34-.37,1.67-1.02ZM124.82,92.49s.02-.1.03-.15c1.02-4.05,1.54-8.27,1.54-12.53,0-7.1-1.42-13.98-4.23-20.44h0c-.09-.2-.2-.39-.35-.55-.7-.76-1.88-.82-2.65-.13-.48.43-.68,1.06-.59,1.65v.16l.1.23c.02.06.05.11.07.17,2.59,5.97,3.9,12.33,3.9,18.9,0,3.97-.48,7.9-1.44,11.67l-.03.13s-.03.14-.04.18c-.18,1.02.49,2.01,1.51,2.19.11.02.23.03.34.03.89,0,1.67-.62,1.83-1.53ZM27.13,93.36c1.02-.14,1.74-1.09,1.59-2.12-.02-.14-.05-.28-.08-.37-.86-3.62-1.29-7.35-1.29-11.06,0-8.37,2.21-16.61,6.38-23.83l.12-.22c.05-.09.11-.18.17-.27.55-.88.29-2.03-.58-2.58-.88-.55-2.03-.29-2.58.58-.12.2-.25.4-.36.6l-.25.45h0c-4.34,7.69-6.63,16.41-6.63,25.28,0,4.01.47,8.02,1.39,11.92l.03.1c.16.9.95,1.54,1.84,1.54.09,0,.18,0,.26-.02ZM25.01,91.77s0,0,0-.01c0,0,0,0,0,.01Z"/>
</svg>