<?xml version="1.0" encoding="UTF-8"?>
<svg id="Layer_1" xmlns="http://www.w3.org/2000/svg" viewBox="0 0 150 150">
  <defs>
    <style>
      .cls-1 {
        fill: #ea7000;
      }

      .cls-2 {
        fill: #085e92;
      }
    </style>
  </defs>
  <path class="cls-2" d="M124.23,34.53c-.58,1.32-1.16,2.76-1.83,4.16-1.54,3.19-.39,6.13,2.89,7.29.7.25,1.41.48,2.11.74,2.65.99,3.57,2.24,3.65,4.99.04,1.49,0,2.99,0,4.48,0,2.47-1.25,4.05-3.53,4.86-.55.19-1.11.36-1.66.53-3.99,1.25-5.17,4.03-3.32,7.79,2.22,4.5,2.06,5.46-1.43,8.93-.59.58-1.18,1.17-1.78,1.74-1.82,1.73-3.82,2.24-6.12.97-.65-.36-1.33-.67-2.01-1-3.12-1.5-6.15-.19-7.2,3.09-.28.87-.53,1.75-.87,2.59-1.05,2.55-3.13,3.21-5.67,3.08-3.05-.16-6.53.87-8.19-3.02-.33-.76-.55-1.56-.82-2.35-1.26-3.78-4.15-4.98-7.7-3.21-.82.41-1.65.78-2.48,1.17-1.41.67-2.9.56-4.01-.38-1.89-1.6-3.75-3.31-5.23-5.27-.66-.88-.55-2.5-.45-3.76.07-.85.69-1.67,1.11-2.48,1.97-3.84.84-6.61-3.27-7.95-4.6-1.5-5.19-2.32-5.2-7.13,0-.42,0-.83,0-1.25.02-4.53.63-5.39,4.91-6.86,1.55-.53,3.01-.91,3.87-2.73.93-1.97.76-3.47-.26-5.29-2.32-4.14-2.06-5.27,1.35-8.68.18-.18.35-.35.53-.53,3.75-3.8,4.51-3.92,9.3-1.47,3.22,1.65,6.28.44,7.44-2.94.27-.78.49-1.59.76-2.37.71-2.01,2.13-3.16,4.26-3.27,1.82-.09,3.65-.1,5.47-.01,2.22.11,3.71,1.29,4.42,3.41.21.63.42,1.26.62,1.89,1.22,3.77,4.12,4.98,7.65,3.2.81-.41,1.62-1.03,2.47-1.13,1.26-.15,2.92-.39,3.77.26,2.08,1.58,3.84,3.6,5.62,5.55.45.5.49,1.37.8,2.34ZM115.5,78.25c.44-.2.84-.32,1.17-.54,3.61-2.29,4.1-4.02,2.23-7.89-2.07-4.31.25-9.67,4.79-11.21,4.28-1.45,3.75-.72,3.8-5.31,0-.08-.01-.17,0-.25.34-2.03-.55-3.12-2.54-3.47-3.26-.57-5.15-2.5-6.25-5.66-.77-2.22-.97-4.13.24-6.16.46-.78.96-1.59,1.18-2.46.16-.63.15-1.59-.23-2.01-1.21-1.34-2.44-2.94-4.02-3.57-.92-.37-2.5.92-3.78,1.46-.08.03-.15.07-.22.11-3.97,1.86-9.4-.38-10.82-4.51-1.73-5.05-.41-4.23-6.38-4.32-.08,0-.17,0-.25,0-1.18-.12-1.88.41-2.19,1.54-.17.64-.4,1.27-.6,1.9-1.7,5.27-6.93,7.49-11.86,5.05q-3.4-1.69-5.98.9c-2.63,2.63-2.36,2.25-.79,4.98,1.49,2.59,1.64,4.96.41,7.78-1.1,2.52-2.63,4.13-5.26,4.76-.72.17-1.54.3-2.1.72-.58.43-1.2,1.17-1.28,1.83-.59,5.07-.49,5.06,4.33,6.87,1.24.47,2.67,1.3,3.31,2.38,1.87,3.15,3.07,6.52.44,9.96-.2.26-.28.6-.46.88-.69,1.08-.45,1.91.41,2.86,3.28,3.63,3.25,3.66,7.8,1.54,3.84-1.79,9.42.61,10.81,4.64,1.45,4.22,1.45,4.13,5.74,4.21,1.9.04,3-.55,3.33-2.45.07-.4.26-.79.39-1.18,1.57-4.92,6.86-7.18,11.51-4.92,1.04.5,2.08,1.01,3.14,1.53Z"/>
  <path class="cls-1" d="M39.9,61.62c-.85,0-1.72-.21-2.59-.63-.77-.37-1.52-1.31-2.24-2.81-.71-1.49-1.31-2.29-2.43-2.29-.5,0-1.11.17-1.97.54-1.07.47-1.79.67-2.4.67-1.01,0-1.87-.52-3.38-2.06-2.19-2.22-2.28-2.74-.99-5.57.51-1.14.62-1.94.33-2.62-.29-.7-.99-1.22-2.27-1.7-2.6-.96-3.02-1.64-3.03-4.83,0-3.28.31-3.77,3.03-4.79,1.34-.5,2-.98,2.28-1.65.28-.68.14-1.52-.48-2.89-1.09-2.38-.97-3.08.8-5.01,1.1-1.19,2.31-2.36,3.89-2.36.57,0,1.16.14,1.8.43,1,.45,1.81.75,2.47.75,1.22,0,1.8-.98,2.5-2.9.8-2.17,2.38-2.62,4.5-2.62h.17c2.94.03,3.82.52,4.67,2.63.72,1.79,1.23,2.88,2.48,2.88.65,0,1.48-.3,2.69-.82.57-.24,1.09-.36,1.6-.36,1.29,0,2.31.76,3.55,1.98,1.49,1.47,2.3,2.88,1.42,4.97-.65,1.54-1.02,2.52-.71,3.29.31.76,1.19,1.2,3,1.95,1.52.63,2.23,1.67,2.33,3.36.23,4.1-.07,4.62-3.61,6.16-1.84.8-2.25,2.11-1.33,4.25.61,1.42.49,3.17-.33,4.68-.82,1.51-2.22,2.57-3.74,2.83-.15.02-.29.03-.52.04l-.45.03-.51-.2c-.49-.2-1.08-.43-1.66-.67-.58-.24-1.08-.36-1.53-.36-1.05,0-1.8.63-2.37,1.99-.97,2.34-2.84,3.73-4.99,3.73ZM32.37,52.95c2.21,0,4.29,1.33,5.07,3.22.68,1.66.93,2.28,2.22,2.28.45,0,1.03-.08,1.84-.18l.18-.02.64-1.72c.8-2.18,2.77-3.58,5.04-3.58.68,0,1.35.13,1.99.38.94.37,1.5.59,1.99.59.82,0,1.26-.57,2.33-1.95l.09-.12-.06-.28c-.02-.12-.05-.26-.11-.39-2.06-4.39-1.31-6.51,3.07-8.74.64-.33,1.24-1.38,1.22-2.16-.02-.71-.64-1.81-1.34-2.08-1.64-.63-2.64-1.5-3.46-3-1.26-2.31-.33-4.16.66-6.12l.08-.15-.06-.19c-.81-1.35-1.63-1.95-2.67-1.95-.55,0-1.17.18-1.89.55-.6.31-1.25.46-1.94.46-2.09,0-4.15-1.47-4.9-3.49-.17-.47-.63-1.71-.63-1.71l-.05-.14-.14-.04c-.58-.18-1.08-.27-1.52-.27-1.31,0-2.13.76-2.67,2.45-.58,1.82-2.64,3.14-4.89,3.14-.69,0-1.33-.12-1.93-.36-.96-.39-1.54-.62-2.03-.62-.83,0-1.26.59-2.31,2l-.1.13.15.4c.08.21.16.43.25.64.87,1.96,1.04,3.63.51,4.97-.52,1.31-1.74,2.38-3.64,3.17-1.14.48-1.61,1.15-1.62,2.3,0,1.23.55,1.95,1.73,2.25,1.51.38,2.51,1.28,3.36,2.99,1.08,2.19.24,3.97-.66,5.86l-.16.33.12.15c1.08,1.37,1.53,1.93,2.36,1.93.51,0,1.1-.23,2.08-.61.56-.22,1.16-.33,1.79-.33Z"/>
  <path class="cls-2" d="M42.06,110.56c-.01,1.35-.01,2.71-.01,4.06s0,2.71.01,4.06c0,2.71.01,5.42-.01,8.14-.02,3.16-1.02,4.15-4.26,4.2-.68.01-1.36.02-2.05.02-.57,0-1.14-.01-1.71-.02-2.79-.08-3.79-1.07-3.84-3.81-.04-2.45-.03-4.92-.03-7.33v-2.9s.01-4.12.01-4.12c-.01-3.44-.01-6.88.01-10.32.02-3.15,1.05-4.19,4.24-4.25.59-.01,1.17-.02,1.76-.02s1.18.01,1.78.03c2.99.07,4.07,1.15,4.09,4.12.02,2.72.01,5.43.01,8.14Z"/>
  <path class="cls-2" d="M129.18,101.04c-1.44,1.4-2.97,2.73-4.45,4.02-.57.5-1.14.99-1.71,1.5-1.36,1.2-2.73,2.41-4.1,3.61-3.56,3.12-7.23,6.37-10.8,9.61-2.13,1.94-4.46,2.84-7.33,2.84h-.1c-4.26-.02-8.51-.03-12.77-.03h-12.19c-5.38.01-10.76,0-16.14-.04h-.27c-3.75,0-6.29.71-8.49,2.37-.28.22-.6.35-.99.54-.19.09-.44.19-.74.34l-1.46.71v-8.44c0-1.57,0-3.14,0-4.71-.01-3.58-.01-7.17.02-10.75.06-4.53,3.68-8.18,8.24-8.32,1.65-.05,3.14-.09,4.67-.09s2.89.04,4.15.13c1.56.11,3.25.69,4.62,1.57,2.1,1.32,4.26,1.94,6.75,1.94h.22c2.05-.03,4.12-.04,6.18-.04,1.55,0,3.09,0,4.64.01,1.55,0,3.09.01,4.64.01h.92c.39-.01.79,0,1.18.05,3.12.33,5.39,2.78,5.39,5.81s-2.36,5.5-5.47,5.74c-.68.05-1.41.07-2.32.07-.47,0-.93,0-1.39-.01-.46,0-.91-.01-1.37-.01-2.45.01-4.89.01-7.35.01h-7.34c-.17,0-.33,0-.52-.01-.15,0-.3-.01-.45-.01-.24,0-.59.01-.79.11-.24.12-.54.49-.63.72.09.16.32.4.48.48.44.21,1.15.22,1.77.23h12.33c4.11,0,8.22,0,12.34.03,1.4,0,2.44-.42,3.55-1.44,4.28-3.86,8.57-7.68,12.88-11.51l4.59-4.08c.18-.16.35-.32.54-.49.51-.47,1.03-.95,1.64-1.37,1.04-.71,2.24-1.08,3.47-1.08,1.74,0,3.36.75,4.44,2.04,1.92,2.32,1.72,5.8-.48,7.94Z"/>
  <path class="cls-1" d="M96.23,72.92c-10.55.02-19.2-8.67-19.13-19.22.07-10.42,8.5-18.86,18.89-18.91,10.64-.05,19.31,8.53,19.26,19.05-.05,10.5-8.59,19.06-19.03,19.08ZM102.49,53.62c2.78,2.03,5.35,3.92,7.91,5.79,3.21-5.29.53-13.77-4.5-17.7-6.03-4.7-14.47-4.51-20.11.6-5.07,4.59-6.77,12.48-3.67,17.31,1.23-1.11,2.37-2.31,3.68-3.28,1.31-.96,2.78-1.69,4.16-2.51-2.18-5.26-1.66-8.96,1.52-11.36,2.66-2.01,6.87-1.97,9.52.1,3.22,2.51,3.67,6.11,1.49,11.03ZM84.12,63.46c5.58,7.29,16.98,7.88,23.13,1.36.9-.95,1.09-1.69.24-2.76-7.17-9.04-19.55-6.14-23.37,1.4ZM96.24,52.94c2.35-.04,4.23-1.97,4.21-4.3-.03-2.33-1.96-4.2-4.32-4.18-2.39.02-4.21,1.89-4.17,4.29.04,2.41,1.9,4.24,4.28,4.19Z"/>
  <path class="cls-1" d="M51.35,40.25c.04,6.49-4.98,11.59-11.42,11.61-6.35.02-11.62-5.23-11.6-11.53.02-6.21,5.15-11.38,11.4-11.48,6.43-.1,11.58,4.96,11.62,11.41ZM39.84,32.38c-4.44.04-7.88,3.5-7.9,7.93-.02,4.56,3.47,8.01,8.07,7.98,4.36-.03,7.94-3.59,7.98-7.9.04-4.37-3.71-8.05-8.15-8.01Z"/>
</svg>