<?xml version="1.0" encoding="UTF-8"?>
<svg id="Layer_1" xmlns="http://www.w3.org/2000/svg" viewBox="0 0 150 150">
  <defs>
    <style>
      .cls-1 {
        fill: #ea7000;
      }

      .cls-2 {
        fill: #085e92;
      }
    </style>
  </defs>
  <path class="cls-1" d="M63.41,57.48c-1.95-3.76-1.85-4.45,1.25-8.04-1.03-2.07-2.09-4.2-3.15-6.34-.29-.59-.63-1.17-.86-1.79-.64-1.71-.01-2.83,1.79-2.92,3.22-.18,6.51-.49,8.96,2.38.3.35.79.54,1.46.99v-6.87c-.85-.07-1.66-.11-2.46-.21-4.62-.59-7.98-4.15-8.29-8.81-.07-1.07-.07-2.15-.03-3.23.07-1.94.62-2.49,2.52-2.6,3.84-.22,7.49.16,10.21,3.56.67-.57,1.21-1.05,1.77-1.51,2.89-2.37,6.3-2.27,9.7-1.9.54.06,1.25.88,1.42,1.48,1.38,4.76-1,10.25-5.39,12.17-1.55.68-3.34.82-5.27,1.27v6.69c.94-.69,1.76-1.18,2.46-1.81,1.37-1.23,2.88-1.86,4.76-1.66.98.11,1.99-.03,2.98.04,2.09.14,2.78,1.24,1.9,3.19-.92,2.03-1.99,4-2.98,6-.32.65-.6,1.33-.88,1.94,3.06,3.48,3.16,4.16,1.11,8.23,2.07,1.98,4.34,3.93,6.33,6.14,1.48,1.65,2.68,3.57,3.83,5.48,4.85,8.05,1.84,19.78-8.6,23.74-5.3,2.01-10.79,2.39-16.38,2.02-4.08-.27-7.99-1.11-11.7-2.96-8.36-4.18-10.68-14.77-7.13-21.76,2.02-3.98,4.86-7.28,7.99-10.38.88-.87,1.8-1.7,2.69-2.53ZM75.06,91.91c3.47-.61,7.05-.89,10.41-1.92,9.14-2.78,12.37-12.02,7.24-20.06-2.61-4.09-5.99-7.48-9.75-10.5-.59-.47-1.47-.77-2.23-.78-3.89-.08-7.78-.08-11.66,0-.75.02-1.62.37-2.21.85-3.63,2.91-6.76,6.28-9.5,10.07-4.98,6.88-2.92,17.87,7.58,20.63,3.25.85,6.65,1.15,10.13,1.72ZM74.77,47.71c-.7-.46-1.47-.92-2.18-1.45-1.53-1.13-2.99-2.35-4.57-3.4-.66-.44-1.54-.54-2.32-.8l-.35.49c1.12,2.25,2.24,4.51,3.31,6.66h12.63c1.12-2.3,2.2-4.49,3.53-7.2-4.45.65-6.45,4.41-10.04,5.71ZM66.01,24.02c-.53,4.97,2.15,7.58,6.8,6.77,1.34-3.99-2.51-8.01-6.8-6.77ZM77.01,30.82c4.06,1.28,8.21-2.73,6.76-6.79-4.77-.7-7.29,1.79-6.76,6.79ZM84.13,54.02c-.32-.34-.53-.76-.75-.76-5.62-.04-11.25-.04-16.87,0-.21,0-.43.42-.75.76.4.31.69.74.99.75,5.46.04,10.92.04,16.38,0,.3,0,.59-.43.99-.74Z"/>
  <path class="cls-2" d="M98.78,106.61c-.61-.85-1.49-1.53-1.46-2.18.03-.71.76-1.62,1.44-2.04,2.81-1.74,5.73-3.33,8.59-4.99.64-.37,1.3-.75,1.84-1.25,1.23-1.15,1.45-2.86.66-4.31-.82-1.5-2.3-2.22-3.98-1.79-.78.21-1.53.62-2.24,1.03-4.72,2.75-9.4,5.58-14.15,8.28-4.95,2.81-7.27,7-7.16,12.67.09,4.64.02,9.28.02,13.91,0,.58,0,1.16,0,1.74-.03,1.19-.45,2.14-1.77,2.31-1.1.14-1.94-.79-1.95-2.35-.02-5.96-.17-11.94.12-17.88.29-5.89,3.4-10.27,8.43-13.26,4.7-2.79,9.4-5.58,14.16-8.26,1.47-.83,2.33-1.91,2.87-3.49,2.25-6.66,4.6-13.3,6.92-19.94.3-.86.6-1.73,1.01-2.53,1.49-2.87,4.58-4.4,7.67-3.86,3.15.55,5.46,2.96,5.92,6.2.08.57.1,1.15.16,1.79.46.43.97.85,1.43,1.32,1.87,1.91,2.7,4.19,2.01,6.81-2.67,10.08-5.39,20.15-8.11,30.21-.54,1.98-1.77,3.53-3.29,4.87-3.54,3.13-7.01,6.33-10.61,9.37-2.13,1.8-3.28,3.87-3.01,6.69.09.9.18,1.89-.11,2.7-.23.64-.99,1.39-1.63,1.53-1.01.22-1.71-.57-1.79-1.61-.32-4.48-.17-8.7,3.9-11.89,3.71-2.91,7.07-6.25,10.64-9.34,1.37-1.18,2.29-2.55,2.75-4.31,2.44-9.29,4.92-18.56,7.39-27.84.13-.48.27-.96.32-1.45.21-1.99-.77-3.52-2.53-4.03-1.64-.47-3.5.4-4.34,2.06-.19.37-.3.77-.43,1.16-1.64,5.03-3.27,10.08-4.94,15.1-.38,1.15-.37,2.17,0,3.36,1,3.12.45,6.16-2.27,8.03-3.87,2.66-8.06,4.85-12.45,7.43ZM122.06,65.4c-.56-2.28-1.47-3.25-3.11-3.4-1.66-.15-3.13.78-3.91,2.48-.14.3-.23.62-.34.93-2.17,6.25-4.35,12.51-6.51,18.76-.21.61-.33,1.24-.52,1.98.81.26,1.48.47,2.25.71.32-.9.61-1.66.87-2.44,1.43-4.41,2.86-8.82,4.26-13.23.9-2.85,2.77-4.63,5.65-5.38.46-.12.92-.28,1.37-.43Z"/>
  <path class="cls-2" d="M23.64,66.79c.61-1.97.84-3.67,1.63-5.05,1.37-2.4,3.66-3.62,6.46-3.37,3.02.28,5.35,1.77,6.44,4.72,1.38,3.72,2.65,7.49,3.96,11.24,1.25,3.59,2.54,7.18,3.72,10.8.44,1.35,1.18,2.24,2.42,2.94,4.61,2.61,9.13,5.38,13.74,7.99,6.28,3.56,9.34,8.91,9.31,16.1-.02,4.89,0,9.77,0,14.66,0,2.24-.6,3.21-1.88,3.21-1.27,0-1.86-.97-1.87-3.21-.01-5.05-.04-10.1,0-15.15.04-5.37-2.19-9.39-6.85-12.09-4.87-2.83-9.72-5.69-14.57-8.53-.29-.17-.57-.34-.87-.48-2.2-1.08-4.1-.64-5.18,1.2-1.08,1.84-.55,3.8,1.48,5.1,1.39.9,2.84,1.69,4.28,2.52,1.58.91,3.17,1.79,4.75,2.69.43.25.88.48,1.27.77.81.61,1.22,1.42.67,2.37-.58.99-1.49,1.34-2.54.73-3.8-2.2-7.7-4.24-11.31-6.71-2.64-1.8-3.32-4.73-2.38-7.77.44-1.45.4-2.69-.07-4.08-1.63-4.86-3.19-9.75-4.79-14.63-.18-.55-.36-1.11-.66-1.6-.89-1.47-2.75-2.15-4.3-1.63-1.56.53-2.48,1.88-2.37,3.66.05.73.25,1.47.44,2.18,2.42,9.12,4.86,18.23,7.26,27.36.46,1.75,1.34,3.14,2.71,4.33,3.69,3.2,7.26,6.54,10.98,9.71,2.6,2.21,3.86,4.88,3.69,8.27-.06,1.16.13,2.37-.16,3.45-.16.62-1.07,1.43-1.63,1.43-.58,0-1.44-.79-1.68-1.42-.31-.8-.21-1.8-.13-2.7.25-2.8-.8-4.91-2.96-6.72-3.43-2.87-6.67-5.96-10.07-8.86-2.23-1.9-3.65-4.18-4.39-7.02-2.32-8.89-4.64-17.78-7.17-26.6-1.19-4.15-.64-7.51,2.6-9.8ZM27.71,65.54c4.7.56,6.7,3.58,7.84,7.65,1.22,4.37,2.74,8.66,4.15,12.99.07.21.26.39.47.69.67-.26,1.32-.51,1.94-.75,0-.33.04-.51,0-.65-2.39-6.95-4.76-13.91-7.21-20.85-.62-1.75-2.19-2.7-3.82-2.61-1.63.08-2.52.95-3.36,3.54Z"/>
  <path class="cls-1" d="M77.06,84.11c-.46,3.04-.95,3.92-2.19,3.75-2.12-.28-1.63-2.14-1.97-3.63-.83-.39-1.87-.64-2.56-1.27-1-.91-1.95-2-2.55-3.2-.58-1.16.05-2.35,1.05-2.65,1.14-.33,1.82.2,2.37,1.22,1.55,2.88,5.14,3.07,7.26.38-.58-1.49-1.92-1.56-3.23-1.77-1.3-.2-2.65-.33-3.86-.78-2.15-.8-3.72-2.3-3.77-4.75-.05-2.36,1.47-3.75,3.48-4.68.52-.24,1.07-.45,1.74-.72.08-.5.2-1.05.24-1.6.09-1.22.6-2.16,1.92-2.13,1.32.03,1.78,1.02,1.83,2.22.02.41.06.82.1,1.37.71.33,1.45.66,2.18,1.02,1.48.73,2.56,1.81,3.01,3.44.35,1.29-.05,2.38-1.06,2.69-1.15.35-1.81-.2-2.37-1.21-1.58-2.88-5.15-3.07-7.28-.4.55,1.51,1.91,1.57,3.22,1.78,1.3.2,2.65.31,3.87.77,2.13.81,3.73,2.31,3.78,4.75.05,2.35-1.5,3.74-3.49,4.69-.52.25-1.07.45-1.71.72Z"/>
</svg>