<?xml version="1.0" encoding="UTF-8"?>
<svg id="Layer_1" xmlns="http://www.w3.org/2000/svg" viewBox="0 0 150 150">
  <defs>
    <style>
      .cls-1 {
        fill: #ea7000;
      }

      .cls-2 {
        fill: #085e92;
      }
    </style>
  </defs>
  <path class="cls-2" d="M122.25,66.36c-4.74-1.25-8.42,1.02-11.29,6.95h-9.61c-.59-6.06-2.85-11.26-6.36-15.53,3.61-3.62,7.1-7.12,10.63-10.66,7.68,4.61,15.93,3.68,21.02-2.54,4.72-5.77,4.45-14.29-.62-19.76-5.07-5.47-13.55-6.44-19.67-2.23-3.05,2.1-4.99,5.02-5.96,8.56-1.36,4.98-.19,9.51,2.54,13.24-3.61,3.65-7.05,7.12-10.62,10.73-4.39-3.73-9.71-5.89-15.7-6.56v-6.93c6.07-3.06,8.11-6.37,6.98-11.17-.93-3.98-4.31-6.65-8.47-6.7-4.24-.05-7.8,2.69-8.73,6.71-1.1,4.78.98,8.12,7.02,11.17v6.93c-6.01.65-11.32,2.83-15.75,6.6-3.76-3.81-7.37-7.47-11.06-11.2,3.67-7.75,2.61-14.04-3.23-18.18-4.92-3.49-11.82-2.69-16.19,1.87-4.16,4.33-4.68,11.12-1.22,15.84,4.28,5.84,10.67,6.87,17.78,3.18,3.81,3.77,7.5,7.43,11.27,11.16-3.76,4.31-5.73,9.71-6.51,15.51h-6.94c-2.6-5.75-6.06-7.97-10.77-7.05-3.97.79-6.88,4.17-7.04,8.22-.17,4.19,2.26,7.71,6.14,8.91,2.01.63,4,.6,5.96-.18,3.06-1.22,4.62-3.78,5.7-6.61h7.08c.56,6.08,2.8,11.36,6.43,15.64-4.71,4.73-9.22,9.26-13.78,13.83-7.61-3.97-14.27-3.02-18.65,2.75-3.85,5.09-3.45,12.25.97,17.01,4.24,4.58,11.4,5.49,16.71,2.1,2.84-1.81,4.57-4.45,5.6-7.6,1.42-4.38.14-8.3-1.93-11.44,4.71-4.78,9.2-9.33,13.79-13.98,4.35,3.8,9.78,5.71,15.78,6.55,0,2.76.01,5.29-.01,7.81,0,.58-.11,1.15-.16,1.67-5.72,2.44-7.91,5.77-7.05,10.6.72,4.09,4.1,6.96,8.38,7.14,4.03.16,7.75-2.49,8.81-6.32.55-2.02.47-4.02-.34-5.97-1.24-2.95-3.69-4.49-6.54-5.35v-9.63c1.44-.23,2.76-.43,4.43-.68.62,5.35,2.46,9.82,6.35,13.2,3.85,3.36,8.33,5.03,13.51,4.74,8.97-.51,15.95-6.62,17.54-15.55.76-4.3.02-8.4-2-12.29-3.26-6.27-8.88-8.93-15.72-9.86.3-1.69.54-3.06.81-4.59h9.6c1.87,6.57,6.56,7.77,10.2,7.26,4.18-.59,7.24-4.05,7.45-8.39.19-4-2.68-7.91-6.56-8.93ZM102.61,34.57c.11-6.53,5.74-11.85,12.46-11.8,6.76.05,12.27,5.66,12.16,12.37-.11,6.91-5.52,12.23-12.34,12.17-7.13-.07-12.4-5.54-12.28-12.74ZM36.33,46.08c-5.42.01-9.92-4.41-9.92-9.75,0-5.39,4.43-9.84,9.85-9.88,5.56-.04,9.87,4.37,9.84,10.06-.03,5.29-4.39,9.56-9.77,9.57ZM32.64,81.05c-3.33.03-6.2-2.76-6.23-6.05-.03-3.32,2.75-6.07,6.16-6.07,3.44-.01,6.03,2.64,6.03,6.14,0,3.24-2.69,5.94-5.96,5.98ZM33.11,127.21c-5.79-.02-10.45-4.79-10.34-10.57.11-6.01,4.54-10.26,10.6-10.2,5.99.07,10.22,4.48,10.19,10.6-.03,5.65-4.71,10.2-10.45,10.17ZM68.93,32.48c.01-3.33,2.88-6.16,6.17-6.09,3.33.07,5.99,2.9,5.94,6.32-.05,3.32-2.68,5.87-6.03,5.87-3.46-.01-6.09-2.65-6.08-6.1ZM58.09,88.64c.07.66,0,1.34,0,2.07-4.95-2.8-9.54-15.31-4.24-25.97,5.53-11.15,18.28-16.2,29.81-11.66,11.72,4.61,17.29,18.33,13.92,28.01-2.28.69-4.37,1.33-6.55,2-.06-.02-.28,0-.37-.1-2.27-2.53-5.12-3.25-8.45-3.14-5.15.17-10.32.21-15.47,0-5.25-.22-9.26,3.53-8.66,8.79ZM81.06,119.88c.02,3.41-2.66,6.04-6.12,6.02-3.52-.03-6.02-2.59-5.98-6.13.03-3.47,2.65-5.95,6.2-5.87,3.36.08,5.88,2.63,5.9,5.98ZM62.16,94.71c-.97-.6-1.4-1.35-1.35-2.49.06-1.6-.04-3.21.03-4.81.13-2.76,1.84-4.67,4.62-4.73,6.32-.11,12.65-.06,18.97-.01,1.57.01,2.94.64,3.96,2.37-4.01,3.23-6.46,7.44-7.18,12.67-7.02,1.55-13.24.61-19.05-3ZM116.04,100.23c-.11,8.48-7.38,15.77-15.74,15.78-9.51.02-16.3-6.81-16.26-16.36.03-9.14,6.92-15.76,16.33-15.71,8.7.05,15.78,7.41,15.67,16.29ZM119.79,81.04c-3.32-.05-5.82-2.62-5.85-6.01-.04-3.53,2.47-6.1,5.98-6.1s5.99,2.55,5.99,6.1c.01,3.43-2.68,6.06-6.12,6.01Z"/>
  <path class="cls-1" d="M123.71,35.12c-.08,4.94-3.94,8.74-8.82,8.7-5.09-.05-8.86-3.96-8.77-9.1.08-4.67,4.1-8.47,8.9-8.43,4.83.04,8.77,4.04,8.69,8.84Z"/>
  <path class="cls-1" d="M41.13,116.99c-.02,4.33-3.61,7.82-8.01,7.8-4.44-.02-8.01-3.67-7.93-8.1.08-4.61,3.48-7.87,8.13-7.82,4.59.05,7.83,3.43,7.81,8.13Z"/>
  <path class="cls-1" d="M43.56,36.45c-.02,3.93-3.26,7.09-7.25,7.1-4.02,0-7.36-3.27-7.36-7.23,0-4,3.29-7.3,7.31-7.33,4.13-.03,7.32,3.24,7.3,7.46Z"/>
  <path class="cls-2" d="M74.94,59.65c4.83-.03,8.54,3.71,8.48,8.54-.05,4.34-3.99,8.2-8.39,8.23-4.49.03-8.44-3.89-8.49-8.4-.04-4.65,3.66-8.34,8.39-8.36ZM75.05,73.49c3.13-.03,5.46-2.34,5.48-5.43.02-3.27-2.3-5.69-5.48-5.71-3.22-.02-5.59,2.34-5.59,5.58,0,3.27,2.34,5.6,5.59,5.56Z"/>
  <path class="cls-1" d="M96.11,105.18c.47,1.2.96,2.02,1.07,2.9.08.61-.18,1.54-.63,1.89-.75.58-1.43-.02-1.8-.77-.67-1.36-1.3-2.73-1.94-4.09-.41-.1-.73-.19-1.06-.25-2.13-.36-2.18-.53-2.79-3.19-.38-1.65.23-2.49,1.64-3.21,4.74-2.43,9.42-4.96,14.15-7.42,1.68-.87,2.3-.63,2.74,1.16.89,3.62,1.71,7.25,2.47,10.89.43,2.03-.07,2.58-2.27,2.5-3.21-.11-6.41-.33-9.62-.49-.5-.02-1,.03-1.96.07ZM91.84,101.65c5,.75,9.95.81,15.17,1.12-.58-3-.99-5.75-2.13-8.64-4.58,2.46-9.05,4.43-13.04,7.52Z"/>
</svg>