<?xml version="1.0" encoding="UTF-8"?>
<svg id="Layer_1" xmlns="http://www.w3.org/2000/svg" viewBox="0 0 50 50">
  <path d="M48.48,5.02c1.93,22.14-16.46,41.73-40.96,43.86-1.42.12-2.72-.64-3.15-1.87l-3.02-8.61c-.44-1.26.18-2.63,1.49-3.27l10.18-4.98c1.19-.59,2.68-.39,3.61.47l4.69,4.34c6.47-3.56,11.51-8.97,14.29-15.3l-5.57-3.4c-1.11-.68-1.58-1.96-1.14-3.12l3.69-9.88c.48-1.27,1.89-2.06,3.34-1.89l9.97,1.18c1.4.16,2.47,1.18,2.58,2.45ZM45.36,5.35l-9.85-1.17-3.65,9.78,7.53,4.58c-3.92,9.43-8.94,14.83-18.63,19.95l-6.34-5.86-10.08,4.93,2.99,8.51c22.78-2.01,39.8-20.23,38.03-40.73Z"/>
</svg>