<?xml version="1.0" encoding="UTF-8"?>
<svg id="Layer_1" xmlns="http://www.w3.org/2000/svg" viewBox="0 0 50 50">
  <path d="M4.3,37.04l-.12-.2c-2.08-3.62-3.18-7.75-3.18-11.94C1,11.72,11.71,1.01,24.88,1.01c6.39,0,12.39,2.49,16.89,7,4.66,4.67,7.22,10.67,7.22,16.89,0,13.17-10.82,23.88-24.12,23.88-4,0-7.95-1-11.43-2.9l-.19-.11-12.24,3.21,3.27-11.95ZM14.25,42.88c3.21,1.9,6.88,2.91,10.63,2.91,11.63,0,21.1-9.37,21.1-20.88.01-5.41-2.24-10.65-6.34-14.76-3.93-3.95-9.17-6.12-14.75-6.12C13.38,4.02,4.02,13.39,4.02,24.89c0,3.95,1.1,7.79,3.19,11.11l.35.56-2.24,8.19,8.39-2.2.54.32ZM31.28,36.11c-1.42,0-3.01-.45-5.68-1.6-3.59-1.55-7.17-4.7-10.09-8.87-.06-.09-.1-.15-.13-.18-1.52-2.07-2.38-4.24-2.38-5.98,0-2.59,1.26-3.94,1.86-4.59l.13-.14c.5-.54,1.06-.58,1.22-.58h.05c.38,0,.76,0,1.09.02.05,0,.1,0,.15,0h0c.26,0,.45,0,.74.7l.59,1.43c.7,1.7,1.2,2.93,1.31,3.15.12.25.14.4.05.58-.48.96-.98,1.48-1.34,1.86-.49.51-1,1.04-.44,2,2.46,4.22,4.98,5.7,8.54,7.48.34.17.63.26.91.26.41,0,.76-.18,1.08-.54.15-.18,1.51-1.74,1.98-2.46.15-.22.22-.22.26-.22.11,0,.29.06.46.13.51.18,3.44,1.61,4.11,1.96l.29.14c.25.12.57.27.62.35.05.15.09,1.13-.39,2.46-.4,1.14-2.54,2.37-3.68,2.54-.51.08-.94.11-1.35.11Z"/>
</svg>