<?xml version="1.0" encoding="UTF-8"?>
<svg id="Layer_1" xmlns="http://www.w3.org/2000/svg" viewBox="0 0 50 50">
  <path d="M49,11.5v27c0,2.48-2.02,4.5-4.5,4.5H5.5c-2.48,0-4.5-2.02-4.5-4.5V11.5c0-2.48,2.02-4.5,4.5-4.5h39c2.48,0,4.5,2.02,4.5,4.5ZM4,11.5v3.88c2.05,1.73,4.99,4.12,14.12,11.37,1.58,1.26,4.71,4.28,6.88,4.25,2.17.04,5.3-2.99,6.88-4.25,9.13-7.25,12.07-9.64,14.12-11.37v-3.88c0-.82-.67-1.5-1.5-1.5H5.5c-.83,0-1.5.68-1.5,1.5ZM46,38.5v-19.22c-2.14,1.75-5.51,4.46-12.25,9.82-1.97,1.58-5.33,4.93-8.75,4.9-3.43.02-6.83-3.37-8.75-4.9-6.74-5.35-10.12-8.06-12.25-9.82v19.22c0,.82.67,1.5,1.5,1.5h39c.83,0,1.5-.68,1.5-1.5Z"/>
</svg>