<?xml version="1.0" encoding="UTF-8"?>
<svg id="Layer_1" xmlns="http://www.w3.org/2000/svg" viewBox="0 0 150 150">
  <defs>
    <style>
      .cls-1 {
        fill: #085e92;
      }
    </style>
  </defs>
  <path class="cls-1" d="M84.27,103.12c-7,7.64-8.83,11.05-18.66.08-3.06,5.26-6.02,10.44-9.08,15.56-2.97,4.98-5.48,10.28-9.58,15.76-4.15-5.42-4.95-11.41-7.83-16.62-5.8-.58-11.55,2.57-18.39,1.27,1-2.22,1.57-3.83,2.41-5.29,4.95-8.66,9.96-17.28,14.94-25.91.57-.99,1.2-1.96,1.67-3,2.08-4.69,1.33-8.01-2.53-11.19-2.27-1.87-4.67-3.6-6.85-5.57-3.69-3.34-3.75-7.23-.09-10.59,2.52-2.32,5.22-4.48,7.98-6.51,1.94-1.42,2.71-3.08,2.38-5.44-.42-3.08-.74-6.17-.98-9.26-.52-6.45,2.65-9.51,9.04-8.84,3.09.32,6.19.59,9.26,1,2.18.29,3.73-.39,5.05-2.18,1.94-2.63,4.01-5.18,6.16-7.64,3.86-4.41,7.66-4.39,11.56.06,2.05,2.34,4.07,4.72,5.84,7.26,1.52,2.17,3.36,2.84,5.88,2.45,2.58-.4,5.2-.52,7.8-.85,7.51-.95,10.67,2.18,9.84,9.81-.3,2.76-.51,5.54-.91,8.29-.34,2.39.52,4.02,2.47,5.4,2.39,1.71,4.66,3.61,6.89,5.53,4.97,4.28,4.99,8,.1,12.21-1.73,1.49-3.56,2.89-5.34,4.32-4.88,3.94-5.63,7.52-2.46,13.12,5.07,8.96,10.28,17.85,15.4,26.78.94,1.64,1.76,3.36,3,5.72-6.76,1.88-12.47-1.5-18.58-.94-2.14,5.14-4.31,10.35-6.37,15.3-3.29.4-3.75-1.94-4.67-3.5-5.13-8.73-10.15-17.53-15.37-26.58ZM103.1,94.08c2.37.11,3.29-.77,2.99-4.52-.25-3.09-.47-6.2-1-9.25-.67-3.87.77-6.61,3.84-8.84,2.51-1.82,4.92-3.8,7.25-5.84,2.55-2.23,2.56-3.27.01-5.52-2.32-2.06-4.72-4.05-7.24-5.86-3.11-2.23-4.43-5.04-3.85-8.86.47-3.06.73-6.16.98-9.25.31-3.72-.77-4.78-4.44-4.45-3.09.28-6.2.5-9.25,1.02-3.65.62-6.34-.61-8.53-3.48-1.98-2.6-4.02-5.16-6.17-7.61-2.25-2.56-3.29-2.56-5.51-.04-2.05,2.33-4.03,4.73-5.86,7.24-2.36,3.23-5.27,4.61-9.32,3.84-2.88-.55-5.84-.69-8.76-.96-3.72-.34-4.79.68-4.49,4.4.26,3.25.59,6.51,1.02,9.74.46,3.43-.72,6.02-3.46,8.08-2.61,1.97-5.17,4.01-7.62,6.16-2.58,2.26-2.58,3.29-.05,5.5,2.34,2.04,4.75,4.01,7.25,5.84,3.07,2.23,4.47,5,3.85,8.85-.49,3.06-.74,6.16-.99,9.25-.31,3.78.6,4.73,4.41,4.46,3.26-.23,6.51-.59,9.74-1.03,3.44-.46,6.01.77,8.07,3.49,1.97,2.61,4.01,5.16,6.16,7.63,2.15,2.48,3.4,2.5,5.55.04,2.25-2.58,4.38-5.28,6.47-8,1.86-2.42,4.21-3.5,7.25-3.17,3.41.36,6.83.67,11.69,1.14ZM87.06,99.73c5,8.64,10.09,17.46,15.56,26.92,1.49-3.77,2.6-6.63,3.74-9.48q1.62-4.04,6.08-3.52c3.08.36,6.16.73,10.09,1.2-4.34-7.5-8.13-14.04-12.33-21.29-2.48,4.76-6.12,4.95-10.02,4.46-2.91-.36-5.83-.62-8.75-.96-2.02-.23-3.53.39-4.38,2.67ZM39.6,93.59c-4.24,7.35-8.02,13.93-12.29,21.33,5.28-.66,9.69-1.22,14.4-1.81,1.85,4.47,3.55,8.57,5.58,13.45,5.48-9.5,10.56-18.31,16.02-27.75-1.87-.7-3.25-1.64-4.64-1.66-2.59-.04-5.19.44-7.78.74-4.27.49-8.55,1.03-11.29-4.29Z"/>
  <path class="cls-1" d="M45.39,57.34c4.01-4.19,7.86-8.37,11.92-12.33.79-.77,2.37-1.02,3.59-1.03,9.31-.08,18.62-.08,27.94,0,1.23,0,2.84.18,3.63.94,4.07,3.96,7.94,8.14,11.74,12.11-2.04,3.96-25.62,28.47-29.2,30.59-3.08-1.68-25.18-24.11-29.61-30.27ZM85.89,60.14h-21.9c3.67,7.07,7.08,13.65,10.95,21.1,3.86-7.43,7.27-14.01,10.96-21.1ZM85.97,55.55c-1.47-2.87-2.64-5.13-3.76-7.32h-14.58c-1.22,2.39-2.38,4.65-3.75,7.32h22.09ZM52.85,59.92c4.21,4.39,7.86,8.19,11.51,11.99.25-.2.5-.41.75-.61-2.01-3.83-4.01-7.66-5.97-11.39h-6.3ZM84.76,71.32c.24.22.48.45.71.67,3.65-3.84,7.29-7.69,11.38-11.99h-6.23c-1.99,3.84-3.92,7.58-5.86,11.32ZM62.74,48.65l-.98-.9c-3.83,1.06-5.67,4.53-8.65,7.72h6.06c1.17-2.22,2.37-4.52,3.58-6.81ZM96.97,55.46c-3.48-2.91-4.67-7.39-10.1-7.33,1.48,2.84,2.68,5.14,3.83,7.33h6.28Z"/>
</svg>