<?xml version="1.0" encoding="UTF-8"?>
<svg id="Layer_1" xmlns="http://www.w3.org/2000/svg" viewBox="0 0 150 150">
  <defs>
    <style>
      .cls-1 {
        fill: #085e92;
      }
    </style>
  </defs>
  <path class="cls-1" d="M100.53,134.52h-53.98c-.56,0-1.12,0-1.67-.06-2.52-.25-3.91-1.67-4.02-4.09-.15-3.12-.15-6.34,0-9.56.12-2.75,1.67-4.21,4.6-4.33.57-.02,1.13-.03,1.71-.03l3.97.02.09-.87c.09-.84.12-1.67.15-2.49.08-2.39.16-4.45,1.64-6.15,1.7-1.94,3.89-2.81,7.11-2.81.31,0,.63,0,.96.02l1.02.05v-1.02c-.01-1.09.02-2.17.06-3.24.1-2.79.2-5.66-.54-8.51-.59-2.26-2.01-4.08-4.12-5.26-6.98-3.89-12.21-9.24-15.55-15.9-.83-1.65-2.23-1.85-3.25-1.98-.23-.03-.45-.06-.67-.11-7.65-1.64-12.64-6.23-14.84-13.64-.44-1.49-.68-3.27-.72-5.45-.08-4.44-.06-8.93-.04-13.26v-2.71c.03-4.08,1.49-5.54,5.6-5.57,1.06,0,2.13-.01,3.21-.01h6.52s0-2.53,0-2.53c0-1.03,0-1.92.01-2.8.09-4.06,2.37-6.45,6.43-6.71.44-.03.89-.03,1.33-.03h58.53c.92,0,1.75.02,2.55.12,3.34.45,5.33,2.54,5.61,5.87.08.99.06,2.01.04,3.1v.18c-.01.49-.03.99-.03,1.51v.84l.83.12c.29.04.56.09.82.13.55.1,1.06.18,1.6.19.48,0,.95.01,1.43.01h3.38c.87-.01,1.75,0,2.62.02,3.02.11,4.57,1.64,4.59,4.57.06,5.95.13,12.11,0,18.17-.19,8.6-6.42,16.02-14.8,17.66-2.66.52-4.28,1.7-5.6,4.07-3.19,5.75-7.73,10.28-13.5,13.47-3.95,2.18-5.83,5.49-5.77,10.12.02,1.53.02,3.06.01,4.67v3.74s1.38-.02,1.38-.02c3.43,0,5.96.86,7.51,2.56,1.67,1.82,2.34,4.74,1.99,8.66l-.09,1.02,5.52.22c3.63.13,5.05,1.6,5.09,5.23.03,2.67.06,5.43,0,8.24-.07,2.89-1.46,4.33-4.39,4.53-.7.05-1.41.06-2.12.06h-2.19ZM45.35,129.96h59.42v-8.84h-59.42v8.84ZM60.78,108.57c-2.15,0-3.4.16-4.22,1.01-.83.86-.93,2.13-.84,4.33.01.33.07.65.13,1.03l.08.52.12.83h37.85l.13-.81c.47-2.87.53-4.52-.4-5.62-.9-1.07-2.41-1.26-5.06-1.27-9.26-.01-18.53-.02-27.79-.02h0ZM42.2,21.89c-.07.64-.12,1.21-.12,1.77v4.92c-.02,8.04-.03,16.36.04,24.6.02,2.36.27,4.63.73,6.76,2.12,9.71,7.52,17.11,16.07,21.99,4.97,2.84,7.48,7.07,7.67,12.95.03,1.08.03,2.17.03,3.25,0,1.01-.01,1.91,0,2.8,0,.49.08.99.15,1.5.04.29.08.51.1.74l.1.86h16.54l.02-3.07c.02-1.53.03-2.93-.03-4.36-.32-6.75,2.37-11.59,8.45-15.23,10.33-6.19,15.69-15.53,15.92-27.77.13-7.21.1-14.68.06-21.28-.01-2.84-.03-5.68-.03-8.52,0-.62-.05-1.25-.11-1.9l-.14-1.79H42.36s-.13,1.5-.16,1.78ZM112.32,37.79c.02,3.5.03,6.7-.03,9.95-.07,3.31-.21,6.56-.36,9.99l-.25,6,1.3-.38c6.2-1.84,10.12-7.08,10.23-13.67.06-3.73.05-7.52.03-11.19l-.02-3.44c0-.49-.08-.95-.15-1.4-.03-.21-.06-.38-.09-.56l-.11-.85h-10.56v5.55ZM26.98,33.14c0,1.9-.02,3.78-.04,5.62-.05,4.25-.1,8.26.11,12.37.27,5.18,3.22,9.27,8.54,11.83.49.23.98.29,1.47.34.22.02.41.04.59.07l1.39.24-.28-1.38c-1.18-5.83-1.09-11.77-1.01-17.51.06-3.81.11-7.74-.2-11.65l-.07-.89h-10.51v.97ZM64.87,64.69c-.31,0-.62-.12-.95-.38-.8-.63-.74-1.28-.37-2.84l.05-.21c.18-.76.33-1.54.49-2.31.29-1.45.56-2.81.94-4.07.57-1.86.1-3.27-1.51-4.59-1.22-.99-2.41-2.06-3.56-3.1l-1.48-1.32c-1.22-1.06-1.68-1.59-1.34-2.59.32-.96.97-1.11,2.48-1.26l.6-.06c2.03-.25,4.42-.52,6.79-.65,1.52-.08,2.51-.79,3.09-2.22.6-1.46,1.23-2.9,1.86-4.35l1.18-2.72c.62-1.45,1.15-1.73,1.87-1.74.73,0,1.25.27,1.86,1.71.35.82.71,1.63,1.07,2.43.6,1.36,1.22,2.74,1.75,4.11.73,1.89,1.93,2.77,3.88,2.84,1.62.06,3.27.26,4.87.45.89.11,1.68.2,2.47.28,1.37.14,1.76.53,1.99,1.16.25.72.17,1.28-.99,2.29-.57.5-1.13,1.01-1.68,1.53-1.1,1.01-2.23,2.06-3.44,2.96-1.81,1.36-2.35,3.04-1.69,5.3.44,1.5.76,3.08,1.08,4.6,0,0,.27,1.29.38,1.78.33,1.53.2,2.16-.59,2.68-.28.18-.54.27-.8.27-.52,0-1.09-.32-1.74-.7-1.86-1.1-3.72-2.18-5.62-3.28l-2.82-1.64s-6.23,3.67-7.87,4.63l-.36.21c-.68.41-1.33.79-1.89.79ZM74.13,38.22l-.65,1.43c-.4.87-.79,1.69-1.09,2.54-.57,1.58-1.42,2.23-2.95,2.23-.95,0-1.85.15-2.9.32-.48.08-.98.16-1.52.23l-2.05.27,1.53,1.41c.37.34.68.65.98.93.59.58,1.11,1.07,1.7,1.49,1.79,1.27,2.25,2.64,1.54,4.6-.27.75-.4,1.5-.54,2.38-.08.48-.15.91-.25,1.38l-.42,2.1,1.86-1.08c.53-.31,1.02-.58,1.47-.84.97-.55,1.78-1,2.56-1.51.58-.38,1.12-.57,1.65-.57s1.07.19,1.66.57c.76.5,1.55.94,2.49,1.46.45.25.93.52,1.46.82l1.83,1.05-.39-2.07c-.11-.6-.2-1.15-.28-1.65-.17-1.04-.32-1.93-.59-2.79-.44-1.38-.13-2.34,1.08-3.31.72-.58,1.4-1.21,2.17-1.92.36-.33.74-.68,1.15-1.06l1.57-1.41-2.09-.27c-.58-.08-1.11-.16-1.6-.24-1.05-.17-1.94-.31-2.85-.31-1.53,0-2.39-.65-2.96-2.24-.3-.83-.67-1.62-1.09-2.52-.24-.51-.45-.95-.66-1.44l-.89-1.98-.88,1.98Z"/>
</svg>