<?xml version="1.0" encoding="UTF-8"?>
<svg id="Layer_1" xmlns="http://www.w3.org/2000/svg" viewBox="0 0 150 150">
  <defs>
    <style>
      .cls-1 {
        fill: #085e92;
      }
    </style>
  </defs>
  <path class="cls-1" d="M71.5,134.53c-1.63,0-3.29-.6-4.8-1.75-3.06-2.33-6.09-4.71-9.11-7.09-1.66-1.31-3.32-2.62-4.99-3.91-1.9-1.48-3.8-2.95-5.7-4.43-2.58-2-5.15-3.99-7.72-6-.59-.47-1.13-.68-1.68-.68-.37,0-.74.1-1.12.29-1.13.57-2.32.85-3.64.85-1.16,0-2.41-.21-3.96-.66-2.89-.85-5.81-1.63-8.72-2.42l-1.64-.44c-1.5-.41-2.3-.84-2.65-1.46-.34-.6-.33-1.45.05-2.84,1.49-5.44,2.99-10.87,4.5-16.3l2.25-8.14c.27-.98.54-1.97.8-2.96.57-2.14,1.17-4.36,1.83-6.52.21-.68.56-1.31.92-1.98.25-.46.5-.92.71-1.39.28-.64.6-1.47.65-2.31.06-1.05.06-2.1.05-3.15,0-.74,0-1.49.02-2.23.14-5.3,3.01-8.13,8.3-8.2h.4c1.47,0,2.98,0,3.68-2.18l.16-.49c.66-1.98.61-2.17-1.07-3.98-.86-.92-1.61-1.76-2.18-2.72-1.58-2.66-1.25-5.39.95-7.89,2.11-2.4,4.5-4.8,7.08-7.14,1.41-1.28,3.02-1.95,4.67-1.95s3.2.63,4.66,1.81c.14.12.27.25.41.38l.23.22c1.46,1.37,2.51,1.93,3.61,1.93.99,0,2-.46,3.38-1.52.58-.45,1.02-1.54.93-2.32-.29-2.67.37-4.99,1.9-6.69,1.63-1.82,4.11-2.78,7.16-2.78.35,0,.71.01,1.08.04.64.05,1.28.06,1.92.06.48,0,.97,0,1.45-.02.48,0,.96-.02,1.45-.02.29,0,.58,0,.87.01,4.48.12,7.42,3.1,7.48,7.6.04,3.27,1.91,5.21,5.13,5.33h0c.89,0,1.78-.68,2.24-1.09,2.85-2.55,4.64-3.54,6.37-3.54s3.5.98,6.25,3.39c1.84,1.62,3.68,3.47,5.62,5.65,2.43,2.73,2.52,6.14.25,9.12-.17.23-.37.43-.57.64l-.21.22c-2.36,2.49-2.45,4.33-.36,7.02.29.38.84.71,1.39.83.29.07.61.1,1.01.1.22,0,.44,0,.66-.02,0,0,.5-.02.65-.02,2.37,0,4.36.76,5.77,2.19,1.49,1.51,2.29,3.69,2.25,6.14,0,.65,0,1.31,0,1.96.01.74.02,1.48,0,2.22-.04,1.68.04,3.07,1.42,4.3.42.38.6,1.15.77,1.89.06.24.11.47.17.69,3.05,11.02,6.08,22.05,9.1,33.08l.14.49c.2.68.41,1.39.29,1.96-.18.87-.74,1.95-1.22,2.08-3.97,1.12-8.05,2.13-12,3.11l-3.55.88s-.79,0-.81,0c-.09,0-.17,0-.26.01-.13,0-.29.02-.45.02-.39,0-.67-.06-.83-.19-.86-.68-1.82-1.01-2.93-1.01-.83,0-1.65.18-2.45.35-.66.14-1.29.27-1.91.32-.74.05-1.63.85-1.97,1.53-1.39,2.86-3.11,4.41-5.55,5.05-.63.17-1.03,1.06-1.33,1.72-1.72,3.82-4.09,5.61-7.46,5.61,0,0-.38,0-.38,0-1.1,0-1.47.52-1.83,1.01l-.7.91c-.74.95-1.49,1.94-2.43,2.6-1.12.8-2.26,1.2-3.41,1.2-.74,0-1.48-.18-2.19-.52-.61-.3-1.08-.43-1.51-.43-.76,0-1.39.43-2.06,1.39-1.43,2.07-3.46,3.22-5.71,3.22ZM55.62,78.85c-1.37.1-2.74.25-4.1.39l-1.82.19c-2.62.26-2.92.5-3.57,2.89-.68,2.5-1.35,5-2.02,7.5-1.21,4.5-2.42,9.01-3.69,13.5-.61,2.15-.13,3.53,1.7,4.91,4.53,3.4,9.07,6.93,13.46,10.35,2.19,1.71,4.39,3.42,6.59,5.12,2.44,1.89,4.92,3.73,7.4,5.57l.23.17c.55.41,1.1.62,1.63.62.71,0,1.37-.36,1.95-1.07,1.02-1.24.93-2.74-.23-3.9-.24-.24-.52-.44-.81-.64-.14-.1-.27-.19-.41-.29l-2.12-1.64c-1.81-1.4-3.62-2.79-5.4-4.22-1.1-.88-1.43-2.55-.69-3.51.32-.41.79-.63,1.36-.63.53,0,1.13.19,1.73.54.51.3,1.05.67,1.68,1.16l4.39,3.42c2.3,1.79,4.6,3.58,6.9,5.36.72.56,1.44.98,2.12,1.25.33.13.65.19.96.19.78,0,1.49-.39,2.04-1.13.79-1.06.77-2.2-.04-3.14-.77-.89-1.59-1.67-2.41-2.31-1.53-1.2-3.08-2.37-4.63-3.55-1.38-1.05-2.76-2.1-4.12-3.16-.86-.67-1.55-1.32-2.12-1.99-.77-.91-.41-1.77.03-2.34.31-.4.83-.88,1.56-.88.23,0,.47.05.71.14.59.23,1.22.59,1.96,1.15,1.25.94,2.48,1.9,3.71,2.86l2.76,2.14c2.4,1.86,4.8,3.71,7.2,5.56.4.31.84.58,1.31.83.44.23.88.35,1.3.35.82,0,1.57-.44,2.22-1.31.89-1.19.76-2.42-.38-3.35-2.36-1.94-4.76-3.84-7.15-5.74l-.29-.23c-.8-.63-1.6-1.26-2.4-1.88-1.47-1.14-2.94-2.28-4.37-3.47-.95-.8-1.07-1.77-.32-2.74.47-.6,1.04-.91,1.72-.91.35,0,.72.08,1.12.24.25.1.48.28.73.48l7.94,6.14c2.01,1.56,4.09,3.18,6.19,4.71.74.54,1.46.82,2.13.82,1.16,0,2.07-.8,2.56-2.24.57-1.68-.61-2.54-1.47-3.17-.14-.1-.27-.2-.39-.29-8.06-6.33-16.3-12.71-24.01-18.66-.87-.67-1.38-1-1.88-1-.66,0-1.15.56-1.88,1.49-2.89,3.64-6.51,5.45-11.08,5.53-3.55-.18-6.05-1.03-8.09-2.76-1.89-1.6-2-2.31-.71-4.45.68-1.14,1.37-2.27,2.07-3.41.76-1.24,1.52-2.49,2.26-3.74.41-.68.33-1.11.19-1.35-.12-.21-.39-.47-1.02-.47h-.2ZM119.63,71.95c-.28,0-.6.06-.98.17-1.51.45-3.02.84-4.55,1.23-1.17.3-2.34.6-3.51.93-3.24.91-3.79,1.86-2.94,5.12,1.3,4.98,2.67,9.94,4.04,14.9l.73,2.65c.49,1.79,1.01,3.58,1.52,5.37l.76,2.66c.33,1.16.98,2.49,3.12,2.49h.23c.95-.27,1.84-.53,2.74-.79,2.29-.67,4.66-1.37,7.07-1.97.68-.17,1.1-.42,1.31-.79.29-.49.15-1.1-.02-1.73-3-10.84-5.47-19.88-7.78-28.46-.22-.81-.62-1.75-1.75-1.75ZM30.17,71.94c-.94,0-1.13.7-1.53,2.1l-.21.73c-1.46,5.21-2.93,10.43-4.37,15.65-.84,3.05-1.65,6.1-2.46,9.15l-.71,2.67c-.03.1-.06.21-.09.31-.14.43-.29.91-.06,1.35.16.3.47.5.94.64,2.43.68,4.85,1.37,7.17,2.03l2.86.82c.29.03.51.04.72.04,1.65,0,2.44-.74,3.02-2.84,2.36-8.46,4.74-17.17,7.09-25.9.69-2.56.27-3.33-2.26-4.11-3.13-.96-6.27-1.77-8.65-2.36-.66-.16-1.12-.27-1.48-.27ZM69.33,79.44c.6,0,1.3.21,1.96.59.24.14.48.3.7.48l6.82,5.28c4.02,3.11,8.03,6.22,12.06,9.32l1.24.96c3.92,3.02,7.83,6.05,11.79,9.02,1.04.78,2.17,1.36,3.26,1.68.31.09.61.14.89.14.57,0,1.05-.2,1.39-.58.4-.46.56-1.14.45-1.97-.07-.53-.22-1.05-.36-1.55l-1.74-6.36c-1.3-4.77-2.6-9.54-3.85-14.32-.48-1.86-1.51-2.83-3.44-3.24-4.3-.92-8.6-1.87-12.89-2.82-4.34-.96-8.68-1.92-13.03-2.85-.43-.09-.9-.14-1.42-.14-.56,0-1.17.05-1.91.16-3.51.52-6.33,2.42-8.37,5.64-1.57,2.47-3.05,4.92-4.68,7.64-.77,1.28-1.18,2.21-.85,2.92.33.7,1.29.99,2.75,1.22.22.03.44.05.63.07l.22.02c3.34-.32,5.66-1.44,7.38-3.52l.23-.28c1.44-1.73,1.43-1.97-.07-3.71-1.01-1.17-1.17-2.11-.55-3.14.33-.55.94-.66,1.39-.66ZM49.46,28.72c-.63,0-1.25.28-1.8.8-1.96,1.89-3.86,3.9-5.69,5.86l-.93.99c-1.18,1.25-1.09,2.57.24,3.82,1.15,1.08,2.27,2.25,3.36,3.37l.21.22c1,1.03,1.13,2.09.44,3.42-.85,1.64-1.51,3.39-2.16,5.09l-.06.16c-.9,2.37-1.01,2.44-3.63,2.52-1.44.04-2.98.1-4.48.28-1.72.21-2.67,1.17-2.77,2.78-.05.8-.12,1.6-.19,2.4-.12,1.35-.25,2.75-.26,4.13-.02,2.61.39,3.16,2.89,3.94,1.27.39,2.55.73,3.83,1.07.84.22,1.67.44,2.5.67,2.5.71,4.4,1.62,5.53,3.76.35.65,1.42,1.16,2.1,1.16,3.51-.28,7.19-.69,11.37-1.24.74-.1,1.57-.49,2.28-1.09,3.29-2.74,6.89-4.07,11.01-4.07,1.91,0,3.89.28,6.07.85,4.81,1.27,9.76,2.36,14.54,3.4,2.13.47,4.26.93,6.38,1.42.53.12,1.06.24,1.58.24.88,0,1.53-.36,1.99-1.11,1.34-2.19,3.59-2.85,5.77-3.49,2.1-.61,4.21-1.18,6.32-1.72,1.56-.4,2.4-1.41,2.37-2.83-.05-1.85-.18-3.72-.31-5.53l-.15-2.19c-.09-1.4-.95-2.29-2.37-2.45-1.6-.18-3.5-.37-5.37-.37-1.54,0-2.38-.55-2.89-1.9-.76-2.01-1.63-4.11-2.75-6.62-.71-1.6-.47-2.81.77-3.92.93-.84,1.9-1.82,2.97-2.99,1.33-1.47,1.71-2.45.21-4.07-1.69-1.82-3.55-3.53-5.35-5.17l-1.55-1.42c-.53-.49-1.08-.74-1.64-.74-.65,0-1.3.34-1.94,1-1.16,1.2-2.37,2.4-3.6,3.56-.71.68-1.33.98-1.99.98-.36,0-.74-.09-1.15-.28-2.16-.99-4.52-1.94-7.2-2.91-1.46-.53-2.07-1.36-2.05-2.78,0-.72,0-1.43,0-2.15,0-.87-.02-1.75,0-2.62.03-1.61-.75-2.59-2.27-2.84-1.08-.18-2.18-.31-3.27-.44l-1.77-.22-.03.25h-1.59c-.47,0-.94,0-1.42.01-.42.01-.83.11-1.22.21-2.73.69-3.34,1.44-3.41,4.23-.03,1.4-.03,2.8,0,4.2.03,1.18-.49,1.92-1.69,2.41-2.3.93-4.6,1.89-6.88,2.87-.57.24-1.08.36-1.55.36-.79,0-1.49-.34-2.14-1.04-.51-.55-1.06-1.08-1.6-1.61-.53-.51-1.06-1.02-1.56-1.56-.64-.68-1.36-1.05-2.08-1.05ZM94.13,67.42c1.17,0,1.97-.96,2.08-2.52.44-5.91-1.51-11.57-5.5-15.94-4.09-4.49-9.83-7.04-16.14-7.17-.11,0-.26.01-.44.01-.53.01-1.33.03-2.11.18-9.81,1.9-16.21,8.34-18.03,18.13-.3,1.6-.2,3.31-.11,4.97l.02.3c.07,1.19.79,1.92,2.14,2.02,1.01,0,1.77-.86,1.93-2.2.03-.28.03-.57.02-.86,0-.2,0-.4,0-.61.3-7.81,3.83-13.32,10.49-16.37,1.97-.9,4.14-1.36,6.44-1.36,5.37,0,10.53,2.53,13.47,6.6,2.57,3.56,3.78,7.56,3.69,12.24-.03,1.54.76,2.55,2,2.57h.05Z"/>
</svg>