<?xml version="1.0" encoding="UTF-8"?>
<svg id="Layer_1" xmlns="http://www.w3.org/2000/svg" viewBox="0 0 150 150">
  <defs>
    <style>
      .cls-1 {
        fill: #085e92;
      }
    </style>
  </defs>
  <path class="cls-1" d="M64.81,134.53c-22.16,0-41.74-14.98-47.62-36.43-3.59-13.12-1.48-27.33,5.79-38.98,7.29-11.67,19.16-19.82,32.56-22.36,3.11-.59,6.24-.89,9.33-.89,4.91,0,9.86.76,14.73,2.26,1.83.56,2.64,1.76,2.22,3.27-.31,1.11-1.17,1.73-2.42,1.73-.38,0-.79-.06-1.21-.17-4.75-1.27-9.37-1.92-13.74-1.92-6.37,0-12.47,1.37-18.14,4.08-14.25,6.8-22.67,17.98-25.04,33.24-3.7,23.91,12.09,46.05,35.97,50.39,2.45.45,4.97.67,7.48.67,16.07,0,31.34-9.08,38.91-23.14,3.65-6.77,5.39-13.77,5.34-21.39-.02-5.54-.92-10.44-2.76-14.98-.38-.94-.43-1.83-.13-2.5.22-.51.64-.9,1.21-1.11.32-.12.66-.19,1.01-.19,1.26,0,2.4.81,2.86,2.02,4.77,12.8,3.89,27.2-2.41,39.52-6.31,12.32-17.49,21.47-30.67,25.08-4.35,1.19-8.81,1.8-13.27,1.8ZM68.38,86.49c.3-.93.76-1.74,1.3-2.29,2.55-2.56,5.1-5.12,7.66-7.67,4.76-4.74,9.68-9.65,14.42-14.56,1.55-1.61,3.02-2.33,4.76-2.33.65,0,1.35.1,2.13.3,2.92.75,5.91,1.3,9.08,1.88,1.34.25,2.71.5,4.13.77.14-.09.31-.18.48-.28.55-.31,1.24-.69,1.75-1.19,3.29-3.24,6.56-6.5,9.83-9.76,3.13-3.12,6.26-6.24,9.41-9.35.91-.89,1.4-1.67,1.08-2.77-.32-1.09-1.06-1.65-2.46-1.87-2.62-.4-5.24-.85-7.86-1.29-2.25-.38-4.5-.76-6.75-1.12-1.41-.22-2.08-.87-2.29-2.24-.89-5.79-1.69-10.52-2.53-14.91-.14-.72-.74-1.6-1.38-1.99-.41-.25-.79-.37-1.19-.37-.73,0-1.49.42-2.39,1.32-5.82,5.86-12.43,12.51-18.97,18.93-1.02,1-1.32,2.02-1.02,3.49.92,4.57,1.97,9.76,2.87,14.86.15.82-.11,2.12-.77,2.8-8.31,8.42-16.58,16.66-23.58,23.61-.54.53-1.33.96-2.07,1.1-2.14.42-3.62,2.09-3.61,4.05.01,1.98,1.5,3.66,3.46,3.9.17.02.34.03.51.03,1.81,0,3.37-1.21,3.97-3.08ZM115.17,39.96c2.6.45,5.2.94,7.91,1.45l3.2.6-1.03,1.17c-.27.31-.48.55-.71.78l-3.58,3.58c-2.74,2.73-5.48,5.47-8.18,8.23-.68.7-1.35,1.01-2.16,1.01-.25,0-.51-.03-.8-.09-2.14-.45-4.3-.85-6.57-1.27l-3.72-.7,3.4-3.4c3.68-3.68,7.24-7.24,10.81-10.79.29-.29.8-.59,1.26-.59h.17ZM108.54,23.86l.56,3.11c.45,2.46.89,4.87,1.27,7.28.1.65-.11,1.65-.64,2.19-3.59,3.67-7.24,7.3-10.87,10.92l-1.98,1.98c-.12.12-.26.19-.42.27l-.26.14-.57.32-.66-3.01c-.55-2.52-1.1-5.01-1.6-7.51-.11-.53.04-1.33.47-1.76,3.99-4.01,8.02-8,12.04-11.99l1.58-1.56.22-.14.86-.25ZM87.99,108.24c6.22-6.24,9.62-14.55,9.59-23.37-.02-.34-.02-.7-.02-1.06,0-.8,0-1.63-.19-2.4-.8-3.23-1.61-6.39-2.7-9.43-.37-1.03-1.15-1.62-2.14-1.62-.31,0-.63.06-.95.18-1.32.48-2.01,1.93-1.65,3.44.05.2.13.39.21.58.1.22.19.44.25.67.19.7.41,1.4.62,2.1.5,1.61,1.02,3.27,1.18,4.96,1.44,15.11-8.29,27.75-23.13,30.07-1.68.26-3.34.4-4.95.4-8.65,0-16.08-3.92-21.48-11.33-6.54-8.97-7.3-18.99-2.19-28.96,4.69-9.15,14.01-14.84,24.33-14.84,3.87,0,7.67.84,10.99,2.42.45.22.92.33,1.4.33,1.03,0,1.9-.53,2.3-1.38.58-1.25-.04-2.54-1.62-3.36-.43-.23-.88-.43-1.34-.62-3.48-1.43-7.29-2.16-11.3-2.16-1.25,0-2.54.07-3.84.21-9.03.96-17,5.35-22.43,12.37-5.47,7.07-7.74,15.96-6.38,25.04,2.1,14.08,14.4,25.82,28.63,27.31,1.16.12,2.33.18,3.49.18,8.8,0,17.08-3.45,23.32-9.71ZM77.52,94.09c2.08-2.85,3.1-5.97,3.03-9.29-.03-1.52-1.12-2.72-2.68-2.81-1.25,0-2.2,1-2.42,2.55-.03.21-.03.42-.04.63v.33c-.27,5.96-4.79,10.28-10.76,10.28h-.21c-5.36-.09-10.02-4.7-10.17-10.05-.17-6.09,4.1-10.75,10.16-11.08,1.13-.06,2.06-.44,2.62-1.07.44-.5.65-1.14.61-1.88-.1-1.78-1.14-2.61-3.25-2.61h-.23c-8.31.24-15.07,7.26-15.07,15.66,0,6.82,4.42,12.86,10.99,15.05,1.52.51,3.12.76,4.74.76,4.98,0,9.73-2.42,12.7-6.47Z"/>
</svg>