<?xml version="1.0" encoding="UTF-8"?>
<svg id="Layer_1" xmlns="http://www.w3.org/2000/svg" viewBox="0 0 80 80">
  <defs>
    <style>
      .cls-1 {
        fill: #ea7000;
      }
    </style>
  </defs>
  <path class="cls-1" d="M26.16,65.21c-.93,2.39-1.53,2.81-3.92,2.82-1.98,0-3.97.01-5.95,0-2.32-.02-3.37-1.09-3.37-3.44,0-4.9.06-9.79-.03-14.69-.04-1.81,1.17-3.44,3.37-3.34,2.11.1,4.22.02,6.33.02,2.05,0,2.78.55,3.4,2.5.04.12.1.23.21.46,1.64,0,3.33.12,5-.03,2.22-.2,4.14.34,5.86,1.75.75.61,1.63,1.06,2.41,1.63.63.47,1.23.55,2,.37,6.65-1.57,13.32-3.03,19.96-4.66,2.04-.5,3.45.11,4.62,1.67,1.64,2.21,1.28,2.28-.66,3.4-7.6,4.4-15.18,8.81-22.75,13.25-.8.47-1.51.59-2.39.33-1.74-.51-3.53-.86-5.25-1.42-2.9-.95-5.84-.5-8.82-.62ZM64.84,51.81c-1.08-1.62-1.4-1.77-3.09-1.38-5.92,1.36-11.85,2.73-17.77,4.1-.39.09-.76.23-1.21.37,1.3,1.25,1.47,1.1.49,2.97-.06.11-.13.22-.2.32-.98,1.48-1.95,1.87-3.67,1.44-1.43-.36-2.86-.73-4.29-1.1-.78-.2-1.56-.38-2.33-.61-.53-.16-.92-.51-.77-1.12.15-.62.64-.73,1.2-.63.29.05.58.13.86.2,1.88.48,3.76.97,5.64,1.45,1.24.32,1.55.12,1.96-1.29-2.51-1.65-5.04-3.33-7.59-4.97-.29-.19-.72-.21-1.09-.21-1.98-.02-3.97-.01-5.95,0-.32,0-.64.07-.94.11v11.84c.31.02.51.07.72.05,4.15-.35,8.14.41,12.07,1.66.4.13.83.17,1.22.32.79.31,1.44.11,2.14-.3,7.22-4.22,14.45-8.41,21.68-12.61.29-.17.56-.36.91-.6ZM24.11,57.36c0-2.49.01-4.98,0-7.47,0-1.28-.23-1.51-1.45-1.52-2.15-.02-4.3-.02-6.45,0-1.19.01-1.46.28-1.46,1.53-.01,4.89-.01,9.79,0,14.68,0,1.34.22,1.56,1.53,1.57,2.11.01,4.22.01,6.33,0,1.31,0,1.5-.21,1.51-1.58.01-2.4,0-4.81,0-7.21Z"/>
  <path class="cls-1" d="M26.03,29.69c-.05-7.63,6.21-13.95,13.88-13.99,7.76-.04,14,6.22,14.06,14.1.05,7.51-6.24,13.85-13.84,13.93-7.75.08-14.04-6.18-14.1-14.04ZM40.05,17.55c-6.35-.07-12.06,4.96-12.2,11.72-.14,7.12,5.17,12.57,12.09,12.59,6.71.02,12.21-5.35,12.24-11.96.03-6.84-5.36-12.32-12.12-12.35Z"/>
  <path class="cls-1" d="M66.2,30.61c-.12,1.26-.19,2.39-.33,3.51-.4,3.3-1.41,6.33-3.89,8.71-2.24,2.15-4.97,3.35-7.96,3.89-2.27.41-4.6.49-6.91.7-.25.02-.56.06-.74-.06-.29-.18-.67-.48-.7-.75-.03-.28.25-.71.52-.88.34-.22.8-.24,1.2-.35,6.68-1.79,11.06-7.13,11.24-14.77-.78,0-1.57-.01-2.35,0-.55.01-1.12-.07-1.2-.65-.05-.37.2-.89.48-1.18,1.94-2,3.91-3.96,5.89-5.92.84-.83,1.13-.82,2,.04,1.95,1.93,3.88,3.87,5.81,5.82.35.35.78.7.52,1.3-.25.57-.76.59-1.28.59-.75,0-1.5,0-2.3,0ZM62.26,24.64c-1.24,1.25-2.58,2.6-4.08,4.11.5.04.71.06.91.07,1.25.08,1.46.26,1.42,1.53-.03.92-.1,1.85-.24,2.77-.67,4.62-2.72,8.46-6.55,11.25-.19.14-.43.21-.64.31.08.08.16.16.24.23,4.75-.39,8.65-3.47,10.08-7.94.63-1.98.87-4.03.92-6.1.04-1.59-.23-2.08,1.92-2.09.05,0,.11-.1.15-.14-1.35-1.31-2.7-2.62-4.13-4.01Z"/>
  <path class="cls-1" d="M13.78,28.82c.13-1.35.21-2.56.36-3.76.3-2.32.92-4.54,2.24-6.52,2.07-3.09,5.1-4.7,8.57-5.63,2.58-.69,5.23-.87,7.9-.94.17,0,.34,0,.51,0,.52.04.91.28.99.81.09.55-.28.86-.75,1.02-.4.13-.82.19-1.23.3-6.1,1.7-10.87,6.73-11,14.68.56.01,1.13.03,1.7.04.38,0,.77-.03,1.14.04.76.15,1,.78.57,1.42-.12.17-.27.32-.42.47-1.94,1.94-3.87,3.89-5.82,5.81-.86.85-1.09.84-1.98-.04-1.92-1.9-3.82-3.81-5.72-5.73-.37-.38-.91-.73-.63-1.39.29-.69.95-.59,1.53-.59.66,0,1.33,0,2.04,0ZM13.56,30.71c1.41,1.4,2.75,2.72,4.16,4.11,1.29-1.3,2.62-2.64,3.96-3.99-.4-.22-.65-.21-.9-.22-1.04-.07-1.3-.28-1.29-1.28.09-5.64,1.89-10.49,6.48-14.06.25-.19.47-.43.71-.64-.03-.08-.07-.15-.1-.23-.92.25-1.86.46-2.75.77-3.8,1.34-6.43,3.84-7.37,7.83-.41,1.75-.62,3.57-.75,5.37-.15,2.11-.06,2.11-2.15,2.34Z"/>
  <path class="cls-1" d="M22.24,53.15c-.03,1.49-1.44,2.8-2.92,2.73-1.47-.07-2.65-1.35-2.63-2.86.02-1.5,1.25-2.7,2.76-2.7,1.54,0,2.82,1.3,2.79,2.83ZM20.37,53.13c.03-.52-.38-.96-.91-.97-.53-.01-.99.41-.96.92.03.52.32.84.85.9.53.06.99-.34,1.02-.85Z"/>
  <path class="cls-1" d="M39.07,23.12c0-.59-.02-1.13,0-1.66.03-.57.29-.99.92-.99.63,0,.89.42.93.99.03.54,0,1.08,0,1.67.6.06,1.06.09,1.51.16,1.83.28,3.06,1.58,3.13,3.28.02.61-.1,1.14-.8,1.22-.61.06-.85-.35-.99-.92-.34-1.43-.81-1.8-2.28-1.82-1.14-.01-2.28-.05-3.42.02-1.35.08-2.08,1.09-1.8,2.34.19.85.77,1.32,1.87,1.4.84.06,1.69.02,2.53.03.46,0,.93-.02,1.39.01,2.12.15,3.46,1.54,3.5,3.59.04,2.11-1.3,3.57-3.45,3.77-.33.03-.66.04-1.18.06,0,.59.01,1.12,0,1.66-.02.56-.25.99-.87,1.06-.54.06-.93-.35-.98-1.07-.04-.5,0-1,0-1.6-.54-.05-.99-.08-1.44-.14-1.81-.24-3.07-1.54-3.18-3.24-.04-.59.04-1.16.74-1.25.69-.1.92.37,1.05.98.27,1.29.78,1.72,2.07,1.75,1.14.03,2.28.04,3.42,0,1.35-.06,2.07-.76,2.05-1.91-.02-1.13-.78-1.83-2.1-1.87-1.22-.03-2.45.03-3.67-.03-2.2-.1-3.6-1.61-3.56-3.79.03-1.92,1.2-3.25,3.12-3.54.45-.07.91-.09,1.51-.15Z"/>
</svg>