<?xml version="1.0" encoding="UTF-8"?>
<svg id="Layer_1" xmlns="http://www.w3.org/2000/svg" viewBox="0 0 80 80">
  <defs>
    <style>
      .cls-1 {
        fill: #ea7000;
      }
    </style>
  </defs>
  <path class="cls-1" d="M26.42,64.61c-3.03,0-6.06,0-9.09-.01-3.18-.01-4.86-1.71-4.86-4.9-.02-14.16-.01-28.32,0-42.48,0-3.06,1.67-4.74,4.69-4.75,7.01-.01,14.03-.02,21.04-.02s14.49,0,21.73.02c2.87,0,4.61,1.63,4.63,4.36.05,5.54.04,11.17.03,16.62v5.81s-.04.12-.07.23l-2.49-1.79v-7.05c0-4.35,0-8.69,0-13.03,0-2.11-.44-2.57-2.49-2.57-7.01,0-14.01,0-21.02,0s-14.01,0-21.02,0c-2,0-2.46.46-2.47,2.43,0,14.01,0,28.02,0,42.04,0,2.08.43,2.5,2.54,2.5,2.73,0,18.42,0,18.42,0h1.7l1.79,2.49s-.07,0-.1.01c-.31.04-.56.08-.81.08,0,0-9.05.01-12.15.01ZM53.1,67.56c7.78,0,14.39-6.48,14.45-14.14.03-3.95-1.47-7.64-4.21-10.41-2.71-2.73-6.34-4.24-10.21-4.24-7.91,0-14.35,6.3-14.37,14.04-.02,8.24,6.26,14.72,14.29,14.76h.06ZM56.22,56.63c2.35,1.23,3.25,3.28,2.9,6.66v.15s-.14.07-.14.07c-1.92,1.01-3.89,1.52-5.84,1.52h0c-1.88,0-3.81-.47-5.74-1.41l-.13-.06-.02-.14c-.34-2.18-.36-4.63,1.99-6.29,1.24-.88,2.54-1.32,3.86-1.32,1.03,0,2.09.28,3.13.82ZM49.54,45.91c-2.34,1.93-2.58,4.35-.81,8.09l.09.19-.16.14c-.31.27-.58.5-.83.71-1.62,1.36-2.17,1.82-3.45,5.28l-.14.38-.3-.28c-1.62-1.51-2.67-4.19-2.74-6.99-.08-3.22,1.11-6.26,3.36-8.57,2.27-2.34,5.31-3.63,8.56-3.63s6.31,1.3,8.58,3.67c2.16,2.26,3.39,5.59,3.27,8.91-.1,2.79-1.11,5.21-2.85,6.79l-.38.35-.07-.51c-.35-2.47-1.67-4.43-4.06-6l-.19-.12.09-.21c1.73-4.04,1.42-6.55-1.02-8.39-.98-.74-2.13-1.13-3.34-1.13-1.29,0-2.58.47-3.61,1.32ZM53.19,47.12c1.7.04,3.11,1.48,3.08,3.16-.03,1.62-1.51,3.05-3.19,3.05-1.73-.01-3.03-1.37-3.02-3.15,0-1.71,1.35-3.05,3.06-3.05h.07ZM41.18,38.24l.17-2.73.84-.06c.4-.03.76-.05,1.12-.09,2.09-.23,3.72-1.94,3.78-3.98.06-2.14-1.49-3.97-3.62-4.25-.64-.09-1.31-.09-1.96-.09-.22,0-.45,0-.67,0-.47,0-.94-.01-1.4-.01-.82,0-1.64,0-2.46-.05-.95-.05-1.55-.7-1.51-1.66.04-.95.63-1.54,1.59-1.58.45-.02.9-.02,1.35-.02h5.64v-2.43l-2.68-.13-.19-2.75h-2.37v2.75h-.26c-.21.02-.4.02-.58.03-.35,0-.63,0-.89.06l-.28.05c-.56.1-1.15.2-1.64.43-1.64.77-2.5,2.54-2.15,4.4.37,1.96,1.79,3.25,3.72,3.38,1.01.07,2,.08,2.76.08.43,0,2.86-.01,2.86-.01.67,0,2.08,0,2.17,1.62.03.46-.09.83-.35,1.11-.35.37-.93.55-1.77.56-1.09,0-2.18,0-3.27,0,0,0-3.92,0-4.75,0-.35,0-.69.03-1.06.06-.1,0-.2.02-.3.03v2.43h5.69l.15,2.85h2.36ZM37.79,44.1l1.66-2.33h-15.19v2.33h13.52ZM35.36,52.83l.19-2.31h-11.32v2.31h11.14Z"/>
</svg>