<?xml version="1.0" encoding="UTF-8"?>
<svg id="Layer_1" xmlns="http://www.w3.org/2000/svg" viewBox="0 0 80 80">
  <defs>
    <style>
      .cls-1 {
        fill: #ea7000;
      }
    </style>
  </defs>
  <path class="cls-1" d="M43.27,46.62c1.22,0,2.44,0,3.67,0,2.25.02,3.12.79,3.14,2.98.04,4.94.04,9.89,0,14.83-.02,2.02-.83,2.77-2.83,2.78-4.99.01-9.99.01-14.98,0-2.06,0-2.87-.8-2.88-2.89-.03-4.9-.02-9.79,0-14.69,0-2.12.89-2.97,2.98-3.01.67-.01,1.34,0,2.02,0,.67,0,1.34,0,2.3,0-.54-.39-.86-.64-1.19-.86-4.72-3.13-9.44-6.26-14.17-9.37-.67-.44-1.16-.89-1.24-1.79-.79-8.78,4.27-17.28,12.48-20.39,14.27-5.41,27.54,5.25,27.48,18.47-.02,3.5.08,2.8-2.33,4.36-4.63,3-9.29,5.96-13.94,8.94-.19.12-.36.27-.53.4.02.08.03.16.05.24ZM34.04,34.01c4.17-1.1,8.29-.81,12.37-.05,2.03-7.12-.17-15.59-6.4-19.12-6.57,4.04-8.72,11.38-5.97,19.16ZM48.2,54.15c-1.9-.04-3.68-.13-5.26.03-.75,1.31.38,2.89-1.26,3.77-.66-.5-1.3-.97-1.96-1.47-.64.52-1.23.99-1.84,1.48-1.8-.86-.46-2.65-1.29-3.75h-5.3v10.94c1.43.46,15.67.42,16.91-.04v-10.97ZM43.26,14.99c5.47,5.35,6.34,11.75,5.16,18.81,3.31-.67,6.45-.68,9.55.08,1.6-8.65-6.42-18.11-14.71-18.9ZM36.79,14.96c-9.1,1.09-16.42,11.19-14.69,18.88,3.22-.78,6.48-.75,9.88-.1-1.85-7.18-.88-13.47,4.81-18.78ZM39.8,45.7c2.08-3.44,4-6.62,6.05-10-3.86-.82-7.44-.97-11.24,0,1.76,3.39,3.39,6.53,5.2,9.99ZM36.93,44.59c.04-.32.08-.43.05-.49-1.3-2.51-2.56-5.04-3.94-7.51-.26-.47-.91-.92-1.44-.99-1.98-.27-3.98-.41-5.98-.51-.7-.03-1.41.2-2.12.31,0,.11,0,.22,0,.34,4.45,2.94,8.89,5.87,13.43,8.86ZM56.49,35.72c0-.1-.02-.21-.02-.31-2.41-.54-4.81-.39-7.23.07-.96.18-1.62.63-2.12,1.5-1.27,2.2-2.62,4.34-3.93,6.52-.15.25-.25.53-.51,1.11,4.82-3.1,9.32-5.99,13.82-8.88ZM31.28,52.19h5.46v-3.64h-5.46v3.64ZM48.18,52.22v-3.67h-5.43v3.67h5.43ZM38.75,48.51v5.94c.73.05,1.36.1,1.97.14v-6.08h-1.97Z"/>
</svg>