<?xml version="1.0" encoding="UTF-8"?>
<svg id="Layer_1" xmlns="http://www.w3.org/2000/svg" viewBox="0 0 80 80">
  <defs>
    <style>
      .cls-1 {
        fill: #ea7000;
      }
    </style>
  </defs>
  <path class="cls-1" d="M40.01,68.18c-.42,0-.91-.43-1.74-1.28-.73-.75-1.48-1.47-2.21-2.18l-1.14-1.11-1.33,1.24c-.87.81-1.74,1.62-2.59,2.45-.62.6-1.01.85-1.34.85s-.72-.25-1.33-.85c-.83-.81-1.67-1.61-2.55-2.45l-1.42-1.35-.81.81c-.45.46-.93.94-1.41,1.43-.21.21-.41.43-.61.66-.44.49-.86.94-1.35,1.32-.25.19-.66.33-.99.33-.11,0-.2-.01-.27-.04-.26-.11-.49-.64-.66-1.03l-.06-.13c-.06-.13-.04-.33-.03-.54,0-.11.02-.22.02-.32V14.04c0-2.01.21-2.22,2.2-2.22h39.29c1.87,0,2.11.23,2.11,2.05v52.31c0,.07,0,.15.01.22,0,.09.02.22,0,.26-.07.13-.14.27-.2.42-.18.39-.38.83-.64.95-.02.01-.08.03-.17.03-.33,0-.84-.2-1.11-.44-.82-.73-1.59-1.55-2.34-2.35l-.65-.69c-.18-.19-.35-.41-.51-.63-.08-.11-.17-.22-.25-.33l-.19-.24-1.54,1.49c-.9.87-1.74,1.68-2.57,2.5-.58.57-.96.8-1.28.8s-.7-.24-1.3-.81c-.86-.84-1.73-1.67-2.61-2.5l-1.33-1.27-1.12,1.09c-.73.71-1.48,1.44-2.21,2.19-.85.88-1.35,1.32-1.78,1.32ZM45.2,60.64c.46,0,1.05.61,2.12,1.73.65.68,1.29,1.32,1.95,1.97l1.11,1.11.89-.9c.46-.47.89-.9,1.32-1.34.24-.24.47-.49.7-.73.39-.41.77-.81,1.17-1.2.44-.43.77-.63,1.06-.63s.62.19,1.06.62c.53.51,1.06,1.03,1.64,1.6l1.25,1.22V14.16H20.56v49.93l1.17-1.14c.43-.42.82-.79,1.2-1.18.77-.78,1.2-1.15,1.55-1.15s.8.38,1.6,1.18c.77.77,1.54,1.54,2.29,2.3l1.21,1.21,1.35-1.29c.82-.79,1.63-1.56,2.42-2.35.65-.65,1.1-1.03,1.47-1.03s.8.36,1.44.99c.82.81,1.68,1.6,2.52,2.37.37.34,1.3,1.2,1.3,1.2l1.01-.96c.65-.61,1.33-1.25,1.99-1.92,1.08-1.09,1.67-1.68,2.12-1.68Z"/>
  <path class="cls-1" d="M49.16,49.59c-.91-.06-.98-.64-1.03-1.65,0-.19-.02-.37-.04-.55l-.02-.17-.66-.23c-.36-.12-.72-.25-1.07-.39-1.94-.81-3.1-2.1-3.53-3.93-.23-1,.05-1.7.75-1.87.11-.03.22-.04.32-.04.33,0,.8.14,1.07,1.38.33,1.52,1.51,2.13,2.73,2.55l.37.13v-6.09l-.2-.06c-3.62-1.07-5.19-2.78-5.07-5.55.1-2.51,1.66-4.06,5.06-5.05l.18-.05.02-.18c.25-2.02.57-2.26,1.18-2.29h0c.63,0,.92.22,1.26,2.14l.02.14.13.06c.32.16.64.31.96.46.7.33,1.36.63,1.98,1.02,1.3.83,2.04,2.01,2.19,3.52.05.51-.04.93-.26,1.2-.16.19-.38.3-.66.32-.05,0-.1,0-.15,0-.62,0-.96-.34-1.13-1.15-.35-1.61-1.08-2.33-2.76-2.72l-.34-.08v5.95l.19.06c2.68.87,5.15,2.13,5.1,5.41-.05,3.23-2.48,4.43-5.09,5.25l-.15.05-.04.16c-.05.24-.08.51-.1.78-.08.95-.17,1.48-1.05,1.48-.05,0-.11,0-.17,0ZM50.5,44.71l.36-.11c1.85-.55,2.81-1.61,2.71-2.98-.1-1.28-1.2-2.31-2.74-2.56l-.32-.05v5.71ZM47.75,30.53c-1.73.44-2.86,1.61-2.8,2.91.06,1.32,1.28,2.44,2.84,2.61l.31.03v-5.65l-.35.09Z"/>
  <path class="cls-1" d="M31.74,38.7c-1.99,0-3.98,0-5.97,0-1.52,0-1.54-.82-1.55-1.08,0-.31.08-.57.26-.76.26-.27.72-.41,1.33-.42.83,0,1.66,0,2.5,0h3.63s3.52,0,3.52,0c.83,0,1.66,0,2.48.01.59,0,1.05.16,1.31.43.18.2.27.45.25.77-.02.45-.21,1.05-1.58,1.06-2.06,0-4.11,0-6.17,0Z"/>
  <path class="cls-1" d="M25.8,32.37c-.11,0-.22,0-.33-.01-.81-.07-1.29-.5-1.25-1.12.04-.71.44-1.07,1.17-1.08,2.27,0,4.55-.02,6.82-.02,2.01,0,4.02,0,6.03.02.42,0,.77.14,1,.38.18.19.26.45.24.72-.06.73-.48,1.09-1.3,1.1-.88,0-6.37,0-6.37,0h-.28s-5.74,0-5.74,0Z"/>
  <path class="cls-1" d="M25.81,26.01c-.62,0-1.09-.14-1.34-.41-.17-.18-.25-.43-.24-.73,0-.26.04-1.06,1.57-1.07,1.94,0,3.89,0,5.83,0,2.18,0,4.35,0,6.53.02.48,0,.88.15,1.11.41.17.19.25.44.22.72-.07.73-.49,1.08-1.32,1.08h-9.95c-.8,0-1.61,0-2.41,0Z"/>
  <path class="cls-1" d="M28.25,51.33c-.84,0-1.68,0-2.53,0-.58,0-1.01-.14-1.26-.39-.17-.17-.25-.41-.25-.71.02-.93.91-1.07,1.44-1.07,2.04,0,4.07-.01,6.11-.01s4.19,0,6.28.01c.53,0,1.42.14,1.45,1.07,0,.29-.07.52-.24.7-.25.26-.68.4-1.26.4-.84,0-1.68,0-2.53,0h-7.22Z"/>
  <path class="cls-1" d="M28.26,44.97c-.84,0-1.68,0-2.53,0-.6,0-1.03-.13-1.27-.38-.17-.17-.25-.4-.24-.71.01-.96.97-1.1,1.54-1.11,1.82,0,3.64,0,5.46,0h6.83c.14,0,.29,0,.43.03.7.14,1.04.53,1.01,1.15-.04.82-.62,1-1.1,1-.93,0-1.86,0-2.79,0h-4s0,0,0,0h-3.33Z"/>
</svg>