<?xml version="1.0" encoding="UTF-8"?>
<svg id="Layer_1" xmlns="http://www.w3.org/2000/svg" viewBox="0 0 80 80">
  <defs>
    <style>
      .cls-1 {
        fill: #ea7000;
      }
    </style>
  </defs>
  <path class="cls-1" d="M53.74,66.97c-1.63-.04-3.14-.71-4.25-1.89-1.12-1.19-1.71-2.75-1.65-4.4.11-3.17,2.88-5.85,6.05-5.85h.21c3.27.13,5.99,2.97,5.94,6.21-.06,3.27-2.81,5.93-6.13,5.93h-.16ZM53.92,57.51c-1.89,0-3.39,1.46-3.42,3.33-.03,1.89,1.42,3.41,3.29,3.47h.11c1.85,0,3.35-1.42,3.41-3.24.03-.97-.3-1.87-.95-2.54-.63-.66-1.49-1.02-2.43-1.02h-.02ZM33.35,66.97c-1.63-.04-3.14-.71-4.25-1.89-1.12-1.19-1.71-2.75-1.65-4.4.11-3.17,2.88-5.85,6.05-5.85h.21c3.27.13,5.99,2.97,5.94,6.21-.06,3.27-2.81,5.93-6.13,5.93h-.16ZM33.54,57.51c-1.89,0-3.39,1.46-3.42,3.33-.03,1.89,1.42,3.41,3.29,3.47h.11c1.85,0,3.35-1.42,3.41-3.24.03-.97-.3-1.87-.95-2.54-.63-.66-1.49-1.02-2.43-1.02h-.02ZM24.02,52.57c-1.15-.06-1.61-.52-1.63-1.63-.04-2.15-.04-4.39,0-6.64.02-.95.32-1.3,1.35-1.57.29-.08.58-.14.95-.22l.93-.21-.1-.32c-1.48-4.84-2.98-9.64-4.5-14.47-1.19-3.79-2.38-7.58-3.56-11.41l-.07-.22h-5.77c-.17.01-.35,0-.52-.01-.79-.09-1.33-.64-1.35-1.39-.01-.73.5-1.29,1.31-1.42.15-.03.31-.03.46-.03h3.88c.75,0,1.5,0,2.25,0,1.56.01,1.8.19,2.3,1.75.27.83.54,1.66.82,2.51l.36,1.09h25.04c7.18.01,14.37,0,21.55-.03,1.2,0,1.93.22,2.26.67.33.45.32,1.2-.03,2.35-1.73,5.61-3.32,11.27-4.79,16.55-.34,1.23-.96,1.76-2.27,1.94-10.4,1.44-20.79,2.92-31.19,4.41l-3.46.49c-.57.08-1.14.2-1.75.33-.29.06-1.17.24-1.17.24v4.31l.84.04c.41.02.81.05,1.2.05,11.27,0,22.53,0,33.8,0h.77c.19,0,.38,0,.57.01.98.07,1.6.6,1.61,1.4,0,.82-.57,1.35-1.56,1.42H24.02ZM28.49,41.9l4.89-.72-.9-8.04h-6.77l2.78,8.76ZM36.15,40.8l6.83-.99v-6.66h-7.62l.79,7.65ZM45.99,39.42l7.54-1.08.54-5.17h-8.08v6.25ZM56.45,37.88l6.08-.83,1.07-3.89h-6.66l-.48,4.72ZM46.04,30.16h8.35l.96-8.9h-9.31v8.9ZM35.04,30.14h7.92v-8.84h-8.89l.97,8.84ZM57.27,30.13h7.19l2.59-8.87h-8.85l-.93,8.87ZM24.78,30.12h7.39l-.94-8.84h-9.22l2.77,8.84Z"/>
</svg>