<?xml version="1.0" encoding="UTF-8"?>
<svg id="Layer_1" xmlns="http://www.w3.org/2000/svg" viewBox="0 0 80 80">
  <defs>
    <style>
      .cls-1 {
        fill: #ea7000;
      }
    </style>
  </defs>
  <path class="cls-1" d="M40.05,12.42c8.34,0,16.68,0,25.01,0,.43,0,.87,0,1.29.05.69.07,1.09.49,1.17,1.17.05.43.04.86.04,1.29,0,16.72,0,33.44,0,50.16,0,.3.01.61,0,.91-.07,1.14-.44,1.5-1.62,1.57-.3.02-.6,0-.91,0-16.68,0-33.35,0-50.03,0-.39,0-.78,0-1.17-.02-.87-.05-1.34-.52-1.39-1.39-.02-.39-.02-.78-.02-1.17,0-16.68,0-33.35,0-50.03,0-.35-.01-.69.01-1.04.08-1.06.45-1.43,1.55-1.5.39-.03.78-.01,1.17-.01,8.29,0,16.59,0,24.88,0ZM15.24,15.21v49.57h49.55V15.21H15.24ZM57.02,26.94h0c0-.77-.62-1.39-1.39-1.39h-31.3c-.77,0-1.39.62-1.39,1.39h0c0,.77.62,1.39,1.39,1.39h31.3c.77,0,1.39-.62,1.39-1.39ZM57.02,40.01h0c0-.77-.62-1.39-1.39-1.39h-31.3c-.77,0-1.39.62-1.39,1.39h0c0,.77.62,1.39,1.39,1.39h31.3c.77,0,1.39-.62,1.39-1.39ZM57.02,53.1h0c0-.77-.62-1.39-1.39-1.39h-31.3c-.77,0-1.39.62-1.39,1.39h0c0,.77.62,1.39,1.39,1.39h31.3c.77,0,1.39-.62,1.39-1.39Z"/>
</svg>