<?xml version="1.0" encoding="UTF-8"?>
<svg id="Layer_1" xmlns="http://www.w3.org/2000/svg" viewBox="0 0 50 50">
  <defs>
    <style>
      .cls-1 {
        fill: #fff;
      }
    </style>
  </defs>
  <path class="cls-1" d="M18.16,40.5c-2.07-.05-3.51-1.16-4.41-3.39l-.13-.31h-1.49c-.21,0-.42,0-.63,0-2.16-.05-3.83-1.69-3.89-3.8-.05-1.91-.03-3.86-.01-5.74v-.28c0-.67.38-1.08.97-1.09.59,0,1,.43,1.01,1.06.03,1.18.02,2.36.02,3.54,0,.65,0,1.25,0,1.84,0,1.8.68,2.47,2.5,2.48h1.53l.13-.31c.94-2.28,2.42-3.39,4.55-3.39,2.19.03,3.63,1.09,4.54,3.34l.13.31h8.7l.04-.74c.01-.21.03-.42.03-.63,0-6.44,0-12.89,0-19.33,0-1.85-.69-2.53-2.56-2.54h-3.94c-.07,0-.14,0-.21,0-.61-.05-1.01-.43-1.02-.98,0-.57.39-.98.96-.99h.33c.82-.02,1.64-.04,2.46-.04s1.58.01,2.37.05c1.73.09,3.23,1.49,3.5,3.26.07.46.08.95.09,1.42.01.54.01,1,0,1.5v1.22s2.3.02,2.64.02c.43,0,.85,0,1.27-.03.1,0,.2,0,.3,0,1.71,0,3.02.75,3.98,2.29.9,1.43,1.85,2.83,2.77,4.19l.89,1.32c.84,1.25,1.24,2.59,1.23,4.09-.02,1.44-.01,2.89,0,4.33v2.09c0,1.33-.23,1.56-1.52,1.57h-2.96s-.13.31-.13.31c-.94,2.28-2.43,3.39-4.54,3.39h-.14c-2.06-.05-3.55-1.17-4.43-3.35l-.13-.31h-9.99l-.13.31c-.91,2.22-2.43,3.35-4.52,3.35h-.16ZM37.58,33.09c-1.47.03-2.66,1.25-2.66,2.72s1.19,2.69,2.66,2.72c1.53,0,2.77-1.22,2.78-2.72,0-1.47-1.24-2.72-2.72-2.72h-.06ZM18.29,33.09c-1.47,0-2.68,1.21-2.7,2.67-.02,1.47,1.15,2.7,2.61,2.76h0c1.53,0,2.79-1.2,2.82-2.67.01-.72-.27-1.41-.79-1.94-.52-.53-1.2-.82-1.93-.82h-.01ZM37.65,31.08c.45,0,.91.07,1.38.22,1.48.47,2.54,1.53,3.14,3.16l.12.33h2.39l.05-.44c.32-2.61.14-6.52-.36-7.6l-.13-.29h-10.42v6.27l.79-.55c1.04-.73,2.03-1.09,3.04-1.09ZM33.79,18.98v5.37h9.13l-1.22-1.84c-.63-.95-1.22-1.85-1.85-2.73-.26-.37-.79-.75-1.29-.78-.67-.03-1.34-.04-2.01-.04h-2.76ZM12.39,23.42c-.7,0-1.41,0-2.11-.01-.71,0-1.15-.39-1.15-1,0-.61.43-.97,1.18-.99.25,0,.51,0,.76,0h1.27s1.32,0,1.32,0c.27,0,.53,0,.8,0,.67.02,1.1.39,1.11.97,0,.27-.08.51-.25.69-.2.21-.51.32-.88.33-.69,0-1.37.01-2.06.01ZM9.31,17.47c-.69,0-1.37,0-2.06-.01-.36,0-.67-.13-.87-.36-.17-.2-.25-.46-.22-.74.06-.56.47-.88,1.13-.88.74,0,1.49,0,2.23,0h7.61c.55,0,.96.13,1.19.36.15.16.23.38.23.65,0,.24-.01.98-1.46.98h-7.78ZM4.41,11.52c-.1,0-.2,0-.29-.01-.55-.06-.94-.46-.94-.98,0-.52.38-.93.92-1,.08,0,.17-.01.25-.01h.34s15.34,0,15.34,0c.59,0,1.04.13,1.27.37.15.15.22.37.22.65,0,.27-.02.97-1.47.97H4.41Z"/>
</svg>