<?xml version="1.0" encoding="UTF-8"?>
<svg id="Layer_1" xmlns="http://www.w3.org/2000/svg" viewBox="0 0 50 50">
  <defs>
    <style>
      .cls-1 {
        fill: #fff;
      }
    </style>
  </defs>
  <path class="cls-1" d="M4.99,45.9c-.12,0-.23,0-.34-.02-.57-.07-.98-.54-.98-1.11,0-.59.42-1.03,1.01-1.08.17-.01.34-.02.52-.02l1.35.02v-27.65c0-1.76.51-2.54,2.11-3.2l6.54-2.69c4.62-1.9,9.25-3.8,13.87-5.71.54-.22,1.04-.33,1.52-.33.22,0,.43.02.64.07,1.24.25,2.08,1.4,2.08,2.85,0,2.19,0,4.38,0,6.57v4.09s8.51,0,8.51,0c1.93,0,3.04,1.13,3.04,3.08v22.7s.46.18.46.18c.13.05.24.09.35.15.49.26.73.75.61,1.25-.11.47-.52.8-1.04.85-.1,0-.21.01-.31.01H4.99ZM33.37,43.63h9.23v-23.67h-9.23v23.67ZM30.23,6.42c-.21.07-.39.12-.56.19l-5.54,2.28c-4.76,1.96-9.52,3.92-14.29,5.87-.78.32-1.08.76-1.08,1.58.02,6.58.02,13.16.02,19.74v6.34c0,.18,0,.36.02.54l.03.66h22.19V6.16l-.8.26ZM19.83,38.68c-1.11,0-2.22,0-3.33,0-.43,0-.77-.13-1-.36-.19-.2-.28-.46-.28-.78.02-.67.48-1.06,1.27-1.08.44,0,.87,0,1.31,0h4.18c.45,0,.9,0,1.35,0,.84,0,1.32.41,1.32,1.1,0,.33-.11.61-.32.8-.23.2-.57.31-.99.31-1.17,0-2.34,0-3.51,0ZM17.87,32.9c-.43,0-.87,0-1.3,0-.85,0-1.33-.4-1.34-1.09,0-.31.09-.58.28-.77.22-.23.57-.35,1.01-.35,1.14,0,2.28,0,3.42,0s2.28,0,3.42,0c.44,0,.79.13,1.01.36.19.19.28.46.28.77,0,.68-.5,1.08-1.34,1.09-.45,0-.89,0-1.34,0h-4.11ZM16.56,27.12c-.85-.01-1.33-.4-1.33-1.09,0-.31.09-.58.28-.77.22-.23.58-.35,1.02-.35,1.14,0,2.28,0,3.42,0s2.28,0,3.42,0c.44,0,.79.13,1.01.36.19.19.28.46.28.77-.01.69-.49,1.08-1.34,1.09h-1.24s-5.51,0-5.51,0ZM17.81,21.35c-.43,0-.86,0-1.29,0-.44,0-.79-.13-1.01-.36-.19-.19-.28-.46-.27-.77.01-.67.48-1.08,1.25-1.08,1.16,0,2.31,0,3.47,0s2.31,0,3.47.01c.77,0,1.23.41,1.24,1.09,0,.66-.47,1.1-1.21,1.12-.47,0-.93.01-1.4.01h-4.24Z"/>
</svg>