<?xml version="1.0" encoding="UTF-8"?>
<svg id="Layer_1" xmlns="http://www.w3.org/2000/svg" viewBox="0 0 50 50">
  <defs>
    <style>
      .cls-1 {
        fill: #fff;
      }
    </style>
  </defs>
  <path class="cls-1" d="M6.06,46.1c-2,0-2.14-.14-2.14-2.19v-4.65s.02,0,.02,0c0-.51,0-1.02-.01-1.53-.01-1.21-.03-2.47.03-3.7.06-1.38.96-2.3,2.23-2.3.37,0,.76.08,1.14.25.07.03.14.06.2.1.1.05.19.1.29.13l.5.16c.45.15.92.31,1.39.39.19.03.37.05.55.05,1.61,0,2.97-1.25,3.09-2.83.07-.89-.21-1.72-.79-2.35-.55-.6-1.32-.93-2.17-.93-.06,0-.13,0-.19,0-.84.05-1.68.34-2.5.61l-.35.12c-.4.13-.77.26-1.17.26-.21,0-.4-.03-.6-.1-.97-.33-1.5-.96-1.61-1.92-.04-.37-.05-.75-.05-1.12v-9.55c.03-1.38.31-1.66,1.66-1.66h3.64s5.93,0,5.93,0c.1,0,.2,0,.31,0,.34-.02.58-.05.65-.14.06-.09.01-.31-.1-.65l-.12-.37c-.23-.67-.46-1.37-.6-2.08-.42-2.23.41-4.25,2.23-5.4.82-.52,1.81-.8,2.81-.8,1.09,0,2.14.34,2.95.95,1.79,1.34,2.46,3.19,2,5.5-.13.65-.36,1.28-.59,1.89l-.05.13c-.16.44-.26.74-.19.84.07.11.4.12.89.13h9.43c1.67,0,1.91.23,1.91,1.86v9.2c0,.15,0,.3,0,.46.02.65.07.76.21.76.12,0,.32-.07.61-.19.92-.38,2.14-.81,3.47-.81h.1c1.41.02,2.71.59,3.65,1.6.95,1.02,1.43,2.37,1.35,3.81-.15,2.7-2.35,4.82-5.01,4.82-.2,0-.4-.01-.61-.04-.93-.12-1.85-.42-2.74-.71l-.16-.05c-.28-.09-.51-.16-.66-.16-.16,0-.23.07-.23.78,0,2.19,0,4.39,0,6.58v2.99c0,.22,0,.43,0,.65-.06.81-.37,1.11-1.2,1.2-.14.01-.28.02-.42.02h-4.92c-1.55,0-3.11,0-4.66,0-.38,0-.87-.01-1.34-.11-.64-.13-1.17-.51-1.5-1.06-.33-.55-.4-1.23-.21-1.86.05-.16.12-.32.19-.47.09-.19.17-.36.21-.55.05-.2.1-.41.15-.61.16-.64.33-1.31.33-1.96-.01-1.63-1.31-2.86-3.01-2.86-.1,0-.21,0-.32.01-.85.08-1.64.51-2.16,1.2-.51.66-.71,1.46-.57,2.26.12.7.35,1.47.74,2.4.38.94.38,1.81-.02,2.46-.4.65-1.13,1.03-2.12,1.12-.29.03-.57.03-.86.03h-5.61s-3.31,0-3.31,0ZM6.21,33.88c-.15,0-.21.07-.22.73,0,1.42,0,2.84,0,4.26,0,1.46,0,2.93,0,4.39,0,.31.05.5.16.62.1.1.28.16.54.16,1.07,0,2.13,0,3.18,0h2.12c1.16,0,2.31,0,3.47,0,.37,0,.56-.04.62-.13.08-.1.02-.34-.08-.69l-.18-.58c-.26-.79-.52-1.6-.62-2.43-.17-1.38.24-2.75,1.15-3.84.93-1.1,2.28-1.78,3.7-1.85.08,0,.17,0,.25,0,2.78,0,5.06,2.3,5.1,5.13.02,1.21-.33,2.3-.84,3.57-.15.37-.19.58-.12.67.06.1.26.14.63.14,1.25,0,2.49.01,3.74.01h2.04c1.03,0,2.07,0,3.1,0h0c.26,0,.42-.05.52-.15.1-.1.15-.28.14-.55-.01-1.11-.01-2.22,0-3.34v-1.42c0-.41.01-.82.02-1.24.02-.98.03-1.99-.03-2.98-.05-.72.18-1.38.64-1.88.45-.48,1.09-.76,1.76-.76.43,0,.85.11,1.24.33.58.32,1.3.55,2.28.72.16.03.33.04.49.04,1.59,0,2.97-1.35,3.03-2.95.03-.87-.26-1.68-.82-2.26-.56-.59-1.35-.92-2.22-.93h0c-1.11,0-2.07.37-3.04.79-.37.16-.73.24-1.09.24-1.24,0-2.17-.96-2.27-2.33-.01-.17-.01-.35,0-.52v-2.81c.01-1.85.02-3.7.02-5.55q0-1-1.01-1s-4.14-.02-5.13-.02c-1.14,0-2.28,0-3.42.02h0c-1.08,0-1.92-.45-2.39-1.22-.45-.75-.46-1.7-.04-2.48.34-.63.57-1.46.69-2.51.15-1.29-.4-2.34-1.54-2.96-.51-.27-1.02-.41-1.52-.41-.61,0-1.19.2-1.73.59-1.12.82-1.55,1.92-1.23,3.2.18.71.44,1.42.69,2.1l.11.3c.29.78.24,1.56-.14,2.18-.37.62-1.02,1.02-1.83,1.13-.36.05-.74.05-1.1.05h-4.7c-1.18,0-2.35,0-3.53,0q-.78,0-.79.78c-.01,2.88-.01,5.77,0,8.65,0,.62.1.67.23.67.11,0,.28-.05.55-.16,1.05-.42,2.19-.84,3.46-.84,1.47,0,2.81.57,3.79,1.61.98,1.04,1.47,2.41,1.39,3.88-.15,2.62-2.43,4.76-5.08,4.76-.24,0-.48-.02-.72-.05-.87-.13-1.73-.41-2.57-.69l-.22-.07c-.26-.08-.49-.16-.62-.16Z"/>
</svg>