<?xml version="1.0" encoding="UTF-8"?>
<svg id="Layer_1" xmlns="http://www.w3.org/2000/svg" viewBox="0 0 150 150">
  <defs>
    <style>
      .cls-1 {
        fill: #ea7000;
      }

      .cls-2 {
        fill: #085e92;
      }
    </style>
  </defs>
  <path class="cls-2" d="M110.62,65.69c2.08-2.02,4.13-4.08,6.24-6.07,3.3-3.11,6.46-3.05,9.73.11,1.3,1.26,2.61,2.52,3.84,3.84,2.83,3.01,2.8,6.47-.12,9.41-6.1,6.14-12.21,12.27-18.4,18.33-1.28,1.25-1.84,2.51-1.82,4.31.09,7.87-.09,15.74.08,23.61.15,6.86-4.65,11.72-11.59,11.67-21.88-.13-43.76-.12-65.64,0-7.66.04-11.5-5.72-11.46-11.53.15-23.93.09-47.85.03-71.78,0-3.64,1.27-6.53,3.81-9.04,5.21-5.14,10.39-10.31,15.49-15.55,2.57-2.64,5.52-3.93,9.23-3.92,16.21.07,32.43.02,48.64.03,7.16,0,11.42,4.28,11.43,11.5.02,10.78,0,21.56,0,32.35,0,.85,0,1.7,0,2.54.16.06.33.12.49.19ZM24.2,47.24c0,1.17,0,2.02,0,2.87,0,22.74,0,45.49.01,68.23,0,1.17.07,2.37.28,3.52.62,3.32,2.76,5.44,6.09,6.08.92.18,1.87.24,2.81.24,21.64.01,43.29.03,64.93,0,6.1,0,8.94-2.91,8.96-9.02.02-6.77,0-13.54,0-20.3,0-.69-.08-1.38-.12-2.14-1.02.37-1.86.8-2.76.98-2.85.56-5.72,1.04-8.59,1.5-4.02.64-5.8-1.11-5.18-5.18.42-2.8.88-5.6,1.51-8.36.23-1.01.82-2.06,1.54-2.8,4-4.12,8.06-8.19,12.16-12.2,1.04-1.02,1.47-2.09,1.46-3.53-.04-12.2,0-24.4-.03-36.6-.01-5.61-2.69-8.37-8.32-8.71-.55-.03-1.1-.02-1.65-.02-14.95,0-29.91,0-44.86,0-.84,0-1.68,0-2.78,0,0,1.07,0,1.84,0,2.6,0,3.86.01,7.71,0,11.57-.02,7.02-4.3,11.26-11.38,11.28-4.56.01-9.12,0-14.09,0ZM126.62,72.62c.61-.55,1.21-1.03,1.74-1.58,1.88-1.96,1.93-3.55.07-5.54-1.39-1.49-2.84-2.94-4.35-4.31-1.43-1.29-2.89-1.45-4.29-.44-.97.71-1.78,1.65-2.38,2.21,3.15,3.31,6.11,6.42,9.2,9.66ZM101.96,95.29c-2.63-2.53-5.07-4.88-7.52-7.23-.41,2.61-.85,5.41-1.38,8.76,3.33-.57,6.1-1.04,8.91-1.52Z"/>
  <path class="cls-1" d="M84.59,60.29c0,3.9.02,7.68,0,11.45-.03,3.95-1.82,5.77-5.79,5.79-7.16.03-14.31.04-21.47,0-3.81-.02-5.63-1.8-5.75-5.64-.1-2.99-.03-5.98-.03-8.97,0-.85,0-1.71,0-2.7-2.18-.26-3.59-1.39-4.73-2.97-1.53-2.12-1.49-3.81.41-5.65,2.2-2.14,4.48-4.19,6.74-6.26,3.18-2.93,6.35-5.87,9.56-8.77,3.06-2.76,5.96-2.86,9.02-.1,5.55,5,11.02,10.09,16.47,15.2,1.98,1.86,2.01,3.5.36,5.6-1.65,2.09-1.99,2.32-4.79,3.04ZM75.41,74.86c1.23,0,2.07,0,2.92,0,2.88-.03,3.41-.55,3.44-3.48.03-3.85-.04-7.71.03-11.56.02-1.38-.44-2.35-1.46-3.27-3.63-3.26-7.18-6.6-10.77-9.89-.45-.41-.95-.75-1.44-1.13-.37.25-.65.4-.87.61-4,3.67-8.02,7.31-11.94,11.06-.58.55-.87,1.64-.89,2.49-.1,3.22,0,6.45-.05,9.67-.06,4.85-.56,5.87,5.92,5.41.13,0,.25-.17.62-.42,0-.6,0-1.37,0-2.15,0-2.36-.06-4.72.03-7.08.11-2.95,1.51-4.27,4.44-4.32,1.81-.03,3.62-.03,5.42,0,2.97.05,4.39,1.36,4.56,4.23.09,1.49.04,2.99.04,4.48,0,1.7,0,3.4,0,5.34Z"/>
  <path class="cls-1" d="M68.2,88.68c3.93,0,7.87-.02,11.8,0,3.15.03,4.51,1.36,4.58,4.39.09,3.77-1.04,5.36-4.3,5.41-8.1.11-16.21.1-24.31.01-3.18-.03-4.51-1.73-4.43-5.12.07-3.19,1.47-4.65,4.61-4.68,4.01-.04,8.02,0,12.04,0Z"/>
  <path class="cls-1" d="M68.04,114.72c-3.93,0-7.87.02-11.8,0-3.18-.02-4.61-1.46-4.69-4.6-.08-3.45,1.17-5.11,4.36-5.16,8.18-.1,16.36-.11,24.54,0,3.2.05,4.28,1.69,4.13,5.53-.11,2.84-1.52,4.2-4.51,4.22-4.01.03-8.02,0-12.03,0Z"/>
  <path class="cls-1" d="M42.54,98.36c-2.59-.02-4.83-2.25-4.82-4.79,0-2.55,2.26-4.84,4.79-4.86,2.73-.02,4.93,2.2,4.89,4.94-.04,2.63-2.21,4.73-4.86,4.71Z"/>
  <path class="cls-1" d="M47.41,109.93c-.05,2.56-2.32,4.78-4.87,4.75-2.52-.03-4.8-2.31-4.83-4.84-.03-2.66,2.29-4.87,5.03-4.79,2.64.08,4.73,2.25,4.67,4.88Z"/>
</svg>