<?xml version="1.0" encoding="UTF-8"?>
<svg id="Layer_1" xmlns="http://www.w3.org/2000/svg" viewBox="0 0 150 150">
  <defs>
    <style>
      .cls-1 {
        fill: #ea7000;
      }

      .cls-2 {
        fill: #085e92;
      }
    </style>
  </defs>
  <path class="cls-2" d="M88.09,133.8H23.82c-.09-.62-.23-1.1-.23-1.59-.01-4.4-.12-8.81.04-13.2.31-8.49,7.15-15.13,15.66-15.19,11-.08,22.01-.08,33.01,0,9.09.06,15.68,6.67,15.79,15.73.06,4.64.01,9.29.01,14.25Z"/>
  <path class="cls-2" d="M55.67,97.4c-9.91-.04-17.98-8.26-17.94-18.29.04-9.7,8.41-17.88,18.18-17.78,9.86.1,17.91,8.23,17.88,18.08-.02,10.12-8,18.03-18.13,17.99Z"/>
  <path class="cls-2" d="M126.24,133.74h-30.71c-.12-1.53-.25-2.94-.32-4.36-.18-3.55-.43-7.1-.49-10.65-.09-5.14-1.86-9.57-5.24-13.4-.33-.37-.63-.77-1.25-1.52,1.03-.11,1.71-.25,2.39-.25,7.36-.01,14.72-.06,22.08.02,8.43.09,13.6,5.25,13.73,13.64.08,4.82.02,9.64.01,14.47,0,.66-.12,1.31-.19,2.06Z"/>
  <path class="cls-1" d="M93.35,23.11c4.15,0,8.11,0,12.07,0,6.15,0,6.83.67,6.83,6.87,0,6.1,0,12.19,0,18.29,0,4.76-.83,5.57-5.62,5.67-.58.01-1.17.08-1.96.14-.61,3.03-1.22,6.05-1.82,9.04-2.63-2.5-5.23-4.78-7.59-7.29-1.34-1.42-2.72-1.96-4.64-1.93-6.69.1-13.38.04-20.06.04-4.55,0-5.28-.7-5.53-5.2-.02-.31-.11-.61-.26-1.38-3.1,3.08-5.95,5.89-9.2,9.12-.69-3.48-1.29-6.48-1.92-9.67-1.33,0-2.51.08-3.67-.02-2.31-.18-3.66-1.42-3.69-3.72-.08-7.79-.08-15.58,0-23.36.03-2.4,1.37-3.46,4.06-3.47,6.86-.04,13.72-.02,20.57-.02,5.67,0,11.34,0,17.02,0,4.28,0,5.19.9,5.31,5.17.01.42.06.83.12,1.73ZM90,19.73h-40.64v23.4h6.68c.48,2.25.89,4.18,1.4,6.56,1.85-1.83,3.46-3.3,4.91-4.91,1.06-1.18,2.22-1.58,3.78-1.56,7.02.07,14.04.04,21.06.02.9,0,1.79-.09,2.8-.15v-23.36ZM93.47,26.55c-.05,1.14-.12,1.97-.12,2.8-.01,4.23.03,8.47-.02,12.7-.04,3.51-1.27,4.74-4.77,4.76-5.84.03-11.68,0-17.53,0-.91,0-1.82,0-2.76,0v3.41c1.14,0,2.05,0,2.97,0,6.94,0,13.89.04,20.83-.03,1.56-.02,2.73.39,3.77,1.59,1.45,1.66,3.07,3.16,4.91,5.02.55-2.56.97-4.5,1.43-6.65h6.53v-23.61h-15.25Z"/>
  <path class="cls-2" d="M99.73,98.25c-8.24.02-15.07-6.82-15-15.03.07-8.1,6.89-14.82,15-14.78,8.14.04,14.85,6.8,14.83,14.94-.02,8.24-6.61,14.86-14.83,14.88Z"/>
  <path class="cls-1" d="M58.13,32.94c.62-.55,1.11-.98,1.68-1.47,6.14,4.63,12.18,5.03,18.64-.21.52.61,1.03,1.2,1.54,1.79-5.85,6.27-15.99,6.27-21.86-.11Z"/>
  <path class="cls-1" d="M67,27.23c-.61.5-1.33,1.51-2.24,1.73-1.33.31-2.23-.71-2.33-2.04-.11-1.37.68-2.26,2.07-2.36,1.39-.09,2.15.72,2.51,2.67Z"/>
  <path class="cls-1" d="M72.85,29.36c-.59-.86-1.53-1.65-1.7-2.59-.24-1.34.75-2.2,2.14-2.21,1.4,0,2.38.87,2.16,2.19-.15.93-1.1,1.74-1.68,2.6-.3,0-.61,0-.91,0Z"/>
</svg>