<?xml version="1.0" encoding="UTF-8"?>
<svg id="Layer_1" xmlns="http://www.w3.org/2000/svg" viewBox="0 0 150 150">
  <defs>
    <style>
      .cls-1 {
        fill: #ea7000;
      }

      .cls-2 {
        fill: #085e92;
      }
    </style>
  </defs>
  <path class="cls-2" d="M95.07,107.2c4.26-1.24,8.34-2.43,12.43-3.61,5.68-1.64,11.35-3.31,17.05-4.85,1.36-.37,2.91-.67,4.25-.38,4.13.87,5.65,5.85,2.87,9.02-.53.61-1.18,1.15-1.86,1.59-11.93,7.86-23.89,15.69-36.97,21.58-3.06,1.37-6.3,2.36-9.49,3.41-2.49.82-5.05.75-7.49-.23-4.38-1.76-8.83-3.42-13.04-5.54-3.54-1.78-7.09-1.89-10.93-1.6-.11.57-.19,1-.29,1.42-.65,2.65-2.08,3.87-4.78,3.97-1.53.06-3.07.01-4.64.01-.27.69-.48,1.19-.66,1.69-.75,2.02-2.23,3.09-4.36,3.1-6.64.04-13.29.01-19.93.03-1.59,0-2.36-.74-2.33-2.32,0-.55,0-1.09,0-1.64,0-14.75,0-29.49,0-44.24,0-.46-.01-.91,0-1.37.1-2.23.53-2.73,2.76-2.8,2.64-.08,5.28-.03,7.92-.03,3,0,6.01.09,9.01-.02,3.61-.14,6.59.58,7.46,4.95,1.5,0,2.85,0,4.19,0,2.04,0,3.8.6,4.84,2.48.53.95,1.28,1.15,2.26,1.13,1.55-.04,3.1.09,4.64-.03,3.98-.29,7.58.81,10.84,3,2.36,1.59,4.88,2.25,7.72,2.14,3.64-.14,7.29-.14,10.92.02,4.83.21,7.27,2.81,7.45,7.59.02.43.09.85.16,1.52ZM51.76,123.37c.8.09,1.33.24,1.85.19,4.44-.41,8.32,1.04,12.24,3.02,3.79,1.91,7.89,3.23,11.92,4.64,1.04.37,2.34.3,3.46.11,5.17-.85,9.97-2.87,14.55-5.31,6.34-3.37,12.58-6.95,18.74-10.64,4.76-2.85,9.37-5.95,13.98-9.04,1.69-1.13,2.06-2.65,1.34-3.97-.67-1.23-1.93-1.6-3.78-1.07-11.19,3.21-22.42,6.27-33.54,9.7-6.03,1.86-12.09.84-18.13,1.03-.56.02-1.58-.81-1.65-1.35-.16-1.17.91-1.4,1.88-1.4,3.64-.02,7.28,0,10.92-.03,1.09,0,2.2.02,3.26-.19,2.09-.42,3.17-1.8,3.19-3.83.03-2.02-1.02-3.52-2.97-4.05-.86-.23-1.79-.26-2.7-.27-3.64-.03-7.28-.09-10.92.01-2.65.07-5.02-.61-7.22-2.05-.91-.6-1.86-1.15-2.82-1.66-4.38-2.28-8.97-1.2-13.6-1.2v27.35ZM42.02,129.13c1.24,0,2.23,0,3.21,0,3.31-.02,3.52-.22,3.52-3.59.01-9.36,0-18.73,0-28.09,0-5.27-.28-5.53-5.56-5.03-.34.03-.68.19-1.18.34v36.37ZM31.37,130.18c1.9-.02,3.23-1.41,3.14-3.28-.08-1.71-1.44-3.06-3.13-3.11-1.84-.05-3.28,1.36-3.28,3.2,0,1.89,1.36,3.21,3.27,3.19Z"/>
  <path class="cls-2" d="M93.93,55.63c-.04,1.22-.21,2.26-.09,3.26.26,2.08-.47,3.8-1.84,5.21-.44.46-1.54.75-2.08.52-.93-.39-.76-1.41-.18-2.09,1.17-1.39,1.13-2.92,1.05-4.61-.06-1.38.49-2.78.79-4.32-.51-.07-1.02-.18-1.53-.22-3.35-.25-6.72-.35-10.05-.76-1.79-.22-3.15.19-4.5,1.29-7.41,6.02-11.95,13.86-14.44,22.93-.77,2.78-.92,5.73-1.35,8.6-.07.45.08,1-.14,1.34-.35.55-.92.95-1.39,1.42-.44-.48-1.18-.91-1.27-1.45-.18-1.15-.12-2.36,0-3.53,1.09-9.97,4.91-18.77,11.46-26.35,1.65-1.91,3.58-3.59,5.35-5.34-3.15-5.17-1.18-7.42,2.99-8.8-.44-1.62-.72-3.33-1.37-4.88-1.71-4.07-.05-6.8,3.74-7.66.35-.08.67-.24,1.11-.39.12-.52.26-1.03.37-1.55.43-2.08,1.71-3.33,3.71-3.95,3.11-.96,6.28-1.01,9.45-.49,3.31.54,6.06,1.78,5.7,5.9,1.04.35,1.9.62,2.74.93,2.62.99,3.71,2.86,3.05,5.57-.54,2.2-1.28,4.34-2.02,6.78,2.09.29,3.69,1.13,4.42,3.14.73,1.99-.25,3.52-1.48,5.18.79.72,1.52,1.36,2.23,2.03,9.87,9.25,15.22,20.47,14.78,34.16-.06,1.97-.63,3.93-1.05,5.88-.21.96-.86,1.83-1.91,1.29-.48-.25-.87-1.38-.74-1.99,2.93-13.79-1.84-25.17-10.91-35.22-.85-.94-1.89-1.7-2.8-2.6-2.58-2.54-5.53-2.78-8.53-1.58,1.17,1.41,2.3,2.96,3.63,4.3.66.66,1.78.83,2.57,1.4.58.42,1.4,1.14,1.36,1.67-.08,1.2-1.18,1.14-2.12.98-1.95-.35-3.76-1.04-4.61-2.98-.75-1.69-2.13-2.32-4.1-2.97ZM94.85,44.23c.17-2.25.27-4.13.47-5.99.29-2.7.71-5.39.97-8.1.23-2.45-.04-2.77-2.48-3.33-2.88-.66-5.75-.57-8.61.22-1.36.37-1.96,1.15-1.72,2.59.27,1.61.56,3.22.66,4.84.2,3.24,1.53,6.41.43,9.77h10.28ZM82.43,43.46c-.49-3.53-.97-7.04-1.46-10.59-3.62.8-3.82,1.13-2.92,4.03.54,1.73,1.08,3.46,1.62,5.19.41,1.32,1.16,2,2.77,1.36ZM97.62,43.52c1.49.38,2.22.05,2.58-1.17.58-1.99,1.34-3.93,1.89-5.93.7-2.57-.03-3.32-3.15-3.07-.43,3.31-.87,6.68-1.32,10.17Z"/>
  <path class="cls-2" d="M119.09,29.25c-.82-.37-1.41-.59-1.95-.9-1.81-1.07-2.47-2.89-1.3-4.62,2.19-3.22,4.53-6.36,7-9.38,1.29-1.58,3.46-1.54,4.79.09,2.46,3.02,4.76,6.19,6.97,9.41,1.01,1.47.47,3.27-1.01,4.28-.58.4-1.28.64-2.23,1.1,0,.96,0,2.03,0,3.1,0,5.36.02,10.72-.01,16.08-.02,3.71-1.22,4.9-4.89,4.97-.91.02-1.82.02-2.72,0-3.44-.08-4.61-1.2-4.63-4.59-.04-5.45-.01-10.9-.01-16.35,0-.99,0-1.99,0-3.18Z"/>
  <path class="cls-1" d="M90.02,72.16c6.69.04,12.12,5.52,12.08,12.22-.03,6.66-5.56,12.11-12.24,12.08-6.64-.03-12.14-5.59-12.11-12.24.03-6.65,5.57-12.1,12.27-12.06ZM90.04,92.47c.41-.48.66-.85.99-1.14,1.43-1.23,3.24-2.28,2.77-4.57-.47-2.28-2.22-3.06-4.32-3.56-.61-.14-1.29-1.27-1.35-2-.05-.56.74-1.64,1.27-1.72.71-.11,1.65.38,2.29.87.49.37.66,1.15,1.02,1.82,1.76-1.77,1.6-2.08-2.84-5.84-.8.67-1.65,1.32-2.43,2.05-2.3,2.13-1.63,5.47,1.31,6.54.51.19,1.17.12,1.55.43.64.53,1.53,1.26,1.54,1.91.01.65-.84,1.72-1.48,1.87-.62.15-1.53-.55-2.17-1.06-.47-.37-.7-1.03-1.17-1.77q-1.05,2.17,3.03,6.16Z"/>
  <path class="cls-2" d="M16.99,44.04c-.01-12.03,10-22.02,22.13-22.06,12.41-.04,22.39,10.09,22.38,22.72,0,11.93-10.16,22.02-22.21,22.06-12.45.05-22.28-9.97-22.3-22.72ZM58.61,44.71c-.09-11.75-8.91-19.82-19.43-19.73-11.7.1-19.39,9.3-19.31,19.23.09,10.96,8.44,19.53,19.23,19.65,10.5.11,19.51-8.74,19.51-19.15Z"/>
  <path class="cls-1" d="M71.2,84.33c.44-9.94,7.9-17.84,18.14-18.38,8.28-.44,16.88,5.37,18.59,15.18,1.17,6.73-1.05,12.34-5.97,16.95-.53.49-1.11,1.04-1.77,1.25-.58.18-1.3-.08-1.96-.14.09-.65.07-1.35.3-1.95.14-.37.66-.59,1.01-.88,9.33-7.67,7.11-21.86-4.13-26.47-9.4-3.85-20.52,3.35-20.86,13.5-.08,2.39.12,4.72,1.17,6.92.08.16.15.33.22.5.35.9.62,1.86-.54,2.3-1.08.41-1.79-.35-2.07-1.25-.77-2.49-1.41-5.02-2.11-7.54Z"/>
  <path class="cls-2" d="M131.46,61.53c-.04.9.08,1.85-.18,2.68-.17.55-.85,1.12-1.41,1.29-.27.08-1.15-.72-1.18-1.16-.13-1.88-.13-3.78.01-5.66.03-.43.91-1.21,1.21-1.13.55.15,1.23.75,1.38,1.29.23.84.06,1.79.06,2.69.04,0,.07,0,.11,0Z"/>
  <path class="cls-2" d="M119.01,61.52c.04-.99-.01-1.99.18-2.95.08-.41.69-1.04,1.01-1.02.51.04,1.37.53,1.4.87.14,2.04.15,4.09.02,6.13-.02.36-.93.96-1.36.91-.43-.06-.99-.75-1.09-1.25-.18-.86-.05-1.79-.05-2.69-.03,0-.07,0-.1,0Z"/>
  <path class="cls-2" d="M126.52,58.19c-.15.9.43,2.35-1.27,2.66-1.06.19-1.61-.82-1.59-2.88.01-1.21-.34-2.7,1.37-3.11,1.07-.26,1.5.73,1.49,3.34Z"/>
  <path class="cls-2" d="M24.57,44.31c-.51-7,5.63-14.66,14.72-14.69,8.14-.03,14.65,6.64,14.64,14.85,0,8.09-6.71,14.72-14.8,14.76-6.95.03-14.95-6.05-14.57-14.92ZM27.45,44.28c0,6.79,5.15,12.05,11.79,12.04,6.48-.01,11.78-5.29,11.83-11.78.04-6.73-5.17-12.02-11.84-12.02-6.62,0-11.77,5.15-11.77,11.76Z"/>
  <path class="cls-1" d="M34.79,50.01c-.31-.62-.81-1.22-.88-1.87-.04-.41.49-.94.86-1.32,2.3-2.33,4.62-4.63,6.94-6.94.26-.25.54-.62.84-.66.56-.07,1.37-.14,1.67.17.31.33.42,1.37.15,1.65-2.76,2.88-5.62,5.67-8.46,8.47-.18.17-.48.22-1.12.48Z"/>
  <path class="cls-1" d="M45.11,48.05c.06,1.15-.81,2.17-1.91,2.24-1.11.07-2.09-.84-2.15-1.99-.06-1.2.75-2.14,1.91-2.21,1.16-.07,2.09.78,2.16,1.96Z"/>
  <path class="cls-1" d="M35.28,42.48c-1.22-.06-2.04-.96-1.91-2.16.13-1.15.8-1.82,1.97-1.86,1.13-.04,2.07.95,2.08,2.09,0,1.19-.89,2-2.14,1.94Z"/>
</svg>