<?xml version="1.0" encoding="UTF-8"?>
<svg id="Layer_1" xmlns="http://www.w3.org/2000/svg" viewBox="0 0 80 80">
  <defs>
    <style>
      .cls-1 {
        fill: #ea7000;
      }
    </style>
  </defs>
  <path class="cls-1" d="M72.47,37.39c0,.24-.08.46-.23.64l-1.28,1.57c-.19.23-.47.37-.79.37-.24,0-.46-.08-.64-.23l-5.18-4.24v30.84c0,1.12-.91,2.03-2.03,2.03l-16.24.04c-1.12,0-2.03-.91-2.03-2.03v-16.25l-8.12-.04v16.24c0,1.12-.91,2.03-2.03,2.03h-16.24c-1.12,0-2.03-.91-2.03-2.03v-30.83l-5.18,4.24c-.17.14-.39.22-.63.22-.32,0-.6-.15-.79-.37l-1.28-1.57c-.14-.17-.23-.4-.23-.64,0-.32.15-.6.37-.79l29.54-24.11c.7-.56,1.6-.9,2.56-.9s1.86.34,2.56.9l17.74,14.48v-6.51c0-.42.34-.76.76-.76h2.54c.42,0,.76.34.76.76v9.82l7.74,6.32c.23.19.38.47.38.79ZM60.3,32.2l-20.3-16.57-20.3,16.57v32.13h12.18v-16.26c0-1.12.91-2.03,2.03-2.03h0l12.18.03c1.12,0,2.02.91,2.02,2.03v16.26l12.18-.04h-.01v-32.13Z"/>
</svg>