<?xml version="1.0" encoding="UTF-8"?>
<svg id="Layer_1" xmlns="http://www.w3.org/2000/svg" viewBox="0 0 80 80">
  <defs>
    <style>
      .cls-1 {
        fill: #ea7000;
      }
    </style>
  </defs>
  <path class="cls-1" d="M68.42,40c0,15.7-12.72,28.42-28.42,28.42s-28.42-12.72-28.42-28.42,12.72-28.42,28.42-28.42,28.42,12.72,28.42,28.42ZM40,15.25c-13.74,0-24.75,11.15-24.75,24.75s11.15,24.75,24.75,24.75,24.75-11.15,24.75-24.75-11.15-24.75-24.75-24.75ZM38.38,43.36c-.36-.26-.56-.68-.56-1.11v-18.29c0-.76.62-1.38,1.37-1.38h1.6c.76,0,1.37.62,1.37,1.38v16.76l8.08,5.88c.62.45.74,1.31.3,1.93l-.94,1.29c-.45.61-1.31.75-1.93.3l-9.3-6.76Z"/>
</svg>