<?xml version="1.0" encoding="UTF-8"?>
<svg id="Layer_1" xmlns="http://www.w3.org/2000/svg" viewBox="0 0 80 80">
  <defs>
    <style>
      .cls-1 {
        fill: #ea7000;
      }
    </style>
  </defs>
  <path class="cls-1" d="M66.86,44.2l-22.66,22.66c-2.08,2.08-5.45,2.08-7.54,0l-23.52-23.52c-.96-.96-1.56-2.3-1.56-3.77v-22.66c0-2.94,2.39-5.33,5.33-5.33h22.66c1.47,0,2.8.6,3.77,1.56l23.52,23.52c2.08,2.08,2.08,5.45,0,7.53ZM64.35,39.18l-23.52-23.52c-.34-.34-.78-.52-1.26-.52h-22.66c-.98,0-1.78.8-1.78,1.78v22.66s0,0,0,0c0,.49.2.93.52,1.25l23.52,23.52c.69.69,1.82.69,2.51,0l22.66-22.66c.69-.69.69-1.82,0-2.51ZM32.9,27.57c0,2.94-2.39,5.33-5.33,5.33s-5.33-2.39-5.33-5.33,2.39-5.33,5.33-5.33,5.33,2.39,5.33,5.33ZM25.35,27.57c0,1.22,1,2.22,2.22,2.22s2.22-1,2.22-2.22-1-2.22-2.22-2.22-2.22,1-2.22,2.22Z"/>
</svg>