<?xml version="1.0" encoding="UTF-8"?>
<svg id="Layer_1" xmlns="http://www.w3.org/2000/svg" viewBox="0 0 80 80">
  <defs>
    <style>
      .cls-1 {
        fill: #ea7000;
      }
    </style>
  </defs>
  <path class="cls-1" d="M49.62,72.57c-.71,0-1.34-.42-1.61-1.08l-6.79-16.72-.14-.05c-.35-.12-.71-.18-1.07-.18s-.73.06-1.08.18l-.14.05-6.8,16.72c-.27.65-.9,1.08-1.61,1.08-.48,0-.92-.19-1.25-.54l-4.76-5.03s-6.95.27-6.97.27c-.59,0-1.12-.29-1.45-.77-.33-.49-.39-1.08-.17-1.62l6.2-15.26-.12-.15c-.66-.84-1.08-1.66-1.31-2.5l-.19-.72c-.58-2.23-.6-2.27-2.36-4.04l-.35-.35c-1.73-1.76-2.41-4.34-1.78-6.74l.16-.62c.62-2.32.62-2.36,0-4.67l-.16-.62c-.63-2.4.05-4.98,1.78-6.74l.39-.4c1.72-1.73,1.74-1.77,2.32-4.02l.18-.69c.63-2.41,2.5-4.31,4.88-4.95l.63-.17c2.24-.6,2.28-.63,3.95-2.34l.41-.42c1.29-1.31,3.08-2.06,4.91-2.06.6,0,1.2.08,1.77.24l.61.17c1.11.31,1.67.46,2.27.46s1.19-.16,2.36-.49l.52-.14c.58-.16,1.18-.24,1.78-.24,1.83,0,3.62.75,4.91,2.06l.34.35c1.74,1.8,1.78,1.82,4.06,2.43l.6.16c2.37.65,4.24,2.54,4.88,4.95l.19.72c.58,2.23.6,2.27,2.36,4.04l.35.35c1.73,1.76,2.41,4.34,1.78,6.74l-.16.62c-.62,2.31-.62,2.36,0,4.67l.16.62c.63,2.4-.05,4.98-1.78,6.74l-.39.4c-1.72,1.73-1.74,1.77-2.32,4.02l-.18.69c-.22.84-.65,1.66-1.31,2.5l-.12.15,6.2,15.26c.22.54.16,1.13-.17,1.62-.32.48-.86.77-1.43.77-.04,0-6.99-.27-6.99-.27l-4.76,5.03c-.33.35-.78.54-1.25.54ZM54.84,51.81c-.06.02-.12.05-.18.08-.03.02-.06.03-.1.04l-.78.2c-2.01.52-2.08.55-3.38,1.88l-.05.05c-1.17,1.19-2.7,1.89-4.42,2l-.45.03,4.72,11.6,3.99-4.21,5.81.22-4.87-11.99-.29.09ZM29.79,67.7l4.71-11.58-.45-.03c-1.68-.12-3.25-.84-4.41-2.02-1.33-1.35-1.4-1.39-3.48-1.94l-.73-.19s-.07-.03-.1-.04c-.06-.03-.11-.06-.18-.08l-.29-.1-4.87,11.99,5.81-.22,3.99,4.21ZM40,51.08c1.3,0,2.57.36,3.66,1.05.54.35,1.17.53,1.81.53h0c.91,0,1.77-.36,2.42-1.03,2.03-2.07,2.63-2.23,5.13-2.88l.63-.16c1.19-.32,2.13-1.28,2.44-2.49l.05-.21q.95-3.64,3.66-6.38l.07-.07c.88-.89,1.22-2.21.9-3.43q-1.03-3.83,0-7.67c.32-1.23-.02-2.54-.9-3.44q-2.76-2.78-3.7-6.37l-.07-.28c-.32-1.22-1.25-2.17-2.44-2.49l-.21-.06q-3.59-.97-6.34-3.8c-.65-.65-1.53-1.02-2.44-1.02-.3,0-.59.04-.88.12l-.1.03c-1.85.51-2.78.77-3.68.77s-1.82-.25-3.66-.76l-.13-.04c-.29-.08-.59-.12-.88-.12-.9,0-1.79.37-2.43,1.03l-.19.19q-2.58,2.63-6.16,3.6l-.21.06c-1.19.32-2.12,1.27-2.44,2.49l-.06.22q-.95,3.64-3.66,6.38l-.06.06c-.88.89-1.22,2.21-.9,3.43q1.03,3.82,0,7.63c-.33,1.26.01,2.58.89,3.47q2.76,2.78,3.7,6.37l.07.28c.32,1.22,1.25,2.17,2.44,2.49l.61.16c2.53.67,3.13.83,5.15,2.88.65.66,1.51,1.03,2.42,1.03.64,0,1.26-.18,1.81-.53,1.09-.69,2.36-1.06,3.66-1.06ZM40,43.78c-6.62,0-12.01-5.39-12.01-12.01s5.39-12.01,12.01-12.01,12.01,5.39,12.01,12.01-5.39,12.01-12.01,12.01ZM40,23.22c-4.71,0-8.55,3.84-8.55,8.55s3.84,8.55,8.55,8.55,8.55-3.84,8.55-8.55-3.84-8.55-8.55-8.55Z"/>
</svg>