<?xml version="1.0" encoding="UTF-8"?>
<svg id="Layer_1" xmlns="http://www.w3.org/2000/svg" viewBox="0 0 80 80">
  <defs>
    <style>
      .cls-1 {
        fill: #ea7000;
      }
    </style>
  </defs>
  <path class="cls-1" d="M72.47,23.76v32.47c0,1.8-1.45,3.25-3.25,3.25H10.77c-1.8,0-3.25-1.45-3.25-3.25V23.76c0-1.8,1.45-3.25,3.25-3.25h58.45c1.8,0,3.25,1.45,3.25,3.25ZM69.23,33.51c-5.37,0-9.74-4.37-9.74-9.74H20.52c0,5.37-4.37,9.74-9.74,9.74v12.99c5.37,0,9.74,4.37,9.74,9.74h38.97c0-5.37,4.37-9.74,9.74-9.74v-12.99ZM10.77,30.26c3.58,0,6.49-2.91,6.49-6.49h-6.49v6.49ZM17.27,56.24c0-3.58-2.91-6.49-6.49-6.49v6.49h6.49ZM69.23,23.76h-6.49c0,3.58,2.91,6.49,6.49,6.49v-6.49ZM69.23,49.74c-3.58,0-6.49,2.91-6.49,6.49h6.49v-6.49ZM33.26,50.77v-1.64c2.2-1.12,3.75-3.29,3.75-5.75,0-.79-.03-1.45-.16-2.3h-3.38v-2.07h3.06c-.16-.99-.36-2.27-.36-3.55,0-3.88,2.66-6.41,6.31-6.41,1.71,0,2.89.39,3.58.82l-.66,2.17c-.59-.33-1.54-.66-2.92-.66-2.56,0-3.62,1.77-3.62,4.11,0,1.41.2,2.46.39,3.52h4.73v2.07h-4.47c.1,1.25.16,2.5-.13,3.68-.36,1.41-1.15,2.6-2.27,3.55v.07h9.79v2.4h-13.64Z"/>
</svg>