<svg width="16" height="16" viewBox="0 0 16 16" fill="none" xmlns="http://www.w3.org/2000/svg">
<path d="M3.61191 9.36211L8.51191 14.2621C8.71191 14.4621 8.80775 14.6954 8.79941 14.9621C8.79108 15.2288 8.68691 15.4621 8.48691 15.6621C8.28691 15.8454 8.05358 15.9413 7.78691 15.9496C7.52025 15.9579 7.28691 15.8621 7.08691 15.6621L0.486914 9.06211C0.386914 8.96211 0.316081 8.85378 0.274414 8.73711C0.232747 8.62044 0.211914 8.49544 0.211914 8.36211C0.211914 8.22878 0.232747 8.10378 0.274414 7.98711C0.316081 7.87044 0.386914 7.76211 0.486914 7.66211L7.08691 1.06211C7.27025 0.878776 7.49941 0.787109 7.77441 0.787109C8.04941 0.787109 8.28691 0.878776 8.48691 1.06211C8.68691 1.26211 8.78691 1.49961 8.78691 1.77461C8.78691 2.04961 8.68691 2.28711 8.48691 2.48711L3.61191 7.36211H14.7869C15.0702 7.36211 15.3077 7.45794 15.4994 7.64961C15.6911 7.84128 15.7869 8.07878 15.7869 8.36211C15.7869 8.64544 15.6911 8.88294 15.4994 9.07461C15.3077 9.26628 15.0702 9.36211 14.7869 9.36211H3.61191Z" fill="#1C1B1F"/>
</svg>
