<svg xmlns="http://www.w3.org/2000/svg" xmlns:xlink="http://www.w3.org/1999/xlink" width="1152" viewBox="0 0 864 863.999991" height="1152" preserveAspectRatio="xMidYMid meet"><defs><clipPath id="beb3715a06"><path d="M 39.472656 39.472656 L 824.527344 39.472656 L 824.527344 824.527344 L 39.472656 824.527344 Z M 39.472656 39.472656 " clip-rule="nonzero"></path></clipPath><clipPath id="45e54a203f"><path d="M 432 39.472656 C 215.210938 39.472656 39.472656 215.210938 39.472656 432 C 39.472656 648.789062 215.210938 824.527344 432 824.527344 C 648.789062 824.527344 824.527344 648.789062 824.527344 432 C 824.527344 215.210938 648.789062 39.472656 432 39.472656 Z M 432 39.472656 " clip-rule="nonzero"></path></clipPath><clipPath id="6b34cbe9f5"><path d="M 156.019531 389 L 174 389 L 174 432 L 156.019531 432 Z M 156.019531 389 " clip-rule="nonzero"></path></clipPath></defs><g clip-path="url(#beb3715a06)"><g clip-path="url(#45e54a203f)"><path fill="#05042c" d="M 39.472656 39.472656 L 824.527344 39.472656 L 824.527344 824.527344 L 39.472656 824.527344 Z M 39.472656 39.472656 " fill-opacity="1" fill-rule="nonzero"></path></g></g><path fill="#ffffff" d="M 621.089844 385.207031 L 601.519531 385.207031 C 596.941406 363.140625 588.195312 341.488281 575.707031 322.753906 L 589.863281 308.597656 C 596.941406 301.519531 596.941406 290.277344 589.863281 283.199219 L 562.382812 255.71875 C 555.304688 248.640625 544.0625 248.640625 536.984375 255.71875 L 522.414062 269.875 C 503.261719 257.386719 482.027344 248.640625 459.960938 244.0625 L 459.960938 224.492188 C 459.960938 214.5 452.046875 206.589844 442.054688 206.589844 L 403.335938 206.589844 C 393.34375 206.171875 385.015625 214.085938 385.015625 224.078125 L 385.015625 243.644531 C 362.949219 248.226562 341.296875 256.96875 322.5625 269.460938 L 308.40625 255.304688 C 301.328125 248.226562 290.085938 248.226562 283.007812 255.304688 L 255.53125 282.78125 C 248.453125 289.859375 248.453125 301.101562 255.53125 308.179688 L 269.6875 322.335938 C 257.195312 341.488281 248.453125 362.722656 243.871094 384.789062 L 224.304688 384.789062 C 213.894531 385.207031 205.984375 393.53125 205.984375 403.109375 L 205.984375 441.828125 C 205.984375 451.820312 213.894531 459.734375 223.886719 459.734375 L 243.457031 459.734375 C 248.035156 481.800781 256.777344 503.449219 269.269531 522.1875 L 255.113281 536.34375 C 248.035156 543.417969 248.035156 554.660156 255.113281 561.738281 L 282.59375 589.21875 C 289.671875 596.296875 300.914062 596.296875 307.992188 589.21875 L 322.144531 575.0625 C 341.296875 587.554688 362.53125 596.296875 384.597656 600.875 L 384.597656 620.445312 C 384.597656 630.4375 392.511719 638.347656 402.503906 638.347656 L 441.222656 638.347656 C 451.214844 638.347656 459.125 630.4375 459.125 620.445312 L 459.125 600.875 C 469.535156 598.792969 479.945312 595.464844 489.9375 591.300781 L 439.972656 541.339844 L 425.820312 526.765625 C 424.570312 526.765625 423.738281 526.765625 422.488281 526.765625 C 365.03125 526.765625 318.398438 480.132812 318.398438 422.675781 C 318.398438 365.21875 365.03125 318.589844 422.488281 318.589844 C 479.945312 318.589844 526.574219 365.21875 526.574219 422.675781 C 526.574219 423.925781 526.574219 424.757812 526.574219 426.007812 L 591.941406 491.375 C 596.105469 481.382812 599.019531 470.972656 601.519531 460.566406 L 621.089844 460.566406 C 631.082031 460.566406 638.992188 452.65625 638.992188 442.664062 L 638.992188 403.941406 C 638.992188 393.53125 631.082031 385.207031 621.089844 385.207031 Z M 621.089844 385.207031 " fill-opacity="1" fill-rule="nonzero"></path><path fill="#ffffff" d="M 477.445312 179.109375 C 485.355469 180.777344 492.851562 182.859375 500.761719 185.355469 C 501.59375 185.773438 502.425781 185.773438 503.261719 185.773438 C 506.589844 185.773438 509.921875 183.691406 511.171875 179.945312 C 512.417969 175.78125 510.339844 170.785156 505.757812 169.535156 C 497.847656 167.035156 489.519531 164.539062 481.191406 162.871094 C 476.613281 161.625 472.035156 164.539062 471.199219 169.117188 C 469.953125 173.28125 472.867188 177.863281 477.445312 179.109375 Z M 477.445312 179.109375 " fill-opacity="1" fill-rule="nonzero"></path><path fill="#ffffff" d="M 530.324219 197.429688 C 537.402344 200.761719 544.480469 204.507812 551.558594 208.671875 C 552.804688 209.503906 554.472656 209.921875 555.71875 209.921875 C 558.636719 209.921875 561.132812 208.671875 562.796875 205.757812 C 565.296875 202.011719 564.046875 196.597656 559.882812 194.515625 C 552.390625 189.9375 544.894531 186.1875 537.402344 182.441406 C 533.238281 180.359375 528.242188 182.023438 526.160156 186.1875 C 524.492188 190.351562 526.160156 195.347656 530.324219 197.429688 Z M 530.324219 197.429688 " fill-opacity="1" fill-rule="nonzero"></path><path fill="#ffffff" d="M 577.789062 226.992188 C 584.03125 231.988281 590.277344 237.398438 595.691406 242.8125 C 597.355469 244.476562 599.4375 245.3125 601.519531 245.3125 C 603.601562 245.3125 605.683594 244.476562 607.347656 242.8125 C 610.679688 239.480469 610.261719 234.070312 606.933594 231.15625 C 600.6875 225.324219 594.441406 219.496094 587.78125 214.5 C 584.03125 211.585938 579.035156 212.417969 576.121094 215.75 C 573.625 218.664062 574.039062 224.078125 577.789062 226.992188 Z M 577.789062 226.992188 " fill-opacity="1" fill-rule="nonzero"></path><path fill="#ffffff" d="M 310.070312 198.679688 C 311.320312 198.679688 312.570312 198.261719 313.820312 197.847656 C 320.898438 194.515625 328.390625 191.183594 335.886719 188.269531 C 340.050781 186.605469 342.546875 182.023438 340.882812 177.445312 C 339.21875 173.28125 334.636719 170.785156 330.058594 172.449219 C 322.144531 175.363281 314.234375 178.695312 306.324219 182.441406 C 302.160156 184.523438 300.496094 189.519531 302.578125 193.683594 C 303.828125 197.015625 306.742188 198.679688 310.070312 198.679688 Z M 310.070312 198.679688 " fill-opacity="1" fill-rule="nonzero"></path><path fill="#ffffff" d="M 364.613281 179.527344 C 365.03125 179.527344 365.863281 179.527344 366.695312 179.109375 C 374.605469 177.445312 382.519531 175.78125 390.429688 174.945312 C 395.007812 174.53125 398.339844 170.367188 397.507812 165.789062 C 397.089844 161.207031 392.511719 157.875 388.347656 158.710938 C 380.019531 159.957031 371.277344 161.207031 362.949219 163.289062 C 358.367188 164.121094 355.871094 168.703125 356.703125 173.28125 C 357.121094 176.613281 360.449219 179.527344 364.613281 179.527344 Z M 364.613281 179.527344 " fill-opacity="1" fill-rule="nonzero"></path><path fill="#ffffff" d="M 421.65625 172.867188 L 422.488281 172.867188 C 430.398438 172.867188 438.308594 173.28125 445.804688 174.113281 C 446.21875 174.113281 446.21875 174.113281 446.636719 174.113281 C 450.800781 174.113281 454.546875 170.785156 454.964844 166.621094 C 455.378906 162.039062 452.046875 157.875 447.46875 157.460938 C 439.140625 156.628906 430.816406 156.210938 422.488281 156.210938 L 422.070312 156.210938 C 417.492188 156.210938 413.742188 159.957031 413.742188 164.539062 C 413.742188 169.117188 417.074219 172.867188 421.65625 172.867188 Z M 421.65625 172.867188 " fill-opacity="1" fill-rule="nonzero"></path><path fill="#ffffff" d="M 667.71875 512.191406 C 671.050781 512.191406 674.382812 509.695312 675.628906 506.363281 C 678.128906 498.453125 680.625 490.125 682.707031 481.800781 C 683.542969 477.21875 681.042969 473.054688 676.464844 471.808594 C 671.882812 470.972656 667.71875 473.472656 666.46875 478.050781 C 664.804688 485.964844 662.722656 493.457031 660.226562 501.367188 C 658.976562 505.53125 661.058594 510.527344 665.636719 511.777344 C 665.636719 512.191406 666.886719 512.191406 667.71875 512.191406 Z M 667.71875 512.191406 " fill-opacity="1" fill-rule="nonzero"></path><path fill="#ffffff" d="M 680.625 413.519531 C 676.046875 413.519531 672.300781 417.265625 672.300781 421.84375 L 672.300781 422.675781 C 672.300781 430.589844 671.882812 438.914062 671.050781 446.824219 C 670.632812 451.40625 673.964844 455.570312 678.542969 455.984375 C 683.125 456.402344 687.289062 453.070312 687.703125 448.492188 C 688.539062 440.164062 688.953125 431.421875 688.953125 422.675781 L 688.953125 421.84375 C 688.953125 417.265625 685.207031 413.519531 680.625 413.519531 Z M 680.625 413.519531 " fill-opacity="1" fill-rule="nonzero"></path><path fill="#ffffff" d="M 658.558594 527.183594 C 654.394531 525.101562 649.398438 526.765625 647.316406 530.929688 C 645.652344 534.675781 643.988281 538.007812 641.90625 541.339844 L 653.980469 553.414062 C 656.894531 548.417969 659.808594 543.003906 662.308594 538.007812 C 664.804688 534.261719 662.722656 529.265625 658.558594 527.183594 Z M 658.558594 527.183594 " fill-opacity="1" fill-rule="nonzero"></path><path fill="#ffffff" d="M 260.941406 229.488281 C 262.609375 229.488281 264.691406 229.074219 266.355469 227.824219 C 272.601562 222.828125 279.261719 218.246094 285.921875 213.667969 C 289.671875 211.167969 290.917969 206.171875 288.421875 202.011719 C 285.921875 198.261719 280.925781 197.015625 276.765625 199.511719 C 269.6875 204.09375 262.609375 209.089844 255.945312 214.5 C 252.199219 217.414062 251.78125 222.828125 254.695312 226.160156 C 256.363281 228.242188 258.859375 229.488281 260.941406 229.488281 Z M 260.941406 229.488281 " fill-opacity="1" fill-rule="nonzero"></path><path fill="#ffffff" d="M 666.054688 366.46875 C 667.71875 374.378906 669.386719 382.292969 670.21875 390.203125 C 670.632812 394.367188 675.214844 398.113281 679.378906 397.28125 C 683.957031 396.863281 687.289062 392.699219 686.457031 388.121094 C 685.207031 379.792969 683.957031 371.050781 681.875 362.722656 C 681.042969 358.144531 676.464844 355.226562 671.882812 356.476562 C 667.71875 357.308594 664.804688 361.890625 666.054688 366.46875 Z M 666.054688 366.46875 " fill-opacity="1" fill-rule="nonzero"></path><path fill="#ffffff" d="M 631.496094 285.695312 C 633.164062 288.195312 635.660156 289.445312 638.574219 289.445312 C 640.242188 289.445312 641.90625 289.027344 643.15625 288.195312 C 646.902344 285.695312 648.152344 280.699219 645.652344 276.539062 C 641.074219 269.460938 636.078125 262.382812 630.664062 255.71875 C 627.75 251.972656 622.335938 251.554688 619.007812 254.46875 C 615.675781 257.386719 614.84375 262.796875 617.757812 266.128906 C 622.335938 272.375 626.917969 279.035156 631.496094 285.695312 Z M 631.496094 285.695312 " fill-opacity="1" fill-rule="nonzero"></path><path fill="#ffffff" d="M 647.316406 313.59375 C 650.648438 320.671875 653.980469 328.164062 656.894531 335.660156 C 658.558594 339.824219 663.140625 342.320312 667.71875 340.65625 C 671.882812 338.992188 674.382812 334.410156 672.714844 329.832031 C 669.800781 321.917969 666.46875 314.007812 662.722656 306.097656 C 660.640625 301.933594 655.644531 300.269531 651.480469 302.351562 C 646.902344 304.433594 645.238281 309.429688 647.316406 313.59375 Z M 647.316406 313.59375 " fill-opacity="1" fill-rule="nonzero"></path><path fill="#ffffff" d="M 197.65625 531.34375 C 194.324219 524.269531 190.996094 516.773438 188.082031 509.277344 C 186.414062 505.117188 181.835938 502.617188 177.253906 504.28125 C 173.09375 505.949219 170.59375 510.527344 172.257812 515.109375 C 175.171875 523.019531 178.503906 530.929688 182.25 538.839844 C 184.332031 543.003906 189.328125 544.667969 193.492188 542.585938 C 197.65625 540.503906 199.320312 535.507812 197.65625 531.34375 Z M 197.65625 531.34375 " fill-opacity="1" fill-rule="nonzero"></path><path fill="#ffffff" d="M 422.488281 672.488281 C 414.578125 672.488281 406.667969 672.074219 398.753906 671.242188 C 394.175781 670.824219 390.011719 674.15625 389.59375 678.734375 C 389.179688 683.316406 392.511719 687.476562 397.089844 687.894531 C 405.417969 688.726562 414.160156 689.144531 422.488281 689.144531 L 422.902344 689.144531 C 427.484375 689.144531 431.230469 685.394531 431.230469 680.816406 C 430.816406 676.238281 427.066406 672.488281 422.488281 672.488281 Z M 422.488281 672.488281 " fill-opacity="1" fill-rule="nonzero"></path><path fill="#ffffff" d="M 367.113281 666.242188 C 359.203125 664.578125 351.707031 662.496094 343.796875 660 C 339.632812 658.75 334.636719 660.832031 333.386719 665.410156 C 332.140625 669.574219 334.21875 674.570312 338.800781 675.820312 C 346.710938 678.316406 355.039062 680.816406 363.367188 682.480469 C 367.945312 683.316406 372.523438 680.398438 373.359375 676.238281 C 374.605469 671.65625 371.691406 667.492188 367.113281 666.242188 Z M 367.113281 666.242188 " fill-opacity="1" fill-rule="nonzero"></path><path fill="#ffffff" d="M 314.234375 647.925781 C 307.15625 644.59375 300.078125 640.429688 293 636.683594 C 289.253906 634.183594 283.84375 635.433594 281.761719 639.597656 C 279.261719 643.34375 280.511719 648.757812 284.675781 650.839844 C 291.753906 655.417969 299.664062 659.167969 307.15625 662.914062 C 311.320312 664.996094 316.316406 662.914062 318.398438 659.167969 C 320.066406 655.003906 318.398438 650.007812 314.234375 647.925781 Z M 314.234375 647.925781 " fill-opacity="1" fill-rule="nonzero"></path><path fill="#ffffff" d="M 531.15625 647.925781 C 524.078125 651.253906 516.582031 654.585938 509.089844 657.5 C 504.925781 659.167969 502.425781 663.746094 504.09375 668.324219 C 505.757812 672.488281 510.339844 674.988281 514.917969 673.320312 C 522.828125 670.40625 530.738281 667.078125 538.648438 663.328125 C 542.8125 661.246094 544.480469 656.25 542.398438 652.089844 C 540.316406 647.507812 535.320312 645.84375 531.15625 647.925781 Z M 531.15625 647.925781 " fill-opacity="1" fill-rule="nonzero"></path><path fill="#ffffff" d="M 266.769531 618.363281 C 260.527344 613.367188 254.28125 607.953125 248.867188 602.542969 C 245.539062 599.210938 240.125 599.628906 237.210938 602.542969 C 233.878906 605.871094 234.296875 611.285156 237.210938 614.199219 C 243.457031 620.027344 249.699219 625.859375 256.363281 631.269531 C 259.695312 634.183594 265.105469 633.351562 268.019531 630.019531 C 270.933594 626.273438 270.519531 620.863281 266.769531 618.363281 Z M 266.769531 618.363281 " fill-opacity="1" fill-rule="nonzero"></path><path fill="#ffffff" d="M 478.277344 666.242188 C 470.367188 667.910156 462.457031 669.574219 454.546875 670.40625 C 449.96875 670.824219 446.636719 674.988281 447.46875 679.566406 C 447.886719 684.148438 452.464844 687.476562 456.628906 686.644531 C 464.957031 685.394531 473.699219 684.148438 482.027344 682.066406 C 486.605469 681.234375 489.519531 676.652344 488.269531 672.074219 C 487.023438 667.910156 482.859375 665.410156 478.277344 666.242188 Z M 478.277344 666.242188 " fill-opacity="1" fill-rule="nonzero"></path><path fill="#ffffff" d="M 215.144531 268.625 C 218.472656 271.542969 223.886719 270.707031 226.800781 267.378906 C 231.796875 261.132812 237.210938 254.886719 242.621094 249.472656 C 245.953125 246.144531 245.539062 240.730469 242.621094 237.816406 C 239.292969 234.484375 233.878906 234.902344 230.964844 237.816406 C 225.136719 244.0625 219.308594 250.308594 213.894531 256.96875 C 210.980469 260.714844 211.394531 265.710938 215.144531 268.625 Z M 215.144531 268.625 " fill-opacity="1" fill-rule="nonzero"></path><path fill="#ffffff" d="M 168.929688 373.964844 C 173.507812 374.796875 178.089844 371.882812 178.921875 367.71875 C 180.585938 359.808594 182.667969 351.898438 185.167969 344.402344 C 186.414062 340.238281 184.332031 335.242188 179.753906 333.992188 C 175.171875 332.746094 170.59375 334.828125 169.34375 339.40625 C 166.847656 347.316406 164.347656 355.644531 162.683594 363.972656 C 161.433594 368.550781 164.347656 372.714844 168.929688 373.964844 Z M 168.929688 373.964844 " fill-opacity="1" fill-rule="nonzero"></path><path fill="#ffffff" d="M 186 318.589844 C 190.164062 320.671875 195.160156 318.589844 197.242188 314.84375 C 200.570312 307.765625 204.734375 300.6875 208.480469 293.609375 C 210.980469 289.859375 209.730469 284.449219 205.566406 282.367188 C 201.820312 279.867188 196.824219 281.117188 194.324219 284.863281 C 189.746094 291.941406 186 299.851562 182.25 307.347656 C 180.167969 311.511719 181.835938 316.507812 186 318.589844 Z M 186 318.589844 " fill-opacity="1" fill-rule="nonzero"></path><g clip-path="url(#6b34cbe9f5)"><path fill="#ffffff" d="M 164.347656 431.421875 C 168.929688 431.421875 172.675781 427.671875 172.675781 423.09375 L 172.675781 422.675781 C 172.675781 414.765625 173.09375 406.855469 173.925781 398.945312 C 174.339844 394.367188 171.011719 390.203125 166.429688 389.785156 C 161.851562 389.367188 157.6875 392.699219 157.269531 397.28125 C 156.4375 406.023438 156.019531 414.351562 156.019531 423.09375 L 156.019531 423.511719 C 156.019531 427.671875 159.769531 431.421875 164.347656 431.421875 Z M 164.347656 431.421875 " fill-opacity="1" fill-rule="nonzero"></path></g><path fill="#ffffff" d="M 178.921875 478.46875 C 177.253906 470.558594 175.589844 462.648438 174.757812 454.738281 C 174.339844 450.15625 169.761719 446.824219 165.597656 447.660156 C 161.019531 448.074219 157.6875 452.238281 158.519531 456.820312 C 159.769531 465.144531 161.019531 473.890625 163.097656 482.214844 C 163.933594 485.964844 167.261719 488.878906 171.011719 488.878906 C 176.007812 488.878906 180.167969 483.882812 178.921875 478.46875 Z M 178.921875 478.46875 " fill-opacity="1" fill-rule="nonzero"></path><path fill="#ffffff" d="M 213.0625 559.242188 C 210.5625 555.492188 205.566406 554.246094 201.402344 556.742188 C 197.65625 559.242188 196.40625 564.238281 198.90625 568.402344 C 203.484375 575.480469 208.480469 582.558594 213.894531 589.21875 C 216.808594 592.550781 222.222656 593.382812 225.550781 590.46875 C 229.300781 587.554688 229.714844 582.558594 226.800781 578.808594 C 222.222656 572.566406 217.640625 565.902344 213.0625 559.242188 Z M 213.0625 559.242188 " fill-opacity="1" fill-rule="nonzero"></path><path fill="#ffffff" d="M 683.957031 607.121094 L 485.773438 408.519531 C 484.941406 407.6875 483.691406 406.855469 482.027344 406.441406 L 391.261719 381.457031 C 388.347656 380.625 385.433594 381.457031 383.351562 383.539062 C 381.269531 385.621094 380.4375 388.953125 381.269531 391.449219 L 406.25 482.214844 C 406.667969 483.464844 407.5 484.714844 408.332031 485.964844 L 606.515625 684.148438 C 609.847656 687.476562 614.011719 689.144531 618.171875 689.144531 C 622.753906 689.144531 626.917969 687.476562 629.832031 684.148438 L 650.648438 663.328125 L 439.972656 451.820312 L 420.40625 471.390625 L 401.253906 401.441406 L 471.199219 420.59375 L 451.632812 440.164062 L 663.140625 651.671875 L 683.957031 630.855469 C 690.617188 624.191406 690.617188 613.367188 683.957031 607.121094 Z M 683.957031 607.121094 " fill-opacity="1" fill-rule="nonzero"></path></svg>