<svg xmlns="http://www.w3.org/2000/svg" xmlns:xlink="http://www.w3.org/1999/xlink" width="1152" viewBox="0 0 864 863.999991" height="1152" preserveAspectRatio="xMidYMid meet"><defs><clipPath id="044db69937"><path d="M 39.472656 39.472656 L 824.527344 39.472656 L 824.527344 824.527344 L 39.472656 824.527344 Z M 39.472656 39.472656 " clip-rule="nonzero"></path></clipPath><clipPath id="9cb126faa3"><path d="M 432 39.472656 C 215.210938 39.472656 39.472656 215.210938 39.472656 432 C 39.472656 648.789062 215.210938 824.527344 432 824.527344 C 648.789062 824.527344 824.527344 648.789062 824.527344 432 C 824.527344 215.210938 648.789062 39.472656 432 39.472656 Z M 432 39.472656 " clip-rule="nonzero"></path></clipPath><clipPath id="745c2964ea"><path d="M 157.949219 147.984375 L 706.199219 147.984375 L 706.199219 696.234375 L 157.949219 696.234375 Z M 157.949219 147.984375 " clip-rule="nonzero"></path></clipPath></defs><g clip-path="url(#044db69937)"><g clip-path="url(#9cb126faa3)"><path fill="#05042c" d="M 39.472656 39.472656 L 824.527344 39.472656 L 824.527344 824.527344 L 39.472656 824.527344 Z M 39.472656 39.472656 " fill-opacity="1" fill-rule="nonzero"></path></g></g><g clip-path="url(#745c2964ea)"><path fill="#ffffff" d="M 690.671875 328.484375 C 701.410156 357.851562 707.261719 389.570312 707.261719 422.65625 C 707.261719 574.335938 584.300781 697.296875 432.617188 697.296875 C 368.878906 697.296875 310.203125 675.574219 263.601562 639.140625 L 235.453125 663.644531 C 232.996094 665.800781 229.75 666.347656 226.699219 665.15625 C 223.671875 663.964844 221.664062 661.386719 221.292969 658.113281 L 210.105469 557.941406 C 209.757812 554.96875 210.875 552.261719 213.179688 550.355469 C 215.488281 548.445312 218.363281 547.898438 221.21875 548.792969 L 313.921875 578.03125 C 316.972656 579 319.105469 581.355469 319.75 584.480469 C 320.394531 587.605469 319.378906 590.605469 316.972656 592.6875 L 292.371094 614.09375 C 331.679688 642.933594 380.140625 659.949219 432.617188 659.949219 C 563.667969 659.949219 669.9375 553.703125 669.9375 422.65625 C 669.9375 396.066406 665.546875 370.523438 657.511719 346.664062 C 656.296875 343.070312 657.488281 339.25 660.539062 337.019531 L 677.527344 324.519531 C 679.785156 322.855469 682.4375 322.410156 685.089844 323.203125 C 687.769531 324.023438 689.730469 325.855469 690.671875 328.484375 Z M 432.617188 147.984375 C 496.355469 147.984375 555.011719 169.710938 601.613281 206.144531 L 629.761719 181.640625 C 632.242188 179.484375 635.464844 178.9375 638.515625 180.128906 C 641.566406 181.316406 643.550781 183.898438 643.921875 187.171875 L 655.132812 287.339844 C 655.453125 290.316406 654.363281 293.019531 652.03125 294.929688 C 649.726562 296.839844 646.871094 297.386719 644.019531 296.492188 L 551.289062 267.226562 C 548.238281 266.285156 546.132812 263.929688 545.460938 260.804688 C 544.816406 257.679688 545.835938 254.679688 548.238281 252.570312 L 572.84375 231.167969 C 533.558594 202.347656 485.074219 185.3125 432.617188 185.3125 C 301.546875 185.3125 195.300781 291.582031 195.300781 422.65625 C 195.300781 449.214844 199.664062 474.761719 207.699219 498.621094 C 208.914062 502.214844 207.726562 506.011719 204.675781 508.265625 L 187.6875 520.765625 C 185.429688 522.429688 182.777344 522.875 180.121094 522.082031 C 177.445312 521.261719 175.484375 519.425781 174.542969 516.796875 C 163.804688 487.433594 157.949219 455.714844 157.949219 422.65625 C 157.949219 270.949219 280.914062 147.984375 432.617188 147.984375 Z M 432.617188 239.574219 C 533.707031 239.574219 615.671875 321.542969 615.671875 422.628906 C 615.671875 523.742188 533.707031 605.710938 432.617188 605.710938 C 331.507812 605.710938 249.539062 523.742188 249.539062 422.628906 C 249.539062 321.542969 331.507812 239.574219 432.617188 239.574219 Z M 450.871094 400.359375 C 456.230469 403.730469 460.769531 408.269531 464.140625 413.628906 L 536.707031 413.628906 C 549.15625 413.628906 559.25 423.722656 559.25 436.171875 C 559.25 448.597656 549.15625 458.691406 536.707031 458.691406 L 464.140625 458.691406 C 456.675781 470.570312 443.433594 478.457031 428.351562 478.457031 C 404.992188 478.457031 386.042969 459.535156 386.042969 436.171875 C 386.042969 421.09375 393.929688 407.847656 405.808594 400.359375 L 405.808594 324.046875 C 405.808594 311.597656 415.902344 301.503906 428.351562 301.503906 C 440.777344 301.503906 450.871094 311.597656 450.871094 324.046875 Z M 428.351562 420.523438 C 436.984375 420.523438 443.976562 427.539062 443.976562 436.171875 C 443.976562 444.800781 436.984375 451.796875 428.351562 451.796875 C 419.722656 451.796875 412.703125 444.800781 412.703125 436.171875 C 412.703125 427.539062 419.722656 420.523438 428.351562 420.523438 Z M 428.351562 420.523438 " fill-opacity="1" fill-rule="evenodd"></path></g></svg>