<svg xmlns="http://www.w3.org/2000/svg" xmlns:xlink="http://www.w3.org/1999/xlink" width="1152" viewBox="0 0 864 863.999991" height="1152" preserveAspectRatio="xMidYMid meet"><defs><g></g><clipPath id="1123db6e8f"><path d="M 39.472656 39.472656 L 824.527344 39.472656 L 824.527344 824.527344 L 39.472656 824.527344 Z M 39.472656 39.472656 " clip-rule="nonzero"></path></clipPath><clipPath id="95f7b4f172"><path d="M 432 39.472656 C 215.210938 39.472656 39.472656 215.210938 39.472656 432 C 39.472656 648.789062 215.210938 824.527344 432 824.527344 C 648.789062 824.527344 824.527344 648.789062 824.527344 432 C 824.527344 215.210938 648.789062 39.472656 432 39.472656 Z M 432 39.472656 " clip-rule="nonzero"></path></clipPath><clipPath id="1e8bc3528d"><path d="M 175.066406 183 L 673 183 L 673 681 L 175.066406 681 Z M 175.066406 183 " clip-rule="nonzero"></path></clipPath><clipPath id="51efe09568"><path d="M 363.492188 243.40625 L 471.664062 243.40625 L 471.664062 526.621094 L 363.492188 526.621094 Z M 363.492188 243.40625 " clip-rule="nonzero"></path></clipPath><clipPath id="d63b6bb55c"><path d="M 312.34375 275.121094 L 504.957031 275.121094 L 504.957031 558.335938 L 312.34375 558.335938 Z M 312.34375 275.121094 " clip-rule="nonzero"></path></clipPath><clipPath id="cc0c736d89"><path d="M 385.300781 338.550781 L 483.148438 338.550781 L 483.148438 621.765625 L 385.300781 621.765625 Z M 385.300781 338.550781 " clip-rule="nonzero"></path></clipPath></defs><g clip-path="url(#1123db6e8f)"><g clip-path="url(#95f7b4f172)"><path fill="#05042c" d="M 39.472656 39.472656 L 824.527344 39.472656 L 824.527344 824.527344 L 39.472656 824.527344 Z M 39.472656 39.472656 " fill-opacity="1" fill-rule="nonzero"></path></g></g><path fill="#ffffff" d="M 423.640625 347.402344 C 441.328125 347.402344 455.707031 361.78125 455.707031 379.457031 C 455.707031 390.757812 464.878906 399.929688 476.175781 399.929688 C 487.476562 399.929688 496.648438 390.757812 496.648438 379.457031 C 496.648438 346.316406 474.425781 318.3125 444.109375 309.441406 L 444.109375 275.292969 C 444.109375 263.996094 434.941406 254.824219 423.640625 254.824219 C 412.339844 254.824219 403.167969 263.996094 403.167969 275.292969 L 403.167969 309.449219 C 372.863281 318.324219 350.640625 346.328125 350.640625 379.46875 C 350.640625 419.722656 383.386719 452.476562 423.640625 452.476562 C 441.328125 452.476562 455.707031 466.855469 455.707031 484.542969 C 455.707031 502.230469 441.328125 516.601562 423.640625 516.601562 C 405.953125 516.601562 391.582031 502.21875 391.582031 484.542969 C 391.582031 473.242188 382.414062 464.074219 371.113281 464.074219 C 359.8125 464.074219 350.640625 473.242188 350.640625 484.542969 C 350.640625 517.683594 372.863281 545.6875 403.167969 554.5625 L 403.167969 588.71875 C 403.167969 600.015625 412.339844 609.1875 423.640625 609.1875 C 434.941406 609.1875 444.109375 600.015625 444.109375 588.71875 L 444.109375 554.574219 C 474.417969 545.699219 496.648438 517.695312 496.648438 484.554688 C 496.648438 444.300781 463.894531 411.546875 423.640625 411.546875 C 405.964844 411.546875 391.582031 397.164062 391.582031 379.480469 C 391.582031 361.792969 405.964844 347.421875 423.640625 347.421875 Z M 423.640625 347.402344 " fill-opacity="1" fill-rule="nonzero"></path><g clip-path="url(#1e8bc3528d)"><path fill="#ffffff" d="M 549.144531 597.488281 C 512.933594 625.082031 469.554688 639.667969 423.679688 639.667969 C 309.167969 639.667969 216.007812 546.496094 216.007812 431.996094 C 216.007812 317.496094 309.179688 224.324219 423.679688 224.324219 C 538.183594 224.324219 631.25 317.496094 631.25 431.996094 C 631.25 446.101562 629.808594 460.277344 626.960938 474.132812 C 624.679688 485.210938 631.824219 496.039062 642.898438 498.300781 C 654.003906 500.601562 664.792969 493.429688 667.0625 482.363281 C 670.460938 465.804688 672.191406 448.855469 672.191406 431.984375 C 672.191406 294.894531 560.710938 183.371094 423.679688 183.371094 C 286.652344 183.371094 175.066406 294.90625 175.066406 431.996094 C 175.066406 569.085938 286.589844 680.609375 423.679688 680.609375 C 478.59375 680.609375 530.558594 663.128906 573.953125 630.058594 C 582.953125 623.199219 584.679688 610.355469 577.832031 601.367188 C 570.984375 592.390625 558.132812 590.632812 549.144531 597.488281 Z M 549.144531 597.488281 " fill-opacity="1" fill-rule="nonzero"></path></g><path fill="#ffffff" d="M 783.191406 414.402344 C 775.199219 406.40625 762.242188 406.40625 754.246094 414.402344 L 608.898438 559.753906 L 549.289062 500.140625 C 541.292969 492.148438 528.335938 492.148438 520.34375 500.140625 C 512.347656 508.136719 512.347656 521.09375 520.34375 529.085938 L 594.425781 603.167969 C 598.425781 607.171875 603.65625 609.167969 608.898438 609.167969 C 614.136719 609.167969 619.367188 607.171875 623.371094 603.167969 L 783.191406 443.347656 C 791.1875 435.351562 791.1875 422.394531 783.191406 414.402344 Z M 783.191406 414.402344 " fill-opacity="1" fill-rule="nonzero"></path><g clip-path="url(#51efe09568)"><path fill="#05042c" d="M 363.492188 243.40625 L 471.664062 243.40625 L 471.664062 526.511719 L 363.492188 526.511719 Z M 363.492188 243.40625 " fill-opacity="1" fill-rule="nonzero"></path></g><g clip-path="url(#d63b6bb55c)"><path fill="#05042c" d="M 312.34375 275.121094 L 504.957031 275.121094 L 504.957031 558.023438 L 312.34375 558.023438 Z M 312.34375 275.121094 " fill-opacity="1" fill-rule="nonzero"></path></g><g clip-path="url(#cc0c736d89)"><path fill="#05042c" d="M 385.300781 338.550781 L 483.148438 338.550781 L 483.148438 621.773438 L 385.300781 621.773438 Z M 385.300781 338.550781 " fill-opacity="1" fill-rule="nonzero"></path></g><g fill="#ffffff" fill-opacity="1"><g transform="translate(363.491119, 520.273683)"><g><path d="M 6.0625 -39.5625 C 12.414062 -43.40625 17.226562 -46.867188 20.5 -49.953125 C 23.769531 -53.035156 26.269531 -56.929688 28 -61.640625 C 29.738281 -66.359375 30.609375 -72.472656 30.609375 -79.984375 C 30.609375 -86.722656 30.222656 -91.726562 29.453125 -95 L 6.640625 -95 L 6.640625 -127.625 L 25.703125 -127.625 L 23.671875 -136 C 22.328125 -141.394531 21.03125 -147.796875 19.78125 -155.203125 C 18.53125 -162.609375 17.90625 -168.429688 17.90625 -172.671875 C 17.90625 -190.960938 23.003906 -204.535156 33.203125 -213.390625 C 43.410156 -222.242188 57.945312 -226.671875 76.8125 -226.671875 C 96.25 -226.671875 110.25 -220.847656 118.8125 -209.203125 C 127.382812 -197.554688 131.671875 -180.664062 131.671875 -158.53125 L 86.625 -158.53125 C 86.625 -167.382812 86.140625 -174.023438 85.171875 -178.453125 C 84.210938 -182.878906 81.710938 -185.09375 77.671875 -185.09375 C 74.972656 -185.09375 73.046875 -184.273438 71.890625 -182.640625 C 70.742188 -181.003906 70.070312 -178.738281 69.875 -175.84375 C 69.6875 -172.957031 69.59375 -170.070312 69.59375 -167.1875 L 69.59375 -165.453125 C 69.59375 -160.640625 72.285156 -148.03125 77.671875 -127.625 L 117.515625 -127.625 L 117.515625 -95 L 82.578125 -95 L 84.03125 -76.234375 C 83.644531 -68.148438 81.617188 -61.125 77.953125 -55.15625 C 74.296875 -49.1875 69.679688 -44.46875 64.109375 -41 L 130.21875 -41 L 130.21875 0 L 6.0625 0 Z M 6.0625 -39.5625 "></path></g></g></g></svg>