<svg xmlns="http://www.w3.org/2000/svg" xmlns:xlink="http://www.w3.org/1999/xlink" width="1152" viewBox="0 0 864 863.999991" height="1152" preserveAspectRatio="xMidYMid meet"><defs><g></g><clipPath id="39525e258a"><path d="M 39.472656 39.472656 L 824.527344 39.472656 L 824.527344 824.527344 L 39.472656 824.527344 Z M 39.472656 39.472656 " clip-rule="nonzero"></path></clipPath><clipPath id="43c567bda1"><path d="M 432 39.472656 C 215.210938 39.472656 39.472656 215.210938 39.472656 432 C 39.472656 648.789062 215.210938 824.527344 432 824.527344 C 648.789062 824.527344 824.527344 648.789062 824.527344 432 C 824.527344 215.210938 648.789062 39.472656 432 39.472656 Z M 432 39.472656 " clip-rule="nonzero"></path></clipPath><clipPath id="381d668e13"><path d="M 323 122.246094 L 541 122.246094 L 541 391 L 323 391 Z M 323 122.246094 " clip-rule="nonzero"></path></clipPath><clipPath id="c2127b913a"><path d="M 393.6875 216.257812 L 470.3125 216.257812 L 470.3125 359.226562 L 393.6875 359.226562 Z M 393.6875 216.257812 " clip-rule="nonzero"></path></clipPath></defs><g clip-path="url(#39525e258a)"><g clip-path="url(#43c567bda1)"><path fill="#05042c" d="M 39.472656 39.472656 L 824.527344 39.472656 L 824.527344 824.527344 L 39.472656 824.527344 Z M 39.472656 39.472656 " fill-opacity="1" fill-rule="nonzero"></path></g></g><path fill="#ffffff" d="M 579.0625 377.773438 C 573.609375 377.738281 568.175781 377.996094 562.75 378.550781 C 557.328125 379.109375 551.953125 379.957031 546.621094 381.097656 C 541.292969 382.238281 536.039062 383.667969 530.867188 385.378906 C 525.691406 387.09375 520.625 389.082031 515.664062 391.34375 C 510.707031 393.609375 505.886719 396.136719 501.203125 398.925781 C 496.519531 401.714844 492.003906 404.75 487.648438 408.03125 C 483.296875 411.3125 479.136719 414.820312 475.164062 418.554688 C 471.191406 422.289062 467.4375 426.226562 463.894531 430.371094 L 441.59375 456.054688 L 491.367188 513.546875 L 520.726562 479.671875 C 522.519531 477.578125 524.425781 475.582031 526.4375 473.695312 C 528.449219 471.804688 530.558594 470.027344 532.765625 468.367188 C 534.96875 466.707031 537.257812 465.171875 539.628906 463.761719 C 542.003906 462.347656 544.445312 461.070312 546.957031 459.921875 C 549.464844 458.777344 552.03125 457.769531 554.652344 456.902344 C 557.273438 456.035156 559.933594 455.3125 562.632812 454.734375 C 565.332031 454.15625 568.054688 453.726562 570.800781 453.445312 C 573.546875 453.160156 576.300781 453.027344 579.0625 453.046875 C 580.296875 453.027344 581.535156 453.042969 582.769531 453.085938 C 584.003906 453.132812 585.238281 453.207031 586.472656 453.3125 C 587.703125 453.417969 588.933594 453.554688 590.15625 453.71875 C 591.382812 453.886719 592.601562 454.082031 593.816406 454.308594 C 595.035156 454.535156 596.242188 454.792969 597.445312 455.078125 C 598.648438 455.367188 599.84375 455.683594 601.03125 456.027344 C 602.21875 456.375 603.394531 456.75 604.5625 457.152344 C 605.734375 457.554688 606.890625 457.988281 608.039062 458.449219 C 609.183594 458.914062 610.320312 459.402344 611.441406 459.917969 C 612.566406 460.4375 613.675781 460.984375 614.769531 461.554688 C 615.867188 462.128906 616.949219 462.726562 618.015625 463.351562 C 619.082031 463.980469 620.128906 464.632812 621.164062 465.308594 C 622.199219 465.988281 623.214844 466.691406 624.214844 467.417969 C 625.214844 468.148438 626.195312 468.902344 627.15625 469.679688 C 628.117188 470.457031 629.058594 471.253906 629.980469 472.078125 C 630.902344 472.902344 631.804688 473.75 632.683594 474.617188 C 633.566406 475.484375 634.421875 476.375 635.261719 477.285156 C 636.097656 478.195312 636.910156 479.128906 637.699219 480.078125 C 638.488281 481.03125 639.253906 482 639.996094 482.988281 C 640.738281 483.980469 641.457031 484.984375 642.148438 486.011719 C 642.839844 487.035156 643.507812 488.074219 644.148438 489.132812 C 644.789062 490.191406 645.402344 491.261719 645.992188 492.351562 C 646.578125 493.441406 647.136719 494.542969 647.671875 495.65625 C 648.203125 496.773438 648.710938 497.902344 649.1875 499.042969 C 649.664062 500.183594 650.113281 501.335938 650.53125 502.496094 C 650.953125 503.660156 651.34375 504.832031 651.707031 506.015625 C 652.066406 507.199219 652.398438 508.386719 652.703125 509.585938 C 653.003906 510.785156 653.277344 511.992188 653.523438 513.203125 C 653.765625 514.417969 653.976562 515.632812 654.160156 516.855469 C 654.34375 518.078125 654.496094 519.304688 654.621094 520.535156 C 654.742188 521.765625 654.832031 523 654.894531 524.234375 C 654.957031 525.46875 654.984375 526.707031 654.984375 527.941406 C 654.984375 529.179688 654.957031 530.414062 654.894531 531.648438 C 654.832031 532.882812 654.742188 534.117188 654.621094 535.347656 C 654.496094 536.578125 654.34375 537.804688 654.160156 539.027344 C 653.976562 540.25 653.765625 541.46875 653.523438 542.679688 C 653.277344 543.890625 653.003906 545.097656 652.703125 546.296875 C 652.398438 547.496094 652.066406 548.6875 651.707031 549.867188 C 651.34375 551.050781 650.953125 552.222656 650.53125 553.386719 C 650.113281 554.550781 649.664062 555.703125 649.1875 556.84375 C 648.710938 557.984375 648.203125 559.109375 647.671875 560.226562 C 647.136719 561.34375 646.578125 562.445312 645.992188 563.53125 C 645.402344 564.621094 644.789062 565.691406 644.148438 566.75 C 643.507812 567.808594 642.839844 568.847656 642.148438 569.875 C 641.457031 570.898438 640.738281 571.90625 639.996094 572.894531 C 639.253906 573.882812 638.488281 574.855469 637.699219 575.804688 C 636.910156 576.753906 636.097656 577.6875 635.261719 578.597656 C 634.421875 579.507812 633.566406 580.398438 632.683594 581.265625 C 631.804688 582.136719 630.902344 582.980469 629.980469 583.804688 C 629.058594 584.628906 628.117188 585.429688 627.15625 586.207031 C 626.195312 586.984375 625.214844 587.734375 624.214844 588.464844 C 623.214844 589.191406 622.199219 589.894531 621.164062 590.574219 C 620.128906 591.253906 619.082031 591.90625 618.015625 592.53125 C 616.949219 593.15625 615.867188 593.757812 614.769531 594.328125 C 613.675781 594.902344 612.566406 595.445312 611.441406 595.964844 C 610.320312 596.480469 609.183594 596.972656 608.039062 597.433594 C 606.890625 597.894531 605.734375 598.328125 604.5625 598.730469 C 603.394531 599.136719 602.21875 599.511719 601.03125 599.855469 C 599.84375 600.203125 598.648438 600.519531 597.445312 600.804688 C 596.242188 601.089844 595.035156 601.347656 593.816406 601.574219 C 592.601562 601.800781 591.382812 602 590.15625 602.164062 C 588.933594 602.332031 587.703125 602.46875 586.472656 602.574219 C 585.238281 602.679688 584.003906 602.753906 582.769531 602.796875 C 581.535156 602.839844 580.296875 602.855469 579.0625 602.839844 C 576.308594 602.855469 573.566406 602.726562 570.828125 602.445312 C 568.089844 602.164062 565.375 601.738281 562.6875 601.160156 C 559.996094 600.585938 557.34375 599.867188 554.730469 599 C 552.117188 598.136719 549.5625 597.132812 547.058594 595.992188 C 544.554688 594.851562 542.121094 593.574219 539.753906 592.167969 C 537.390625 590.761719 535.109375 589.230469 532.910156 587.574219 C 530.714844 585.917969 528.613281 584.148438 526.605469 582.265625 C 524.601562 580.382812 522.703125 578.394531 520.914062 576.304688 C 411.902344 450.425781 463.695312 510.398438 394.457031 430.277344 C 390.910156 426.140625 387.148438 422.207031 383.171875 418.480469 C 379.199219 414.753906 375.035156 411.253906 370.679688 407.976562 C 366.328125 404.703125 361.808594 401.671875 357.125 398.890625 C 352.441406 396.105469 347.621094 393.582031 342.660156 391.324219 C 337.703125 389.0625 332.636719 387.078125 327.464844 385.367188 C 322.292969 383.660156 317.042969 382.234375 311.714844 381.09375 C 306.386719 379.957031 301.011719 379.109375 295.589844 378.554688 C 290.171875 377.996094 284.738281 377.738281 279.289062 377.773438 C 276.820312 377.757812 274.351562 377.800781 271.886719 377.90625 C 269.421875 378.007812 266.957031 378.175781 264.5 378.402344 C 262.042969 378.628906 259.589844 378.914062 257.148438 379.261719 C 254.703125 379.609375 252.269531 380.015625 249.847656 380.484375 C 247.421875 380.949219 245.011719 381.476562 242.613281 382.0625 C 240.214844 382.648438 237.835938 383.292969 235.46875 383.996094 C 233.101562 384.699219 230.753906 385.460938 228.425781 386.28125 C 226.097656 387.097656 223.789062 387.976562 221.503906 388.910156 C 219.21875 389.839844 216.960938 390.832031 214.722656 391.875 C 212.488281 392.917969 210.277344 394.019531 208.09375 395.171875 C 205.914062 396.324219 203.761719 397.53125 201.636719 398.789062 C 199.515625 400.050781 197.421875 401.359375 195.367188 402.722656 C 193.308594 404.085938 191.285156 405.5 189.296875 406.960938 C 187.308594 408.421875 185.355469 409.933594 183.441406 411.492188 C 181.527344 413.050781 179.652344 414.65625 177.816406 416.308594 C 175.984375 417.957031 174.191406 419.652344 172.4375 421.390625 C 170.6875 423.132812 168.980469 424.914062 167.316406 426.738281 C 165.652344 428.5625 164.035156 430.425781 162.464844 432.328125 C 160.890625 434.230469 159.367188 436.171875 157.890625 438.152344 C 156.417969 440.128906 154.992188 442.144531 153.613281 444.191406 C 152.238281 446.242188 150.910156 448.320312 149.636719 450.4375 C 148.363281 452.550781 147.144531 454.695312 145.976562 456.867188 C 144.804688 459.042969 143.691406 461.246094 142.632812 463.476562 C 141.574219 465.703125 140.570312 467.957031 139.621094 470.238281 C 138.671875 472.515625 137.78125 474.816406 136.945312 477.140625 C 136.109375 479.460938 135.332031 481.804688 134.613281 484.164062 C 133.894531 486.527344 133.234375 488.902344 132.632812 491.296875 C 132.027344 493.691406 131.484375 496.097656 131.003906 498.519531 C 130.519531 500.941406 130.09375 503.371094 129.730469 505.8125 C 129.367188 508.253906 129.0625 510.703125 128.820312 513.160156 C 128.578125 515.613281 128.394531 518.074219 128.273438 520.542969 C 128.152344 523.007812 128.089844 525.472656 128.089844 527.941406 C 128.089844 530.410156 128.152344 532.878906 128.273438 535.34375 C 128.394531 537.808594 128.578125 540.269531 128.820312 542.726562 C 129.0625 545.179688 129.367188 547.628906 129.730469 550.070312 C 130.09375 552.511719 130.519531 554.945312 131.003906 557.363281 C 131.484375 559.785156 132.027344 562.191406 132.632812 564.585938 C 133.234375 566.980469 133.894531 569.355469 134.613281 571.71875 C 135.332031 574.078125 136.109375 576.421875 136.945312 578.746094 C 137.78125 581.066406 138.671875 583.367188 139.621094 585.648438 C 140.570312 587.925781 141.574219 590.179688 142.632812 592.410156 C 143.691406 594.636719 144.804688 596.839844 145.976562 599.015625 C 147.144531 601.1875 148.363281 603.332031 149.636719 605.449219 C 150.910156 607.5625 152.238281 609.644531 153.613281 611.691406 C 154.992188 613.742188 156.417969 615.753906 157.890625 617.734375 C 159.367188 619.710938 160.890625 621.652344 162.464844 623.554688 C 164.035156 625.460938 165.652344 627.324219 167.316406 629.148438 C 168.980469 630.96875 170.6875 632.75 172.4375 634.492188 C 174.191406 636.230469 175.984375 637.925781 177.816406 639.578125 C 179.652344 641.226562 181.527344 642.832031 183.441406 644.390625 C 185.355469 645.949219 187.308594 647.460938 189.296875 648.921875 C 191.285156 650.386719 193.308594 651.796875 195.367188 653.160156 C 197.421875 654.523438 199.515625 655.832031 201.636719 657.09375 C 203.761719 658.351562 205.914062 659.558594 208.09375 660.710938 C 210.277344 661.867188 212.488281 662.964844 214.722656 664.007812 C 216.960938 665.054688 219.21875 666.042969 221.503906 666.976562 C 223.789062 667.910156 226.097656 668.785156 228.425781 669.605469 C 230.753906 670.421875 233.101562 671.183594 235.46875 671.886719 C 237.835938 672.589844 240.214844 673.234375 242.613281 673.820312 C 245.011719 674.40625 247.421875 674.933594 249.847656 675.402344 C 252.269531 675.867188 254.703125 676.273438 257.148438 676.621094 C 259.589844 676.96875 262.042969 677.257812 264.5 677.484375 C 266.957031 677.707031 269.421875 677.875 271.886719 677.980469 C 274.351562 678.082031 276.820312 678.128906 279.289062 678.109375 C 284.738281 678.148438 290.175781 677.886719 295.597656 677.332031 C 301.019531 676.777344 306.398438 675.925781 311.726562 674.785156 C 317.058594 673.644531 322.308594 672.21875 327.484375 670.503906 C 332.660156 668.792969 337.726562 666.804688 342.683594 664.539062 C 347.640625 662.273438 352.460938 659.746094 357.144531 656.957031 C 361.828125 654.167969 366.347656 651.132812 370.699219 647.851562 C 375.050781 644.570312 379.214844 641.0625 383.183594 637.328125 C 387.15625 633.597656 390.914062 629.65625 394.457031 625.515625 L 416.753906 599.828125 L 366.980469 542.339844 L 337.625 576.210938 C 335.828125 578.308594 333.925781 580.300781 331.914062 582.191406 C 329.898438 584.078125 327.792969 585.855469 325.585938 587.515625 C 323.378906 589.175781 321.089844 590.710938 318.71875 592.125 C 316.347656 593.535156 313.90625 594.816406 311.394531 595.960938 C 308.882812 597.105469 306.316406 598.113281 303.695312 598.980469 C 301.074219 599.847656 298.414062 600.570312 295.714844 601.148438 C 293.015625 601.726562 290.292969 602.15625 287.546875 602.441406 C 284.800781 602.722656 282.046875 602.855469 279.289062 602.839844 C 278.050781 602.855469 276.816406 602.839844 275.578125 602.796875 C 274.34375 602.753906 273.109375 602.679688 271.878906 602.574219 C 270.644531 602.46875 269.417969 602.332031 268.191406 602.164062 C 266.96875 602 265.746094 601.800781 264.53125 601.574219 C 263.316406 601.347656 262.105469 601.089844 260.902344 600.804688 C 259.699219 600.519531 258.507812 600.203125 257.320312 599.855469 C 256.132812 599.511719 254.953125 599.136719 253.785156 598.730469 C 252.617188 598.328125 251.457031 597.894531 250.3125 597.433594 C 249.164062 596.972656 248.03125 596.480469 246.90625 595.964844 C 245.785156 595.445312 244.675781 594.902344 243.578125 594.328125 C 242.484375 593.757812 241.402344 593.15625 240.335938 592.53125 C 239.269531 591.902344 238.21875 591.253906 237.183594 590.574219 C 236.152344 589.894531 235.132812 589.191406 234.136719 588.464844 C 233.136719 587.734375 232.15625 586.984375 231.195312 586.207031 C 230.234375 585.429688 229.289062 584.628906 228.367188 583.804688 C 227.445312 582.980469 226.546875 582.132812 225.664062 581.265625 C 224.785156 580.398438 223.925781 579.507812 223.089844 578.597656 C 222.253906 577.6875 221.441406 576.753906 220.652344 575.804688 C 219.859375 574.851562 219.09375 573.882812 218.351562 572.894531 C 217.609375 571.90625 216.894531 570.898438 216.199219 569.875 C 215.507812 568.847656 214.84375 567.808594 214.203125 566.75 C 213.5625 565.691406 212.945312 564.621094 212.359375 563.53125 C 211.773438 562.445312 211.210938 561.34375 210.679688 560.226562 C 210.144531 559.109375 209.640625 557.984375 209.164062 556.84375 C 208.6875 555.699219 208.238281 554.550781 207.816406 553.386719 C 207.398438 552.222656 207.007812 551.050781 206.644531 549.867188 C 206.28125 548.6875 205.949219 547.496094 205.648438 546.296875 C 205.34375 545.097656 205.070312 543.890625 204.828125 542.679688 C 204.585938 541.46875 204.371094 540.25 204.1875 539.027344 C 204.003906 537.804688 203.851562 536.578125 203.730469 535.347656 C 203.609375 534.117188 203.515625 532.882812 203.457031 531.648438 C 203.394531 530.414062 203.363281 529.179688 203.363281 527.941406 C 203.363281 526.707031 203.394531 525.46875 203.457031 524.234375 C 203.515625 523 203.609375 521.765625 203.730469 520.535156 C 203.851562 519.304688 204.003906 518.078125 204.1875 516.855469 C 204.371094 515.632812 204.585938 514.417969 204.828125 513.203125 C 205.070312 511.992188 205.34375 510.785156 205.648438 509.585938 C 205.949219 508.386719 206.28125 507.199219 206.644531 506.015625 C 207.007812 504.832031 207.398438 503.660156 207.816406 502.496094 C 208.238281 501.335938 208.6875 500.183594 209.164062 499.042969 C 209.640625 497.902344 210.144531 496.773438 210.679688 495.65625 C 211.210938 494.542969 211.773438 493.441406 212.359375 492.351562 C 212.945312 491.265625 213.5625 490.191406 214.203125 489.132812 C 214.84375 488.074219 215.507812 487.035156 216.199219 486.011719 C 216.894531 484.984375 217.609375 483.980469 218.351562 482.988281 C 219.09375 482 219.859375 481.03125 220.652344 480.078125 C 221.441406 479.128906 222.253906 478.199219 223.089844 477.285156 C 223.925781 476.375 224.785156 475.484375 225.664062 474.617188 C 226.546875 473.75 227.445312 472.902344 228.367188 472.078125 C 229.289062 471.253906 230.234375 470.457031 231.195312 469.679688 C 232.15625 468.902344 233.136719 468.148438 234.136719 467.421875 C 235.132812 466.691406 236.152344 465.988281 237.183594 465.308594 C 238.21875 464.632812 239.269531 463.980469 240.335938 463.351562 C 241.402344 462.726562 242.484375 462.128906 243.578125 461.554688 C 244.675781 460.984375 245.785156 460.4375 246.90625 459.917969 C 248.03125 459.402344 249.164062 458.914062 250.3125 458.449219 C 251.457031 457.988281 252.617188 457.558594 253.785156 457.152344 C 254.953125 456.75 256.132812 456.375 257.320312 456.027344 C 258.507812 455.683594 259.699219 455.367188 260.902344 455.078125 C 262.105469 454.792969 263.316406 454.535156 264.53125 454.308594 C 265.746094 454.082031 266.96875 453.886719 268.191406 453.71875 C 269.417969 453.554688 270.644531 453.417969 271.878906 453.3125 C 273.109375 453.207031 274.34375 453.132812 275.578125 453.085938 C 276.816406 453.042969 278.050781 453.027344 279.289062 453.046875 C 282.039062 453.027344 284.785156 453.160156 287.519531 453.4375 C 290.257812 453.71875 292.972656 454.148438 295.664062 454.722656 C 298.355469 455.296875 301.003906 456.019531 303.617188 456.882812 C 306.230469 457.746094 308.789062 458.75 311.292969 459.890625 C 313.796875 461.035156 316.230469 462.308594 318.59375 463.714844 C 320.957031 465.121094 323.238281 466.652344 325.4375 468.308594 C 327.636719 469.964844 329.738281 471.734375 331.742188 473.617188 C 333.75 475.5 335.648438 477.488281 337.4375 479.578125 C 446.449219 605.457031 394.652344 545.484375 463.894531 625.609375 C 465.925781 628.027344 468.027344 630.378906 470.203125 632.664062 C 472.382812 634.949219 474.628906 637.164062 476.945312 639.308594 C 479.261719 641.453125 481.640625 643.523438 484.089844 645.515625 C 486.535156 647.511719 489.039062 649.425781 491.605469 651.265625 C 494.175781 653.101562 496.796875 654.859375 499.472656 656.53125 C 502.148438 658.203125 504.875 659.792969 507.652344 661.292969 C 510.429688 662.796875 513.25 664.207031 516.113281 665.535156 C 518.980469 666.859375 521.882812 668.09375 524.824219 669.234375 C 527.765625 670.375 530.742188 671.425781 533.75 672.382812 C 536.757812 673.335938 539.796875 674.199219 542.855469 674.960938 C 545.917969 675.726562 549.003906 676.394531 552.105469 676.96875 C 555.210938 677.539062 558.332031 678.011719 561.464844 678.390625 C 564.597656 678.765625 567.742188 679.042969 570.894531 679.21875 C 574.042969 679.398438 577.199219 679.476562 580.355469 679.457031 C 583.511719 679.4375 586.664062 679.320312 589.8125 679.105469 C 592.960938 678.886719 596.101562 678.570312 599.230469 678.15625 C 602.359375 677.742188 605.472656 677.230469 608.570312 676.617188 C 611.667969 676.007812 614.742188 675.300781 617.792969 674.5 C 620.847656 673.695312 623.871094 672.800781 626.867188 671.804688 C 629.863281 670.8125 632.828125 669.726562 635.753906 668.546875 C 638.683594 667.371094 641.570312 666.101562 644.417969 664.742188 C 647.269531 663.378906 650.070312 661.933594 652.828125 660.394531 C 655.585938 658.859375 658.292969 657.238281 660.949219 655.53125 C 663.605469 653.828125 666.203125 652.039062 668.746094 650.171875 C 671.292969 648.300781 673.773438 646.355469 676.195312 644.328125 C 678.617188 642.304688 680.972656 640.203125 683.261719 638.03125 C 685.550781 635.859375 687.769531 633.617188 689.917969 631.304688 C 692.066406 628.992188 694.140625 626.613281 696.140625 624.171875 C 698.140625 621.730469 700.0625 619.226562 701.90625 616.664062 C 703.746094 614.101562 705.507812 611.484375 707.183594 608.808594 C 708.863281 606.136719 710.457031 603.414062 711.964844 600.640625 C 713.46875 597.867188 714.890625 595.046875 716.21875 592.183594 C 717.550781 589.324219 718.789062 586.421875 719.9375 583.480469 C 721.085938 580.539062 722.140625 577.566406 723.101562 574.5625 C 724.0625 571.554688 724.929688 568.519531 725.699219 565.460938 C 726.46875 562.398438 727.144531 559.316406 727.722656 556.214844 C 728.300781 553.109375 728.777344 549.992188 729.160156 546.859375 C 729.542969 543.726562 729.824219 540.582031 730.007812 537.433594 C 730.195312 534.28125 730.28125 531.125 730.265625 527.96875 C 730.253906 524.8125 730.140625 521.660156 729.929688 518.511719 C 729.71875 515.363281 729.40625 512.222656 729 509.09375 C 728.589844 505.960938 728.082031 502.847656 727.480469 499.75 C 726.875 496.652344 726.175781 493.574219 725.378906 490.523438 C 724.582031 487.46875 723.6875 484.441406 722.703125 481.441406 C 721.714844 478.445312 720.632812 475.480469 719.460938 472.550781 C 718.289062 469.621094 717.023438 466.730469 715.667969 463.878906 C 714.3125 461.027344 712.871094 458.222656 711.339844 455.460938 C 709.808594 452.699219 708.195312 449.992188 706.492188 447.332031 C 704.792969 444.671875 703.007812 442.070312 701.144531 439.523438 C 699.28125 436.976562 697.339844 434.488281 695.316406 432.0625 C 693.296875 429.640625 691.203125 427.28125 689.035156 424.984375 C 686.867188 422.691406 684.628906 420.46875 682.320312 418.316406 C 680.011719 416.164062 677.636719 414.082031 675.199219 412.078125 C 672.761719 410.074219 670.261719 408.148438 667.703125 406.300781 C 665.140625 404.457031 662.527344 402.691406 659.855469 401.007812 C 657.1875 399.324219 654.464844 397.726562 651.695312 396.214844 C 648.925781 394.703125 646.109375 393.277344 643.25 391.941406 C 640.390625 390.605469 637.492188 389.363281 634.550781 388.207031 C 631.613281 387.054688 628.644531 385.992188 625.636719 385.027344 C 622.632812 384.058594 619.601562 383.1875 616.542969 382.410156 C 613.484375 381.632812 610.402344 380.953125 607.300781 380.371094 C 604.199219 379.789062 601.082031 379.300781 597.949219 378.914062 C 594.816406 378.527344 591.671875 378.238281 588.523438 378.046875 C 585.371094 377.855469 582.21875 377.765625 579.0625 377.773438 Z M 579.0625 377.773438 " fill-opacity="1" fill-rule="nonzero"></path><g clip-path="url(#381d668e13)"><path fill="#ffffff" d="M 401.65625 193.171875 L 462.242188 193.171875 C 461.507812 196.34375 462.789062 199.605469 465.4375 201.453125 C 502.625 227.214844 527.277344 267.386719 533.425781 312.214844 C 536.550781 335.019531 524.746094 357.304688 504.117188 367.527344 C 458.648438 390.09375 405.253906 390.09375 359.808594 367.527344 C 339.15625 357.304688 327.375 335.019531 330.496094 312.214844 C 336.648438 267.386719 361.296875 227.214844 398.488281 201.453125 C 401.136719 199.605469 402.390625 196.34375 401.65625 193.171875 Z M 441.828125 128.351562 C 442.65625 128.328125 443.484375 128.539062 444.214844 128.992188 L 455.003906 135.804688 C 458.765625 138.167969 463.425781 138.570312 467.542969 136.914062 L 479.109375 132.207031 C 484.410156 131 489.921875 132.988281 493.234375 137.316406 C 475.964844 145.714844 462.433594 160.242188 455.289062 178.054688 C 454.695312 179.570312 454.578125 181.226562 454.933594 182.785156 L 404.636719 182.785156 C 405.183594 180.445312 404.636719 177.984375 403.148438 176.09375 C 393.96875 164.546875 382.28125 155.25 368.9375 148.910156 L 379.820312 139.304688 C 380.082031 139.066406 380.4375 138.996094 380.742188 139.066406 L 386.800781 140.699219 C 390.46875 141.695312 394.394531 141.101562 397.589844 139.066406 L 409.535156 131.59375 L 418.144531 135.28125 C 422.261719 137.058594 426.992188 136.726562 430.851562 134.40625 L 439.886719 128.941406 C 440.453125 128.589844 441.140625 128.375 441.828125 128.351562 Z M 441.613281 122.273438 C 439.886719 122.34375 438.207031 122.839844 436.71875 123.738281 L 427.679688 129.203125 C 425.527344 130.503906 422.878906 130.695312 420.558594 129.699219 L 411.734375 125.914062 C 410.03125 125.15625 408.066406 125.324219 406.484375 126.316406 L 394.347656 133.910156 C 392.574219 135.046875 390.417969 135.355469 388.386719 134.808594 L 382.328125 133.203125 C 380.035156 132.585938 377.574219 133.152344 375.800781 134.738281 L 362.007812 146.921875 C 360.515625 148.222656 360.375 150.496094 361.675781 151.984375 C 362.03125 152.386719 362.480469 152.695312 362.976562 152.90625 C 376.816406 158.796875 389 168.070312 398.34375 179.875 C 398.984375 180.65625 398.839844 181.769531 398.0625 182.410156 C 397.753906 182.644531 397.351562 182.785156 396.949219 182.785156 L 391.601562 182.785156 C 388.738281 182.785156 386.421875 185.105469 386.421875 187.992188 C 386.421875 190.855469 388.738281 193.171875 391.601562 193.171875 L 393.992188 193.171875 C 394.960938 193.171875 395.765625 193.976562 395.765625 194.96875 C 395.765625 195.5625 395.484375 196.105469 395.007812 196.4375 C 356.425781 223.167969 330.828125 264.878906 324.464844 311.363281 C 320.960938 336.796875 334.117188 361.585938 357.085938 372.992188 C 404.257812 396.386719 459.664062 396.386719 506.835938 372.992188 C 529.808594 361.585938 542.9375 336.796875 539.460938 311.363281 C 533.097656 264.878906 507.5 223.167969 468.914062 196.4375 C 468.085938 195.894531 467.898438 194.757812 468.441406 193.953125 C 468.796875 193.480469 469.339844 193.171875 469.929688 193.171875 L 472.296875 193.171875 C 475.160156 193.171875 477.5 190.855469 477.5 187.992188 C 477.5 185.105469 475.160156 182.785156 472.296875 182.785156 L 462.621094 182.785156 C 461.628906 182.785156 460.824219 181.984375 460.824219 180.988281 C 460.824219 180.753906 460.871094 180.539062 460.964844 180.328125 C 467.875 163.058594 481.261719 149.167969 498.296875 141.671875 C 500.117188 140.867188 500.921875 138.761719 500.117188 136.9375 C 500.09375 136.890625 500.070312 136.84375 500.046875 136.796875 C 495.859375 128.375 486.324219 124.046875 477.21875 126.386719 L 465.246094 131.261719 C 462.953125 132.183594 460.351562 131.949219 458.246094 130.644531 L 447.457031 123.832031 C 445.707031 122.746094 443.671875 122.199219 441.613281 122.273438 " fill-opacity="1" fill-rule="nonzero"></path></g><path fill="#ffffff" d="M 422.804688 236.441406 C 407.144531 242.332031 399.21875 259.816406 405.109375 275.476562 C 407.714844 282.40625 412.753906 288.132812 419.28125 291.585938 L 436.292969 300.597656 C 440.832031 302.988281 442.558594 308.621094 440.148438 313.136719 C 437.757812 317.679688 432.128906 319.40625 427.609375 316.992188 C 424.582031 315.386719 422.6875 312.238281 422.6875 308.808594 L 401.632812 308.808594 C 401.632812 322.007812 410.195312 333.71875 422.804688 337.695312 L 422.804688 350.421875 L 444.167969 350.421875 L 444.167969 336.558594 C 459.5 329.792969 466.453125 311.90625 459.710938 296.578125 C 456.945312 290.332031 452.1875 285.199219 446.15625 282.003906 L 429.667969 273.25 C 425.007812 271.144531 422.925781 265.632812 425.03125 260.972656 C 427.160156 256.3125 432.648438 254.230469 437.308594 256.359375 C 440.644531 257.851562 442.773438 261.164062 442.773438 264.804688 L 463.804688 264.804688 C 463.804688 252.171875 455.972656 240.863281 444.167969 236.417969 L 444.167969 223.191406 L 422.804688 223.191406 L 422.804688 236.441406 " fill-opacity="1" fill-rule="nonzero"></path><g clip-path="url(#c2127b913a)"><path fill="#05042c" d="M 393.6875 216.257812 L 470.3125 216.257812 L 470.3125 359.335938 L 393.6875 359.335938 Z M 393.6875 216.257812 " fill-opacity="1" fill-rule="nonzero"></path></g><g fill="#ffffff" fill-opacity="1"><g transform="translate(400.167816, 333.091214)"><g><path d="M 2.8125 -18.40625 C 5.769531 -20.1875 8.007812 -21.789062 9.53125 -23.21875 C 11.050781 -24.65625 12.210938 -26.472656 13.015625 -28.671875 C 13.828125 -30.867188 14.234375 -33.710938 14.234375 -37.203125 C 14.234375 -40.335938 14.054688 -42.664062 13.703125 -44.1875 L 3.09375 -44.1875 L 3.09375 -59.359375 L 11.953125 -59.359375 L 11.015625 -63.25 C 10.390625 -65.757812 9.785156 -68.738281 9.203125 -72.1875 C 8.617188 -75.632812 8.328125 -78.34375 8.328125 -80.3125 C 8.328125 -88.8125 10.695312 -95.117188 15.4375 -99.234375 C 20.1875 -103.359375 26.945312 -105.421875 35.71875 -105.421875 C 44.757812 -105.421875 51.269531 -102.710938 55.25 -97.296875 C 59.238281 -91.878906 61.234375 -84.023438 61.234375 -73.734375 L 40.296875 -73.734375 C 40.296875 -77.847656 40.070312 -80.929688 39.625 -82.984375 C 39.175781 -85.046875 38.007812 -86.078125 36.125 -86.078125 C 34.875 -86.078125 33.976562 -85.695312 33.4375 -84.9375 C 32.90625 -84.175781 32.59375 -83.125 32.5 -81.78125 C 32.40625 -80.4375 32.359375 -79.097656 32.359375 -77.765625 L 32.359375 -76.953125 C 32.359375 -74.710938 33.613281 -68.847656 36.125 -59.359375 L 54.65625 -59.359375 L 54.65625 -44.1875 L 38.40625 -44.1875 L 39.078125 -35.453125 C 38.898438 -31.691406 37.957031 -28.421875 36.25 -25.640625 C 34.550781 -22.867188 32.40625 -20.675781 29.8125 -19.0625 L 60.5625 -19.0625 L 60.5625 0 L 2.8125 0 Z M 2.8125 -18.40625 "></path></g></g></g></svg>